<svg width="112" height="114" viewBox="0 0 112 114" fill="none" xmlns="http://www.w3.org/2000/svg">
<path d="M0 32.4C0 20.8213 0 15.032 2.32469 10.6414C4.20069 7.09825 7.09825 4.20069 10.6414 2.32469C15.032 0 20.8213 0 32.4 0H79.6C91.1787 0 96.968 0 101.359 2.32469C104.902 4.20069 107.799 7.09825 109.675 10.6414C112 15.032 112 20.8213 112 32.4V79.6C112 91.1787 112 96.968 109.675 101.359C107.799 104.902 104.902 107.799 101.359 109.675C96.968 112 91.1787 112 79.6 112H32.4C20.8213 112 15.032 112 10.6414 109.675C7.09825 107.799 4.20069 104.902 2.32469 101.359C0 96.968 0 91.1787 0 79.6V32.4Z" fill="#C0F9FC"/>
<path d="M90.111 80.468H20.4152C15.5187 80.468 11.4909 76.4998 11.4909 71.6279V33.1243C11.4909 28.2524 15.5187 24.2842 20.4152 24.2842H90.111C95.0075 24.2842 99.0352 28.2524 99.0352 33.1243V71.6279C99.0352 76.4998 95.0075 80.468 90.111 80.468Z" fill="#2891B5"/>
<path d="M91.8879 78.779H22.1921C17.2956 78.779 13.2679 74.8108 13.2679 69.9389V31.396C13.2679 26.5241 17.2561 22.5166 22.1921 22.5166H91.8879C96.7844 22.5166 100.812 26.5241 100.812 31.396V69.8996C100.773 74.8108 96.7844 78.779 91.8879 78.779Z" fill="#3EAFCE"/>
<path d="M90.2294 74.0246H24.8773C21.6788 74.0246 19.0331 71.3923 19.0331 68.2098V33.1244C19.0331 29.942 21.6788 27.3096 24.8773 27.3096H90.2689C93.4674 27.3096 96.1131 29.942 96.1131 33.1244V68.2098C96.0736 71.4315 93.4674 74.0246 90.2294 74.0246Z" fill="#5DCEE8"/>
<path d="M18.5987 31.4744V38.5464C24.6798 38.3107 29.5763 33.3602 29.5763 27.2311V26.8775H23.2583C20.6521 26.8382 18.5987 28.9205 18.5987 31.4744Z" fill="#3EAFCE"/>
<path d="M23.0608 74.8111H30.1686C29.9317 68.7605 24.9562 63.8887 18.7962 63.8887H18.4408V70.175C18.4408 72.7288 20.5336 74.8111 23.0608 74.8111Z" fill="#3EAFCE"/>
<path d="M96.8634 70.2137V63.1416C90.7823 63.3773 85.8858 68.3278 85.8858 74.4569V74.8105H92.2038C94.7705 74.8105 96.8634 72.7282 96.8634 70.2137Z" fill="#3EAFCE"/>
<path d="M92.3618 26.8379H85.254C85.4909 32.8885 90.4664 37.7603 96.6265 37.7603H96.9819V31.474C96.9819 28.9202 94.889 26.8379 92.3618 26.8379Z" fill="#3EAFCE"/>
<path d="M45.4899 56.2268C44.5027 56.2268 44.0288 55.716 44.0288 54.7338V41.5719C44.0288 40.5896 44.5422 40.1182 45.4899 40.1182H50.9787C52.7556 40.1182 54.0982 40.5503 55.0459 41.3754C55.9936 42.2005 56.4675 43.3792 56.4675 44.9115C56.4675 46.0901 56.1516 47.0724 55.5197 47.8582C54.8879 48.644 54.0192 49.1547 52.8346 49.4297C53.6243 49.6655 54.2561 50.2548 54.73 51.1585L56.428 54.3016C56.7044 54.7731 56.7439 55.2446 56.5859 55.6375C56.428 56.0304 56.0331 56.2661 55.4013 56.2661C55.0064 56.2661 54.651 56.1875 54.4141 55.9911C54.1377 55.8339 53.9402 55.5589 53.7428 55.166L51.4525 50.962C51.1761 50.4513 50.8602 50.0977 50.4653 49.9405C50.1099 49.7834 49.6361 49.6655 49.0438 49.6655H46.8719V54.7338C46.9114 55.716 46.4376 56.2268 45.4899 56.2268ZM46.9114 47.5046H50.4653C52.5977 47.5046 53.6638 46.6402 53.6638 44.9115C53.6638 43.222 52.5977 42.3577 50.4653 42.3577H46.9114V47.5046Z" fill="white"/>
<path d="M60.7716 60.3132C59.8239 60.3132 59.3501 59.8418 59.3501 58.8988V46.2477C59.3501 45.3047 59.8239 44.8332 60.7321 44.8332C61.6798 44.8332 62.1537 45.3047 62.1537 46.2477V46.7191C62.4696 46.1298 62.9434 45.6583 63.5752 45.3047C64.207 44.9511 64.9573 44.7939 65.7471 44.7939C66.7343 44.7939 67.5635 45.0297 68.3138 45.5012C69.064 45.9726 69.6169 46.6405 70.0117 47.4656C70.4066 48.33 70.6435 49.3515 70.6435 50.5302C70.6435 51.7089 70.4461 52.7304 70.0117 53.5948C69.6169 54.4591 69.0245 55.1271 68.3138 55.5985C67.603 56.07 66.7343 56.3057 65.7471 56.3057C64.9573 56.3057 64.2465 56.1486 63.6147 55.795C62.9829 55.4414 62.5091 55.0092 62.1537 54.4198V58.8988C62.1932 59.8025 61.7193 60.3132 60.7716 60.3132ZM64.9573 54.1055C65.826 54.1055 66.4973 53.7912 67.0107 53.2019C67.524 52.5732 67.8004 51.6696 67.8004 50.4909C67.8004 49.2729 67.524 48.3693 67.0107 47.7799C66.4973 47.1906 65.826 46.8763 64.9573 46.8763C64.1281 46.8763 63.4173 47.1906 62.9039 47.7799C62.3906 48.3693 62.1142 49.2729 62.1142 50.4909C62.1142 51.6696 62.3511 52.5732 62.9039 53.2019C63.4173 53.8305 64.1281 54.1055 64.9573 54.1055Z" fill="white"/>
<path d="M46.635 84.0439C46.635 82.6688 46.635 81.5687 46.635 80.4686C46.635 74.2608 46.635 77.6004 46.635 71.3927C46.635 68.7996 47.6617 67.8174 50.3074 67.8174C54.2956 67.8174 58.3234 67.8174 62.3116 67.8174C64.9178 67.8174 65.9445 68.7996 65.984 71.3927C66.0235 77.9933 65.984 75.0073 65.984 81.608C65.984 82.3545 65.984 83.1009 65.984 83.9653C66.7737 84.0046 67.3661 84.0832 67.9584 84.0832C71.5913 84.0832 75.1452 82.6688 78.778 82.6688C80.318 82.6688 81.5027 78.897 82.174 80.3114C82.7663 81.5687 82.2924 88.4836 81.3842 89.4265C73.8026 96.9701 66.2604 104.474 58.6788 112.018C57.2572 113.432 55.2828 113.432 53.8218 112.018C46.2401 104.514 38.6585 96.9701 31.1163 89.4658C30.0897 88.3657 29.6158 82.0008 30.1291 80.7043C30.7215 79.3292 32.9328 83.1402 34.3543 83.1402C38.619 83.1402 42.0939 84.0439 46.635 84.0439Z" fill="#F09537"/>
<path d="M46.635 77.8749C46.635 76.4998 46.635 75.3997 46.635 74.2996C46.635 68.0919 46.635 71.4315 46.635 65.2238C46.635 62.6307 47.6617 61.6484 50.3074 61.6484C54.2956 61.6484 58.3234 61.6484 62.3116 61.6484C64.9178 61.6484 65.9445 62.6307 65.984 65.2238C66.0235 71.8244 65.984 68.8384 65.984 75.439C65.984 76.1855 65.984 76.8927 65.984 77.7964C66.7738 77.8357 67.3661 77.9142 67.9584 77.9142C71.5913 77.9142 75.2241 77.9142 78.857 77.9142C80.397 77.9142 81.4632 78.6214 82.095 80.0359C82.6873 81.2931 82.2924 82.3146 81.3842 83.2576C73.8026 90.8011 66.2604 98.3054 58.6788 105.849C57.2572 107.263 55.2828 107.263 53.8218 105.849C46.2401 98.3447 38.6585 90.8011 31.1163 83.2969C30.1291 82.3146 29.9317 81.136 30.4845 79.8787C31.0768 78.5036 32.1825 77.9535 33.6041 77.9535C37.8293 77.8749 42.0939 77.8749 46.635 77.8749Z" fill="#F6C957"/>
<path d="M39.3693 85.1439L54.7695 100.467C55.2038 100.899 55.8356 101.017 56.3885 100.781C56.9413 100.545 57.2967 100.035 57.2967 99.406V69.1532C57.2967 68.3281 56.6254 67.6602 55.8356 67.6602C55.0064 67.6602 54.3746 68.3281 54.3746 69.1532V95.8306L41.5016 83.0223C40.9093 82.433 40.0011 82.433 39.4087 83.0223C38.8164 83.6509 38.8164 84.5939 39.3693 85.1439Z" fill="#F9DD60"/>
</svg>
