<svg width="128" height="128" viewBox="0 0 128 128" fill="none" xmlns="http://www.w3.org/2000/svg">
<path d="M8 40.4C8 28.8213 8 23.032 10.3247 18.6414C12.2007 15.0983 15.0983 12.2007 18.6414 10.3247C23.032 8 28.8213 8 40.4 8H87.6C99.1787 8 104.968 8 109.359 10.3247C112.902 12.2007 115.799 15.0983 117.675 18.6414C120 23.032 120 28.8213 120 40.4V87.6C120 99.1787 120 104.968 117.675 109.359C115.799 112.902 112.902 115.799 109.359 117.675C104.968 120 99.1787 120 87.6 120H40.4C28.8213 120 23.032 120 18.6414 117.675C15.0983 115.799 12.2007 112.902 10.3247 109.359C8 104.968 8 99.1787 8 87.6V40.4Z" fill="#C0F9FC"/>
<path d="M21.6875 43.6178C22.7116 43.0255 23.5782 42.5517 24.4054 42.0383C29.1322 39.3137 26.5719 40.7747 31.2987 38.0501C33.2682 36.9049 34.4499 37.2603 35.5922 39.2347C37.3647 42.2753 39.0979 45.2763 40.8311 48.3169C41.9734 50.2913 41.6583 51.5154 39.6888 52.6605C34.6862 55.5826 36.9709 54.24 31.9683 57.1621C31.4169 57.478 30.8654 57.7939 30.1958 58.1888C30.5109 58.7811 30.7078 59.2945 30.9836 59.7288C32.5592 62.493 34.1348 65.2176 35.7104 67.9818C36.38 69.1269 36.3012 70.2721 35.5134 71.3382C34.8044 72.3254 33.859 72.4834 32.7561 72.207C23.7358 69.7982 14.7548 67.3895 5.73451 64.9412C4.04073 64.4674 3.17415 63.0063 3.60744 61.2689C5.97085 52.2262 8.41303 43.223 10.8158 34.1803C11.131 32.9956 11.9581 32.3638 13.1398 32.2059C14.4397 32.0479 15.3063 32.6403 15.9365 33.7459C17.8273 36.9444 19.6786 40.1824 21.6875 43.6178Z" fill="#F09537"/>
<path d="M20.1513 41.0514C21.1754 40.4591 22.042 39.9853 22.8692 39.4719C27.596 36.7473 25.0357 38.2083 29.7625 35.4837C31.732 34.3385 32.9137 34.6939 34.056 36.6683C35.8285 39.7089 37.5617 42.7099 39.2949 45.7505C40.4372 47.7249 40.1221 48.949 38.1525 50.0941C33.15 53.0162 35.4346 51.6736 30.4321 54.5957C29.8806 54.9116 29.3292 55.2275 28.6595 55.6224C28.9747 56.2147 29.1716 56.7281 29.4473 57.1624C31.0229 59.9266 32.5985 62.6512 34.1741 65.3759C34.8438 66.5605 34.765 67.6662 33.9772 68.7323C33.2682 69.7195 32.3228 69.8775 31.2199 69.6011C22.239 67.2318 13.2186 64.823 4.23768 62.3748C2.54391 61.901 1.67733 60.4399 2.11062 58.7024C4.47402 49.6598 6.91621 40.6566 9.319 31.6139C9.63412 30.4292 10.4613 29.7974 11.643 29.6395C12.9429 29.4815 13.8095 30.0738 14.4397 31.1795C16.291 34.378 18.1424 37.616 20.1513 41.0514Z" fill="#F6C957"/>
<path d="M8.21609 57.5568L13.6125 41.2484L17.7485 49.0274C17.9454 49.3828 18.2606 49.6197 18.6151 49.7382C19.009 49.8567 19.4029 49.8172 19.7574 49.6197L32.3622 42.7489C33.0712 42.354 33.347 41.4458 32.9531 40.735C32.5592 40.0242 31.6532 39.7478 30.9442 40.1427L19.6392 46.3423L14.5973 36.7862C14.3216 36.2729 13.7701 35.957 13.1792 35.9965C12.5884 36.036 12.0763 36.4308 11.9188 36.9837L5.41939 56.6091C5.14366 57.3988 5.57695 58.2281 6.36475 58.465C7.11316 58.7414 7.94036 58.3071 8.21609 57.5568Z" fill="#F9DD60"/>
<path d="M103.501 71.9705L52.8845 101.27C49.3394 103.324 44.7307 102.1 42.6824 98.5457L26.4537 70.3515C24.4054 66.7976 25.6265 62.1775 29.211 60.1242L79.8273 30.8243C83.3724 28.7709 87.981 29.995 90.0293 33.5489L106.258 61.7432C108.267 65.3365 107.046 69.9171 103.501 71.9705Z" fill="#2891B5"/>
<path d="M104.052 69.9954L53.4359 99.2953C49.8908 101.349 45.2822 100.125 43.2339 96.5707L27.0052 68.3765C24.9569 64.8226 26.178 60.2025 29.7231 58.1491L80.3787 28.8887C83.9238 26.8354 88.5325 28.0595 90.5808 31.6134L106.809 59.8076C108.858 63.3615 107.637 67.9421 104.052 69.9954Z" fill="#3EAFCE"/>
<path d="M100.862 67.2316L53.3965 94.715C51.0725 96.0576 48.0395 95.2679 46.7002 92.8986L31.9289 67.2316C30.5897 64.9018 31.3775 61.8612 33.7409 60.5187L81.2059 33.0352C83.5299 31.6926 86.5236 32.4824 87.9022 34.8516L102.674 60.5187C104.013 62.8484 103.225 65.8495 100.862 67.2316Z" fill="#5DCEE8"/>
<path d="M30.9048 66.2046L33.859 71.3775C38.1919 68.6528 39.6494 62.9666 37.0496 58.5045L36.8921 58.2676L32.3228 60.8738C30.4715 61.9399 29.8412 64.3487 30.9048 66.2046Z" fill="#3EAFCE"/>
<path d="M52.4512 96.018L57.6113 93.0564C54.8933 88.7128 49.2212 87.2517 44.7701 89.8579L44.5338 90.0159L47.1729 94.636C48.197 96.4524 50.5998 97.0842 52.4512 96.018Z" fill="#3EAFCE"/>
<path d="M104.052 61.6241L101.098 56.4512C96.765 59.1758 95.3075 64.8621 97.9073 69.3242L98.0648 69.5611L102.673 66.9154C104.485 65.8887 105.116 63.48 104.052 61.6241Z" fill="#3EAFCE"/>
<path d="M82.5452 31.8112L77.3851 34.7728C80.103 39.1164 85.7752 40.5775 90.2262 37.9713L90.4626 37.8134L87.8235 33.1933C86.7599 31.3769 84.3965 30.7451 82.5452 31.8112Z" fill="#3EAFCE"/>
<path d="M107.834 97.9532C106.809 98.5455 105.982 99.0194 105.116 99.5327C100.389 102.257 102.949 100.796 98.2225 103.521C96.253 104.666 95.0712 104.311 93.9289 102.336C92.1564 99.3353 90.4232 96.2947 88.6901 93.2542C87.5477 91.2798 87.8629 90.0557 89.8324 88.9105C94.8349 85.9884 92.5503 87.331 97.5528 84.4484C98.1043 84.1325 98.6557 83.8166 99.3254 83.4217C99.0103 82.8294 98.8133 82.3161 98.5376 81.8817C96.962 79.1176 95.3864 76.3929 93.8108 73.6288C93.1411 72.4441 93.2199 71.3385 94.0077 70.2723C94.7167 69.2851 95.6621 69.1272 96.765 69.4036C105.785 71.8123 114.766 74.2211 123.787 76.6693C125.48 77.1432 126.347 78.6042 125.914 80.3417C123.55 89.3844 121.108 98.3876 118.705 107.43C118.39 108.615 117.563 109.247 116.381 109.405C115.081 109.563 114.215 108.97 113.585 107.865C111.694 104.627 109.843 101.389 107.834 97.9532Z" fill="#F09537"/>
<path d="M106.337 95.3858C105.313 95.9781 104.446 96.452 103.619 96.9653C98.8921 99.69 101.452 98.229 96.7256 100.954C94.7561 102.099 93.5744 101.743 92.4321 99.769C90.6596 96.7679 88.9264 93.7274 87.1932 90.6868C86.0509 88.7124 86.366 87.4883 88.3355 86.3431C93.3381 83.4211 91.0535 84.7636 96.056 81.881C96.6075 81.5651 97.1589 81.2492 97.8286 80.8544C97.5134 80.262 97.3165 79.7487 97.0408 79.3143C95.4651 76.5502 93.8895 73.8255 92.3139 71.0614C91.6443 69.8768 91.7231 68.7711 92.5109 67.7049C93.2199 66.7177 94.1653 66.5598 95.2682 66.8362C104.289 69.245 113.269 71.6537 122.29 74.1019C123.984 74.5758 124.85 76.0368 124.417 77.7743C122.053 86.817 119.611 95.8202 117.208 104.863C116.893 106.048 116.066 106.679 114.884 106.837C113.585 106.995 112.718 106.403 112.088 105.297C110.158 102.02 108.306 98.8213 106.337 95.3858Z" fill="#F6C957"/>
<path d="M92.5108 90.8061L105.707 83.2244C106.061 83.027 106.297 82.7111 106.416 82.3162C106.534 81.9213 106.455 81.5264 106.258 81.1711L102.792 75.1689L117.957 78.4859C118.745 78.6438 119.532 78.17 119.729 77.3407C119.887 76.551 119.414 75.7612 118.587 75.5638L100.153 71.536C99.6011 71.4176 98.9708 71.6545 98.6557 72.1284C98.3012 72.6022 98.2618 73.234 98.5769 73.7474L102.989 81.3685L91.0534 88.2394C90.3444 88.6342 90.108 89.5424 90.5019 90.2532C90.8958 90.964 91.8018 91.2009 92.5108 90.8061Z" fill="#F9DD60"/>
<path d="M62.1411 75.5238C61.3533 75.9977 60.7231 75.8002 60.2504 75.0105L54.0661 64.2698C53.5935 63.48 53.7904 62.8482 54.5782 62.3744L59.0293 59.8077C60.4473 58.9784 61.7472 58.702 62.9289 58.939C64.1106 59.1759 65.0166 59.8867 65.7256 61.1108C66.2771 62.098 66.5134 63.0457 66.3558 63.9539C66.1983 64.8621 65.7256 65.7308 64.9378 66.4811C65.6862 66.3232 66.474 66.4811 67.3012 66.9945L70.1373 68.7714C70.5706 69.0478 70.8069 69.3637 70.8857 69.7981C70.9645 70.193 70.7281 70.5483 70.2161 70.8248L69.2707 71.1012L68.3254 70.7853L64.5045 68.416C64.0318 68.1396 63.6379 67.9816 63.244 68.0211C62.8501 68.0606 62.4168 68.2186 61.9835 68.495L60.2504 69.5217L62.6138 73.6284C63.0865 74.4181 62.9289 75.0499 62.1411 75.5238ZM59.2262 67.7447L62.1017 66.0862C63.8349 65.099 64.2682 63.8749 63.4804 62.4929C62.6926 61.1108 61.4321 60.9133 59.6989 61.9005L56.8234 63.559L59.2262 67.7447Z" fill="white"/>
<path d="M76.4003 71.6938C75.6519 72.1282 75.0217 71.9702 74.5884 71.1805L68.6405 60.8742C68.2072 60.0844 68.3254 59.4921 69.1132 59.0577C69.8616 58.6234 70.4918 58.7813 70.9251 59.5711L71.1615 59.966C71.1615 59.3342 71.319 58.7418 71.6735 58.1495C72.028 57.5572 72.5401 57.0834 73.1703 56.6885C73.9581 56.2146 74.746 56.0172 75.5731 56.0567C76.4003 56.0962 77.1487 56.3726 77.8972 56.8464C78.6456 57.3598 79.2758 58.0705 79.8273 59.0577C80.3787 60.0054 80.6938 60.9531 80.7726 61.8614C80.8514 62.7696 80.6938 63.5593 80.3393 64.3096C79.9848 65.0204 79.394 65.6127 78.6062 66.0865C77.9759 66.4419 77.3063 66.6394 76.6367 66.6789C75.967 66.6789 75.3762 66.5604 74.8247 66.2445L76.9124 69.9169C77.3457 70.6276 77.1881 71.2199 76.4003 71.6938ZM76.9124 64.7045C77.582 64.3096 78.0153 63.7173 78.1335 63.0065C78.2517 62.2562 78.0547 61.427 77.5033 60.4398C76.9518 59.4526 76.3216 58.8603 75.6125 58.5839C74.9035 58.347 74.2339 58.4259 73.5249 58.8208C72.8552 59.2157 72.4219 59.7685 72.3038 60.5188C72.1462 61.2296 72.3825 62.0983 72.934 63.0855C73.4855 64.0727 74.1157 64.665 74.8247 64.9414C75.5338 65.2178 76.2034 65.0994 76.9124 64.7045Z" fill="white"/>
</svg>
