<svg width="128" height="128" viewBox="0 0 128 128" fill="none" xmlns="http://www.w3.org/2000/svg">
<path d="M8 40.4C8 28.8213 8 23.032 10.3247 18.6414C12.2007 15.0983 15.0983 12.2007 18.6414 10.3247C23.032 8 28.8213 8 40.4 8H87.6C99.1787 8 104.968 8 109.359 10.3247C112.902 12.2007 115.799 15.0983 117.675 18.6414C120 23.032 120 28.8213 120 40.4V87.6C120 99.1787 120 104.968 117.675 109.359C115.799 112.902 112.902 115.799 109.359 117.675C104.968 120 99.1787 120 87.6 120H40.4C28.8213 120 23.032 120 18.6414 117.675C15.0983 115.799 12.2007 112.902 10.3247 109.359C8 104.968 8 99.1787 8 87.6V40.4Z" fill="#C0F9FC"/>
<path d="M63.8357 48.3748C75.9394 48.3748 85.7514 38.665 85.7514 26.6874C85.7514 14.7098 75.9394 5 63.8357 5C51.732 5 41.92 14.7098 41.92 26.6874C41.92 38.665 51.732 48.3748 63.8357 48.3748Z" fill="#F6C957"/>
<path d="M63.8356 10.0017C68.4952 10.0017 72.7204 11.8774 75.7609 14.8862C78.8015 17.8951 80.6969 22.0763 80.6969 26.6873C80.6969 27.2344 81.1313 27.6642 81.6841 27.6642C82.2369 27.6642 82.6713 27.2344 82.6713 26.6873C82.6713 16.3711 74.2209 8.00879 63.7962 8.00879C63.2433 8.00879 62.809 8.43863 62.809 8.9857C62.8484 9.53277 63.2828 10.0017 63.8356 10.0017Z" fill="#F9DD60"/>
<path d="M53.8848 32.9399C52.9765 32.9399 52.5027 32.471 52.5027 31.5332V19.3022C52.5027 18.4035 52.9765 17.9346 53.8848 17.9346H59.0182C60.6766 17.9346 61.9402 18.3253 62.809 19.1069C63.7172 19.8884 64.1516 20.9825 64.1516 22.3893C64.1516 23.4834 63.8751 24.4213 63.2828 25.1246C62.6905 25.828 61.8613 26.336 60.7556 26.5705C61.4664 26.8049 62.0587 27.352 62.5326 28.2117L64.1121 31.1424C64.349 31.6113 64.3885 32.0021 64.2305 32.3928C64.0726 32.7836 63.7172 32.979 63.1249 32.979C62.73 32.979 62.4141 32.9008 62.1772 32.7445L61.6243 31.963L59.492 28.0554C59.2551 27.5864 58.9392 27.2738 58.5838 27.0785C58.2284 26.9221 57.794 26.844 57.2412 26.844H55.2273V31.5722C55.2273 32.5101 54.793 32.9399 53.8848 32.9399ZM55.2273 24.8511H58.5443C60.5187 24.8511 61.5059 24.0305 61.5059 22.4674C61.5059 20.8653 60.5187 20.0838 58.5443 20.0838H55.2273V24.8511Z" fill="white"/>
<path d="M68.1793 36.7689C67.3106 36.7689 66.8762 36.339 66.8762 35.4403V23.6392C66.8762 22.7404 67.3106 22.3106 68.1793 22.3106C69.048 22.3106 69.4824 22.7404 69.4824 23.6392V24.069C69.7983 23.5219 70.2327 23.0921 70.825 22.7404C71.4173 22.4278 72.0886 22.2324 72.8784 22.2324C73.7866 22.2324 74.5763 22.4669 75.2871 22.8967C75.9979 23.3266 76.5112 23.9518 76.9061 24.7333C77.301 25.5148 77.4984 26.4918 77.4984 27.5859C77.4984 28.68 77.301 29.6179 76.9061 30.4385C76.5112 31.2591 75.9979 31.8843 75.3266 32.3141C74.6553 32.744 73.8261 32.9784 72.9178 32.9784C72.1676 32.9784 71.5358 32.8221 70.9435 32.5095C70.3511 32.1969 69.9168 31.7671 69.6009 31.22V35.4012C69.5219 36.2999 69.0875 36.7689 68.1793 36.7689ZM72.1281 30.9855C72.9178 30.9855 73.5496 30.712 74.063 30.1259C74.5763 29.5397 74.7738 28.7191 74.7738 27.625C74.7738 26.4918 74.5368 25.6711 74.063 25.1241C73.5891 24.577 72.9573 24.3035 72.1281 24.3035C71.2988 24.3035 70.667 24.5379 70.1932 25.1241C69.7193 25.6711 69.4824 26.5308 69.4824 27.625C69.4824 28.7191 69.7193 29.5788 70.1932 30.1259C70.667 30.712 71.3383 30.9855 72.1281 30.9855Z" fill="white"/>
<path d="M87.6467 100.19H30.9029C28.4941 100.19 26.5592 98.2757 26.5592 95.892V49.7818C26.5592 47.3981 28.4941 45.4834 30.9029 45.4834H87.6467C94.9125 45.4834 100.875 51.3839 100.875 58.574V87.1389C100.875 94.3289 94.952 100.19 87.6467 100.19Z" fill="#2891B5"/>
<path d="M90.8453 97.455H32.127C30.2711 97.455 28.7706 95.9701 28.7706 94.1336V46.0305C28.7706 44.1939 30.2711 42.709 32.127 42.709H90.8453C97.5977 42.709 103.086 48.1797 103.086 54.8227V85.3414C103.086 91.9843 97.5977 97.455 90.8453 97.455Z" fill="#5DCEE8"/>
<path d="M106.285 78.6198H92.4642C87.3703 78.6198 83.2241 74.5168 83.2241 69.4759C83.2241 64.4351 87.3703 60.332 92.4642 60.332H106.088L106.64 60.8791V78.229L106.285 78.6198Z" fill="#3EAFCE"/>
<path d="M35.0886 48.6496H37.063L37.5763 48.1803L37.063 47.6719H35.0886L34.6147 48.1803L35.0886 48.6496Z" fill="white"/>
<path d="M80.7759 48.6497H84.7642L85.2775 48.1412L84.7642 47.6328H80.7759L80.2626 48.1412L80.7759 48.6497ZM72.8389 48.6497H76.8271L77.3405 48.1412L76.8271 47.6328H72.8389L72.3255 48.1412L72.8389 48.6497ZM64.9018 48.6497H68.8901L69.4034 48.1412L68.8901 47.6328H64.9018L64.3885 48.1412L64.9018 48.6497ZM56.9253 48.6497H60.9136L61.4269 48.1412L60.9136 47.6328H56.9253L56.412 48.1412L56.9253 48.6497ZM48.9883 48.6497H52.9765L53.4899 48.1412L52.9765 47.6328H48.9883L48.4749 48.1412L48.9883 48.6497ZM41.0512 48.6497H45.0395L45.5528 48.1412L45.0395 47.6328H41.0512L40.5379 48.1412L41.0512 48.6497Z" fill="white"/>
<path d="M88.7524 48.6496H90.7268L91.2007 48.1803L90.7268 47.6719H88.7524L88.2391 48.1803L88.7524 48.6496Z" fill="white"/>
<path d="M35.0886 91.7893H37.063L37.5763 91.2808L37.063 90.8115H35.0886L34.6147 91.2808L35.0886 91.7893Z" fill="white"/>
<path d="M80.7759 91.7893H84.7642L85.2775 91.2809L84.7642 90.7725H80.7759L80.2626 91.2809L80.7759 91.7893ZM72.8389 91.7893H76.8271L77.3405 91.2809L76.8271 90.7725H72.8389L72.3255 91.2809L72.8389 91.7893ZM64.9018 91.7893H68.8901L69.4034 91.2809L68.8901 90.7725H64.9018L64.3885 91.2809L64.9018 91.7893ZM56.9253 91.7893H60.9136L61.4269 91.2809L60.9136 90.7725H56.9253L56.412 91.2809L56.9253 91.7893ZM48.9883 91.7893H52.9765L53.4899 91.2809L52.9765 90.7725H48.9883L48.4749 91.2809L48.9883 91.7893ZM41.0512 91.7893H45.0395L45.5528 91.2809L45.0395 90.7725H41.0512L40.5379 91.2809L41.0512 91.7893Z" fill="white"/>
<path d="M88.7524 91.7893H90.7268L91.2007 91.2808L90.7268 90.8115H88.7524L88.2391 91.2808L88.7524 91.7893Z" fill="white"/>
<path d="M93.1355 73.1492C95.2946 73.1492 97.0448 71.4172 97.0448 69.2807C97.0448 67.1441 95.2946 65.4121 93.1355 65.4121C90.9765 65.4121 89.2263 67.1441 89.2263 69.2807C89.2263 71.4172 90.9765 73.1492 93.1355 73.1492Z" fill="white"/>
</svg>
