<svg width="128" height="128" viewBox="0 0 128 128" fill="none" xmlns="http://www.w3.org/2000/svg">
<path d="M8 40.4C8 28.8213 8 23.032 10.3247 18.6414C12.2007 15.0983 15.0983 12.2007 18.6414 10.3247C23.032 8 28.8213 8 40.4 8H87.6C99.1787 8 104.968 8 109.359 10.3247C112.902 12.2007 115.799 15.0983 117.675 18.6414C120 23.032 120 28.8213 120 40.4V87.6C120 99.1787 120 104.968 117.675 109.359C115.799 112.902 112.902 115.799 109.359 117.675C104.968 120 99.1787 120 87.6 120H40.4C28.8213 120 23.032 120 18.6414 117.675C15.0983 115.799 12.2007 112.902 10.3247 109.359C8 104.968 8 99.1787 8 87.6V40.4Z" fill="#C0F9FC"/>
<path d="M75.583 107.241H47.1155C41.6271 107.241 37.1357 102.737 37.1357 97.2341V33.9171C37.1357 28.4138 41.6271 23.9102 47.1155 23.9102H75.5925C81.0809 23.9102 85.5723 28.4138 85.5723 33.9171V97.2341C85.5723 102.737 81.0714 107.241 75.583 107.241Z" fill="#2891B5"/>
<path d="M77.3492 105.47H48.8722C43.3838 105.47 38.8924 100.966 38.8924 95.4629V32.1554C38.8924 26.652 43.3838 22.1484 48.8722 22.1484H77.3492C82.8376 22.1484 87.3289 26.652 87.3289 32.1554V95.4629C87.3289 100.976 82.8376 105.47 77.3492 105.47Z" fill="#3EAFCE"/>
<path d="M75.1272 99.2432H51.0941C47.22 99.2432 44.0485 96.0631 44.0485 92.1783V34.2885C44.0485 30.4038 47.22 27.2236 51.0941 27.2236H75.1272C79.0014 27.2236 82.1729 30.4038 82.1729 34.2885V92.1879C82.1729 96.063 79.0014 99.2432 75.1272 99.2432Z" fill="#5DCEE8"/>
<path d="M47.182 74.412V36.9645C47.182 33.4321 49.8502 30.5566 53.1072 30.5566H73.3231C76.5801 30.5566 79.2483 33.4416 79.2483 36.9645V48.8662" fill="#8CE6F4"/>
<path d="M121 55.7975C121 68.7942 110.488 79.3343 97.5271 79.3343C84.5658 79.3343 74.0543 68.7942 74.0543 55.7975C74.0543 42.8009 84.5658 32.2607 97.5271 32.2607C110.488 32.2607 121 42.8009 121 55.7975Z" fill="#F6C957"/>
<path d="M97.5176 37.5927C102.531 37.5927 107.07 39.6303 110.356 42.9247C113.641 46.2191 115.673 50.7703 115.673 55.7976C115.673 56.3403 116.11 56.7878 116.661 56.7878C117.202 56.7878 117.648 56.3498 117.648 55.7976C117.648 44.6576 108.637 35.6123 97.5176 35.6123C96.9764 35.6123 96.5301 36.0503 96.5301 36.6025C96.5396 37.1452 96.9764 37.5927 97.5176 37.5927Z" fill="#F9DD60"/>
<path d="M86.8637 62.586C85.8951 62.586 85.4014 62.0813 85.4014 61.0816V47.7803C85.4014 46.79 85.8951 46.2949 86.8827 46.2949H92.3711C94.1372 46.2949 95.4951 46.7139 96.4541 47.5613C97.4132 48.4087 97.8879 49.5893 97.8879 51.1127C97.8879 52.3124 97.5746 53.3122 96.9574 54.0929C96.3307 54.8832 95.4381 55.4069 94.2702 55.683C95.0488 55.9305 95.685 56.5113 96.1883 57.4444L97.8974 60.6246C98.1538 61.1102 98.2013 61.5577 98.0494 61.9671C97.8879 62.3765 97.4986 62.586 96.8719 62.586C96.4636 62.586 96.1313 62.5003 95.8654 62.3194C95.609 62.148 95.3811 61.8719 95.1817 61.5101L92.8838 57.2635C92.6084 56.7494 92.2856 56.3971 91.9153 56.2257C91.545 56.0543 91.0702 55.9591 90.491 55.9591H88.326V61.0721C88.326 62.0813 87.8417 62.586 86.8637 62.586ZM88.326 53.7882H91.8773C94.0043 53.7882 95.0678 52.9218 95.0678 51.1889C95.0678 49.4655 94.0043 48.6086 91.8773 48.6086H88.326V53.7882Z" fill="white"/>
<path d="M102.18 66.6988C101.24 66.6988 100.765 66.2132 100.765 65.261V52.4834C100.765 51.5312 101.23 51.0457 102.151 51.0457C103.091 51.0457 103.566 51.5312 103.566 52.4834V52.969C103.889 52.3786 104.364 51.8931 105 51.5408C105.636 51.179 106.367 50.998 107.184 50.998C108.153 50.998 109.007 51.2361 109.748 51.7121C110.488 52.1882 111.058 52.8452 111.467 53.7116C111.875 54.5781 112.084 55.6064 112.084 56.8061C112.084 57.9962 111.875 59.0246 111.467 59.9005C111.058 60.7765 110.488 61.4525 109.757 61.9286C109.026 62.3951 108.172 62.6331 107.184 62.6331C106.396 62.6331 105.684 62.4618 105.057 62.119C104.43 61.7762 103.946 61.3192 103.614 60.7384V65.2706C103.614 66.2227 103.139 66.6988 102.18 66.6988ZM106.396 60.4623C107.251 60.4623 107.934 60.1576 108.447 59.5387C108.96 58.9198 109.226 58.0153 109.226 56.8061C109.226 55.5873 108.969 54.6733 108.447 54.0734C107.934 53.4736 107.251 53.1689 106.396 53.1689C105.541 53.1689 104.858 53.4736 104.345 54.0734C103.832 54.6733 103.566 55.5873 103.566 56.8061C103.566 58.0058 103.823 58.9198 104.345 59.5387C104.858 60.1481 105.551 60.4623 106.396 60.4623Z" fill="white"/>
</svg>
