<svg width="128" height="128" viewBox="0 0 128 128" fill="none" xmlns="http://www.w3.org/2000/svg">
<g clip-path="url(#clip0_346_34983)">
<path d="M9 40.4C9 28.8213 9 23.032 11.3247 18.6414C13.2007 15.0983 16.0983 12.2007 19.6414 10.3247C24.032 8 29.8213 8 41.4 8H88.6C100.179 8 105.968 8 110.359 10.3247C113.902 12.2007 116.799 15.0983 118.675 18.6414C121 23.032 121 28.8213 121 40.4V87.6C121 99.1787 121 104.968 118.675 109.359C116.799 112.902 113.902 115.799 110.359 117.675C105.968 120 100.179 120 88.6 120H41.4C29.8213 120 24.032 120 19.6414 117.675C16.0983 115.799 13.2007 112.902 11.3247 109.359C9 104.968 9 99.1787 9 87.6V40.4Z" fill="#C0F9FC"/>
<path d="M64.4 90.1004C60.9 90.1004 57.3999 90.1004 53.7999 90.1004C51.9999 90.1004 50.9 89.4004 50.4 87.7004C49.5 85.2004 48.4999 82.7004 47.5999 80.1004C46.0999 76.0004 43.9999 72.4004 41.0999 69.1004C32.6999 59.6004 31.1 46.1004 36.9 35.1004C42.9 24.1004 55.5 17.5004 67.9 19.0004C84.7 21.1004 96.4999 34.6004 95.5999 51.0004C95.2999 57.2004 93.4 63.0004 89.3 67.5004C84.2 73.1004 81.1 79.7004 78.8 86.8004C77.8 89.9004 77.4999 90.1004 74.1999 90.1004C70.8999 90.1004 67.7 90.1004 64.4 90.1004Z" fill="#3EAFCE"/>
<path d="M64.5 82.9002C61.7 82.9002 58.9 82.9002 56.1 82.9002C54.7 82.9002 53.8 82.3001 53.4 81.0001C52.7 79.0001 51.9 77.0001 51.2 75.0001C50 71.7001 48.3 68.8001 46 66.2001C39.3 58.6001 38 47.8001 42.7 39.1001C47.5 30.2001 57.5 24.9001 67.4 26.1001C80.8 27.8001 90.2 38.5001 89.5 51.7001C89.2 56.6001 87.8 61.3002 84.4 64.9002C80.3 69.4002 77.9 74.6002 76 80.3002C75.2 82.8002 74.9 82.9002 72.3 82.9002C69.7 82.9002 67.1 82.9002 64.5 82.9002Z" fill="#5DCEE8"/>
<path d="M76.1999 94.6006H53.4C51.6 94.6006 50.2 96.0006 50.2 97.8006V103.601C50.2 105.401 51.6 106.801 53.4 106.801H55.7C55.7 107.301 55.7999 107.701 55.7999 108.201C55.7999 112.001 57.5999 113.801 61.2999 113.901C63.5999 114.001 66 114.001 68.3 113.901C71.4 113.801 73.2 111.901 73.4 108.801C73.4 108.201 73.4 107.501 73.4 106.801H76.3C78.1 106.801 79.5 105.401 79.5 103.601V97.8006C79.5 96.0006 77.9999 94.6006 76.1999 94.6006Z" fill="#2891B5"/>
<path d="M80.6999 39.7009C77.4999 35.4009 72.5999 32.5009 66.6999 31.8009C58.7999 30.8009 50.6999 35.1009 46.8999 42.2009C43.0999 49.2009 44.1999 57.8009 49.5999 64.0009C50.2999 64.7009 50.7999 65.5009 51.3999 66.3009L80.6999 39.7009Z" fill="#8CE6F4"/>
<path d="M124.5 56C124.5 69 114 79.5 101 79.5C88 79.5 77.5 69 77.5 56C77.5 43 88 32.5 101 32.5C114 32.5 124.5 43 124.5 56Z" fill="#F6C957"/>
<path d="M101 37.7998C106 37.7998 110.6 39.7998 113.8 43.0998C117.1 46.3998 119.1 50.8998 119.1 55.9998C119.1 56.4998 119.5 56.9998 120.1 56.9998C120.6 56.9998 121.1 56.5998 121.1 55.9998C121.1 44.8998 112.1 35.7998 101 35.7998C100.5 35.7998 100 36.1998 100 36.7998C100 37.3998 100.5 37.7998 101 37.7998Z" fill="#FAEFC3"/>
<path d="M107.6 60.5998C108.1 60.7998 108.6 61.0998 109.1 61.2998L109.7 61.5998L109.3 62.0998C107.6 64.1998 105 65.7998 101.8 65.7998L100.7 65.6998C99 65.4998 97.5 64.8998 96.1 63.8998C94.2 62.4998 93 60.4998 92.4 58.1998C90.5 58.3998 91 58.2998 89.2 58.4998C89.8 62.0998 92.5 66.3998 97.3 68.1998C98.8 68.6998 100.2 68.9998 101.7 68.9998C102.7 68.9998 103.6 68.8998 104.6 68.6998C107.9 67.8998 110.4 66.0998 112.4 63.3998L112.7 62.9998L113.1 63.1998C113.7 63.4998 114.3 63.7998 114.9 64.0998L113.7 57.2998L107.6 60.5998Z" fill="white"/>
<path d="M106.2 44.0002C104.7 43.4002 103.3 43.2002 101.8 43.2002C100.8 43.2002 99.8 43.3002 98.8 43.6002C95.5 44.4002 93 46.2002 91.1 48.9002L90.8 49.3002L90.4 49.0002C89.8 48.7002 89.2 48.4002 88.6 48.1002L89.8 54.9002L95.8 51.6002C95.3 51.4002 94.8 51.1002 94.3 50.9002L93.7 50.6002L94.1 50.1002C96.1 47.7002 98.6 46.4002 101.6 46.5002H102.4C104 46.6002 105.6 47.2002 107 48.1002C108.9 49.4002 110.2 51.3002 110.8 53.4002C112.7 53.1002 112.2 53.2002 114 52.8002C113.4 49.6002 110.8 45.7002 106.2 44.0002Z" fill="white"/>
</g>
<defs>
<clipPath id="clip0_346_34983">
<rect width="128" height="128" fill="white"/>
</clipPath>
</defs>
</svg>
