<svg width="30" height="28" fill="none" xmlns="http://www.w3.org/2000/svg"><path d="M2 8.1c0-2.895 0-4.342.581-5.44A5 5 0 014.661.581C5.757 0 7.204 0 10.1 0h11.8c2.895 0 4.342 0 5.44.581a5 5 0 012.079 2.08C30 3.757 30 5.204 30 8.1v11.8c0 2.895 0 4.342-.581 5.44a5 5 0 01-2.08 2.079C26.243 28 24.796 28 21.9 28H10.1c-2.895 0-4.342 0-5.44-.581a5 5 0 01-2.079-2.08C2 24.243 2 22.796 2 19.9V8.1z" fill="#C0F9FC"/><path d="M25.326 11.197a.9.9 0 00-.69-.332l-12.178-.01-1.104-3.894a.883.883 0 00-.847-.646l-1.577.01a.87.87 0 10.02 1.741l.907-.01 3.596 13.13a.874.874 0 00.847.645h1.488a1.15 1.15 0 00-.71 1.057 1.15 1.15 0 001.154 1.144 1.143 1.143 0 00.442-2.201h4.77a1.15 1.15 0 00-.71 1.057 1.15 1.15 0 001.153 1.144c.64 0 1.153-.508 1.153-1.144 0-.48-.296-.88-.71-1.057h1.153a.876.876 0 00.877-.87.876.876 0 00-.877-.871H14.97l-.561-2.045h8.621a.864.864 0 00.848-.665l1.615-5.45a.858.858 0 00-.167-.733z" fill="#2891B5"/><path d="M25.68 10.845a.9.9 0 00-.69-.333l-12.177-.01-1.104-3.893a.883.883 0 00-.847-.646l-1.577.01a.863.863 0 00-.867.88c0 .48.394.871.887.861l.906-.01 3.597 13.13a.875.875 0 00.847.645h1.498a1.15 1.15 0 00-.71 1.057c0 .636.513 1.144 1.153 1.144s1.153-.508 1.153-1.144c0-.48-.296-.88-.71-1.057h4.77a1.15 1.15 0 00-.71 1.057c0 .636.512 1.144 1.153 1.144a1.143 1.143 0 00.443-2.201h1.153a.876.876 0 00.877-.87.876.876 0 00-.877-.871h-8.513l-.562-2.045h8.622a.864.864 0 00.847-.665l1.616-5.45a.994.994 0 00-.177-.733z" fill="#3EAFCE"/><path d="M18.212 9.485h-3.705a.735.735 0 01-.739-.734v-3.56c0-.402.325-.734.74-.734h3.704c.404 0 .739.322.739.733v3.561a.748.748 0 01-.739.734zm6.326.01H20.33a.683.683 0 01-.69-.685V7.705c0-.382.306-.685.69-.685h4.208c.384 0 .69.303.69.685V8.81a.69.69 0 01-.69.685zM23.01 6.286h-2.818a.44.44 0 01-.443-.44V3.204a.44.44 0 01.443-.44h2.818a.44.44 0 01.444.44v2.632c0 .245-.197.45-.444.45z" fill="#F6C957"/><path d="M16.28 13.721h-1.398a.438.438 0 01-.424-.293l-.276-.9c-.079-.264.128-.519.424-.519h1.488c.206 0 .394.137.433.333l.187.9c.05.244-.157.48-.433.48zm.533 2.426H15.63a.438.438 0 01-.424-.293l-.276-.9c-.079-.264.128-.519.424-.519h1.28c.217 0 .395.137.434.333l.177.9c.04.254-.167.48-.433.48zm3.064-2.426h-1.734a.378.378 0 01-.364-.332l-.158-.9c-.04-.255.138-.48.364-.48h2.109c.246 0 .424.255.364.519l-.226.9a.376.376 0 01-.355.293zm-.404 2.426h-.896a.378.378 0 01-.365-.332l-.148-.9c-.04-.255.138-.48.365-.48h1.261c.246 0 .424.255.364.51l-.206.9a.397.397 0 01-.375.302zm3.607-2.426h-1.173c-.286 0-.493-.244-.434-.508l.237-.9a.438.438 0 01.433-.314h1.173c.286 0 .492.245.433.51l-.236.9a.455.455 0 01-.434.312zm-.66 2.426h-1.163c-.286 0-.503-.254-.424-.518l.266-.9a.438.438 0 01.424-.303h1.162c.286 0 .503.254.424.508l-.266.9a.423.423 0 01-.424.313z" fill="#fff"/><path d="M3.797 12.136h4.266a.616.616 0 100-1.232H3.797a.616.616 0 100 1.232zM.87 15.825h7.331a.616.616 0 100-1.233H.871a.602.602 0 00-.621.606c0 .343.276.627.62.627zm5.36 3.101h4.267a.616.616 0 100-1.233H6.231a.616.616 0 100 1.233z" fill="#2891B5"/><path d="M3.935 11.735h4.266a.616.616 0 100-1.232H3.935a.616.616 0 100 1.232zm-2.926 3.689h7.33a.616.616 0 100-1.233H1.01a.616.616 0 100 1.232zm5.36 3.11h4.266a.616.616 0 100-1.232H6.369a.616.616 0 100 1.232z" fill="#5DCEE8"/><path d="M14.606 5.709v1.986c0 .597.483 1.076 1.084 1.076h1.882a.362.362 0 100-.724H15.69a.348.348 0 01-.345-.342V5.709a.37.37 0 00-.365-.372.373.373 0 00-.374.372zm5.724-1.722v1.076c0 .343.286.626.63.626h1.016a.243.243 0 00.246-.244.243.243 0 00-.246-.245H20.96l-.138-.137V3.987a.243.243 0 00-.246-.244.25.25 0 00-.247.244zm-.157 3.776v.842a.54.54 0 00.552.538h2.502a.243.243 0 00.247-.245.243.243 0 00-.247-.244h-2.503l-.059-.05v-.84a.243.243 0 00-.246-.245.256.256 0 00-.246.244z" fill="#F9DD60"/></svg>