<svg width="125" height="112" viewBox="0 0 125 112" fill="none" xmlns="http://www.w3.org/2000/svg">
<path d="M6 32.4C6 20.8213 6 15.032 8.32469 10.6414C10.2007 7.09825 13.0983 4.20069 16.6414 2.32469C21.032 0 26.8213 0 38.4 0H85.6C97.1787 0 102.968 0 107.359 2.32469C110.902 4.20069 113.799 7.09825 115.675 10.6414C118 15.032 118 20.8213 118 32.4V79.6C118 91.1787 118 96.968 115.675 101.359C113.799 104.902 110.902 107.799 107.359 109.675C102.968 112 97.1787 112 85.6 112H38.4C26.8213 112 21.032 112 16.6414 109.675C13.0983 107.799 10.2007 104.902 8.32469 101.359C6 96.968 6 91.1787 6 79.6V32.4Z" fill="#C0F9FC"/>
<path d="M19.6875 35.6179C20.7116 35.0256 21.5782 34.5517 22.4054 34.0384C27.1322 31.3137 24.5719 32.7748 29.2987 30.0501C31.2682 28.905 32.4499 29.2604 33.5922 31.2348C35.3648 34.2753 37.0979 37.2764 38.8311 40.3169C39.9734 42.2913 39.6583 43.5154 37.6888 44.6606C32.6862 47.5827 34.9709 46.2401 29.9683 49.1622C29.4169 49.4781 28.8654 49.794 28.1958 50.1889C28.5109 50.7812 28.7078 51.2945 28.9836 51.7289C30.5592 54.493 32.1348 57.2177 33.7104 59.9818C34.38 61.127 34.3012 62.2721 33.5134 63.3383C32.8044 64.3255 31.859 64.4834 30.7561 64.207C21.7358 61.7983 12.7548 59.3895 3.73451 56.9413C2.04073 56.4674 1.17415 55.0064 1.60744 53.2689C3.97085 44.2262 6.41303 35.223 8.81583 26.1803C9.13095 24.9957 9.95814 24.3639 11.1398 24.2059C12.4397 24.048 13.3063 24.6403 13.9365 25.746C15.8273 28.9445 17.6786 32.1825 19.6875 35.6179Z" fill="#F09537"/>
<path d="M18.1513 33.0513C19.1754 32.4589 20.042 31.9851 20.8692 31.4717C25.596 28.7471 23.0357 30.2081 27.7625 27.4835C29.732 26.3383 30.9137 26.6937 32.056 28.6681C33.8285 31.7087 35.5617 34.7097 37.2949 37.7503C38.4372 39.7247 38.1221 40.9488 36.1525 42.0939C31.15 45.016 33.4346 43.6735 28.4321 46.5955C27.8806 46.9114 27.3292 47.2273 26.6595 47.6222C26.9747 48.2145 27.1716 48.7279 27.4473 49.1622C29.0229 51.9264 30.5985 54.651 32.1741 57.3757C32.8438 58.5603 32.765 59.666 31.9772 60.7321C31.2682 61.7193 30.3228 61.8773 29.2199 61.6009C20.239 59.2316 11.2186 56.8229 2.23768 54.3746C0.543908 53.9008 -0.322674 52.4397 0.110617 50.7023C2.47402 41.6596 4.91621 32.6564 7.319 23.6137C7.63412 22.4291 8.46132 21.7972 9.64302 21.6393C10.9429 21.4813 11.8095 22.0737 12.4397 23.1793C14.291 26.3778 16.1424 29.6158 18.1513 33.0513Z" fill="#F6C957"/>
<path d="M6.21612 49.5571L11.6126 33.2487L15.7485 41.0277C15.9455 41.3831 16.2606 41.6201 16.6151 41.7385C17.009 41.857 17.4029 41.8175 17.7574 41.6201L30.3622 34.7492C31.0713 34.3543 31.347 33.4461 30.9531 32.7353C30.5592 32.0245 29.6532 31.7481 28.9442 32.143L17.6392 38.3426L12.5973 28.7865C12.3216 28.2732 11.7701 27.9573 11.1793 27.9968C10.5884 28.0363 10.0763 28.4312 9.91879 28.984L3.41942 48.6094C3.14369 49.3991 3.57698 50.2284 4.36478 50.4653C5.11319 50.7417 5.94039 50.3074 6.21612 49.5571Z" fill="#F9DD60"/>
<path d="M101.501 63.9701L50.8845 93.27C47.3394 95.3234 42.7307 94.0993 40.6824 90.5454L24.4537 62.3511C22.4054 58.7972 23.6265 54.1772 27.211 52.1238L77.8273 22.8239C81.3724 20.7705 85.981 21.9947 88.0293 25.5486L104.258 53.7428C106.267 57.3362 105.046 61.9168 101.501 63.9701Z" fill="#2891B5"/>
<path d="M102.052 61.9957L51.4359 91.2956C47.8908 93.349 43.2822 92.1249 41.2339 88.571L25.0052 60.3767C22.9569 56.8228 24.178 52.2028 27.7231 50.1494L78.3787 20.889C81.9238 18.8356 86.5325 20.0598 88.5808 23.6137L104.809 51.8079C106.858 55.3618 105.637 59.9424 102.052 61.9957Z" fill="#3EAFCE"/>
<path d="M98.8616 59.2316L51.3965 86.715C49.0725 88.0576 46.0395 87.2679 44.7002 84.8986L29.9289 59.2316C28.5897 56.9018 29.3775 53.8612 31.7409 52.5187L79.2059 25.0352C81.5299 23.6926 84.5236 24.4824 85.9022 26.8516L100.674 52.5187C102.013 54.8484 101.225 57.8495 98.8616 59.2316Z" fill="#5DCEE8"/>
<path d="M28.9048 58.2049L31.859 63.3778C36.1919 60.6532 37.6494 54.9669 35.0496 50.5048L34.8921 50.2679L30.3228 52.8741C28.4715 53.9402 27.8412 56.349 28.9048 58.2049Z" fill="#3EAFCE"/>
<path d="M50.4512 88.0181L55.6113 85.0566C52.8933 80.7129 47.2212 79.2519 42.7701 81.8581L42.5338 82.016L45.1729 86.6361C46.197 88.4525 48.5998 89.0843 50.4512 88.0181Z" fill="#3EAFCE"/>
<path d="M102.052 53.6243L99.0979 48.4514C94.765 51.1761 93.3075 56.8623 95.9073 61.3244L96.0648 61.5613L100.673 58.9157C102.485 57.889 103.116 55.4802 102.052 53.6243Z" fill="#3EAFCE"/>
<path d="M80.5452 23.8111L75.3851 26.7727C78.103 31.1163 83.7752 32.5774 88.2262 29.9712L88.4626 29.8132L85.8235 25.1932C84.7599 23.3767 82.3965 22.7449 80.5452 23.8111Z" fill="#3EAFCE"/>
<path d="M105.834 89.953C104.809 90.5453 103.982 91.0192 103.116 91.5325C98.3889 94.2572 100.949 92.7961 96.2225 95.5208C94.253 96.6659 93.0712 96.3105 91.9289 94.3362C90.1564 91.3351 88.4232 88.2945 86.6901 85.254C85.5477 83.2796 85.8629 82.0555 87.8324 80.9103C92.8349 77.9882 90.5503 79.3308 95.5528 76.4482C96.1043 76.1323 96.6557 75.8164 97.3254 75.4215C97.0103 74.8292 96.8133 74.3159 96.5376 73.8815C94.962 71.1174 93.3864 68.3927 91.8108 65.6286C91.1411 64.444 91.2199 63.3383 92.0077 62.2721C92.7167 61.2849 93.6621 61.127 94.765 61.4034C103.785 63.8122 112.766 66.2209 121.787 68.6691C123.48 69.143 124.347 70.604 123.914 72.3415C121.55 81.3842 119.108 90.3874 116.705 99.4301C116.39 100.615 115.563 101.247 114.381 101.404C113.081 101.562 112.215 100.97 111.585 99.8644C109.694 96.6265 107.843 93.3885 105.834 89.953Z" fill="#F09537"/>
<path d="M104.337 87.3863C103.313 87.9786 102.446 88.4525 101.619 88.9658C96.8921 91.6905 99.4524 90.2294 94.7256 92.9541C92.7561 94.0992 91.5744 93.7438 90.4321 91.7695C88.6596 88.7684 86.9264 85.7278 85.1932 82.6873C84.0509 80.7129 84.366 79.4888 86.3355 78.3436C91.3381 75.4215 89.0535 76.7641 94.056 73.8815C94.6075 73.5656 95.1589 73.2497 95.8286 72.8548C95.5134 72.2625 95.3165 71.7492 95.0408 71.3148C93.4651 68.5507 91.8895 65.826 90.3139 63.0619C89.6443 61.8773 89.7231 60.7716 90.5109 59.7054C91.2199 58.7182 92.1653 58.5603 93.2682 58.8367C102.289 61.2454 111.269 63.6542 120.29 66.1024C121.984 66.5763 122.85 68.0373 122.417 69.7748C120.053 78.8175 117.611 87.8207 115.208 96.8634C114.893 98.048 114.066 98.6798 112.884 98.8378C111.585 98.9957 110.718 98.4034 110.088 97.2977C108.158 94.0203 106.306 90.8218 104.337 87.3863Z" fill="#F6C957"/>
<path d="M90.5108 82.8057L103.707 75.2241C104.061 75.0267 104.297 74.7108 104.416 74.3159C104.534 73.921 104.455 73.5261 104.258 73.1707L100.792 67.1686L115.957 70.4856C116.745 70.6435 117.532 70.1697 117.729 69.3404C117.887 68.5507 117.414 67.7609 116.587 67.5635L98.1525 63.5357C97.6011 63.4173 96.9708 63.6542 96.6557 64.1281C96.3012 64.6019 96.2618 65.2337 96.5769 65.7471L100.989 73.3682L89.0534 80.239C88.3444 80.6339 88.108 81.5421 88.5019 82.2529C88.8958 82.9637 89.8018 83.2006 90.5108 82.8057Z" fill="#F9DD60"/>
<path d="M60.1411 67.524C59.3533 67.9978 58.7231 67.8004 58.2504 67.0106L52.0661 56.27C51.5935 55.4802 51.7904 54.8484 52.5782 54.3746L57.0293 51.8079C58.4473 50.9786 59.7472 50.7022 60.9289 50.9391C62.1106 51.1761 63.0166 51.8868 63.7256 53.111C64.2771 54.0982 64.5134 55.0459 64.3558 55.9541C64.1983 56.8623 63.7256 57.731 62.9378 58.4813C63.6862 58.3233 64.474 58.4813 65.3012 58.9946L68.1373 60.7716C68.5706 61.048 68.8069 61.3639 68.8857 61.7983C68.9645 62.1931 68.7281 62.5485 68.2161 62.8249L67.2707 63.1014L66.3254 62.7855L62.5045 60.4162C62.0318 60.1398 61.6379 59.9818 61.244 60.0213C60.8501 60.0608 60.4168 60.2188 59.9835 60.4952L58.2504 61.5218L60.6138 65.6286C61.0865 66.4183 60.9289 67.0501 60.1411 67.524ZM57.2262 59.7449L60.1017 58.0864C61.8349 57.0992 62.2682 55.8751 61.4804 54.493C60.6926 53.111 59.4321 52.9135 57.6989 53.9007L54.8234 55.5592L57.2262 59.7449Z" fill="white"/>
<path d="M74.4003 63.6937C73.6519 64.128 73.0217 63.9701 72.5884 63.1803L66.6405 52.8741C66.2072 52.0843 66.3254 51.492 67.1132 51.0576C67.8616 50.6233 68.4918 50.7812 68.9251 51.571L69.1615 51.9658C69.1615 51.334 69.319 50.7417 69.6735 50.1494C70.028 49.5571 70.5401 49.0832 71.1703 48.6884C71.9581 48.2145 72.746 48.0171 73.5731 48.0565C74.4003 48.096 75.1487 48.3725 75.8972 48.8463C76.6456 49.3596 77.2758 50.0704 77.8273 51.0576C78.3787 52.0053 78.6938 52.953 78.7726 53.8612C78.8514 54.7695 78.6938 55.5592 78.3393 56.3095C77.9848 57.0203 77.394 57.6126 76.6062 58.0864C75.9759 58.4418 75.3063 58.6393 74.6367 58.6787C73.967 58.6787 73.3762 58.5603 72.8247 58.2444L74.9124 61.9167C75.3457 62.6275 75.1881 63.2198 74.4003 63.6937ZM74.9124 56.7044C75.582 56.3095 76.0153 55.7172 76.1335 55.0064C76.2517 54.2561 76.0547 53.4269 75.5033 52.4397C74.9518 51.4525 74.3216 50.8602 73.6125 50.5838C72.9035 50.3468 72.2339 50.4258 71.5249 50.8207C70.8552 51.2156 70.4219 51.7684 70.3038 52.5187C70.1462 53.2294 70.3825 54.0982 70.934 55.0854C71.4855 56.0726 72.1157 56.6649 72.8247 56.9413C73.5338 57.2177 74.2034 57.0992 74.9124 56.7044Z" fill="white"/>
</svg>
