<svg width="72" height="73" viewBox="0 0 72 73" fill="none" xmlns="http://www.w3.org/2000/svg">
<g clip-path="url(#clip0_5164_237775)">
<path d="M4.10557 22.9828C4.1088 16.4291 4.10321 13.1449 5.42356 10.6583C6.48276 8.65463 8.12563 7.01339 10.1351 5.95057C12.6215 4.63641 15.8984 4.6308 22.4595 4.63405L49.1871 4.6339C55.7409 4.63712 59.025 4.63154 61.5116 5.95189C63.5153 7.01109 65.1566 8.65396 66.2194 10.6634C67.5335 13.1499 67.5391 16.4268 67.5359 22.9878L67.536 49.7154C67.5328 56.2692 67.5384 59.5533 66.2181 62.0399C65.1589 64.0436 63.516 65.6849 61.5066 66.7477C59.0201 68.0619 55.7432 68.0675 49.1822 68.0642L22.4545 68.0644C15.9007 68.0611 12.6166 68.0667 10.13 66.7464C8.1263 65.6872 6.48506 64.0443 5.42224 62.0349C4.10808 59.5484 4.10247 56.2715 4.10572 49.7105L4.10557 22.9828Z" fill="#C0F9FC"/>
<path d="M32.6472 46.8065C33.5191 47.343 34.6299 47.6419 35.7847 47.645C36.9395 47.6481 38.0591 47.3552 38.9267 46.8234L53.1692 38.1426C53.1692 38.1426 54.4561 37.3594 54.4513 39.1422L54.4278 47.854C54.4154 52.4445 46.0511 57.3662 35.7586 57.3385C25.466 57.3107 17.1284 52.344 17.1407 47.7535L17.1655 38.5509C17.1694 37.1217 18.0769 37.8243 18.0769 37.8243L32.6472 46.8137L32.6472 46.8065Z" fill="#2891B5"/>
<path d="M33.8068 44.4351C34.8949 45.1092 36.6849 45.1141 37.7838 44.4458L59.4874 31.2162C60.5791 30.5479 60.582 29.4508 59.494 28.7766L37.8554 17.8843C36.7673 17.2101 34.9773 17.2053 33.8784 17.8736L12.1814 28.6491C11.0897 29.3174 11.0867 30.4145 12.1748 31.0887L33.8068 44.4351Z" fill="#5DCEE8" stroke="#3EAFCE" stroke-width="3.20792" stroke-miterlimit="10"/>
<path d="M27.6673 24.5985L46.2307 35.6557L53.7207 31.0853C54.5376 30.5823 54.5398 29.7667 53.7256 29.2665L37.5867 21.139C36.7725 20.6388 35.4444 20.6352 34.6275 21.131L27.6746 24.5913L27.6673 24.5985Z" fill="#A0E3F1"/>
<path d="M21.7656 26.7264L41.451 39.2303L44.755 37.2182L24.7072 25.2691L21.7656 26.7264Z" fill="#A0E3F1"/>
<path d="M13.0338 46.1401L13.0734 31.4664C13.0734 31.4664 13.068 30.7735 13.4788 30.9983C13.8103 31.1869 14.6175 31.6366 14.9056 31.89C15.2368 32.1796 15.1557 32.8217 15.1557 32.8217L15.1198 46.1458C15.1193 46.3334 15.285 46.4277 15.3571 46.4712C16.1065 46.9135 16.6096 47.7305 16.6071 48.6616C16.6033 50.0618 15.4671 51.192 14.0668 51.1882C12.6666 51.1844 11.5364 50.0482 11.5402 48.6479C11.5427 47.7096 12.0502 46.8954 12.8092 46.4643C12.8815 46.4212 13.0405 46.335 13.041 46.1474L13.0338 46.1401Z" fill="#3EAFCE"/>
<path d="M69.7163 31.8136C69.7181 39.1758 63.769 45.1217 56.4068 45.1235C49.0446 45.1253 43.0987 39.1762 43.0969 31.814C43.0951 24.4518 49.0442 18.5059 56.4064 18.5041C63.7686 18.5023 69.7145 24.4514 69.7163 31.8136Z" fill="#F6C957"/>
<path d="M60.146 34.4224C60.4271 34.5386 60.7154 34.7054 60.9966 34.8217L61.3354 34.9886L61.1109 35.2695C60.1477 36.4578 58.6728 37.3633 56.8611 37.3656L56.2406 37.3062C55.2809 37.1954 54.4301 36.8538 53.6377 36.2887C52.5643 35.4991 51.8817 34.364 51.5387 33.0639C50.463 33.1765 50.7446 33.1195 49.7266 33.2322C50.0676 35.2686 51.5984 37.7051 54.3168 38.723C55.1677 39.0067 55.9612 39.1749 56.8057 39.1772C57.3687 39.1787 57.8813 39.1223 58.4446 39.0084C60.3153 38.5587 61.7255 37.5375 62.8628 36.0104L63.0294 35.7871L63.2529 35.9032C63.5916 36.0701 63.9304 36.2443 64.2692 36.4112L63.5867 32.5622L60.1315 34.4296L60.146 34.4224Z" fill="white"/>
<path d="M56.4115 21.5069C59.2409 21.5074 61.8507 22.6404 63.6573 24.5074C65.5289 26.3747 66.6552 28.9256 66.6619 31.8128C66.6611 32.0943 66.8914 32.3764 67.2306 32.3773C67.5121 32.3781 67.7942 32.1478 67.7951 31.8086C67.7976 25.5219 62.7013 20.369 56.4145 20.3665C56.1331 20.3658 55.8509 20.596 55.85 20.9352C55.8491 21.2745 56.13 21.499 56.4187 21.4998L56.4115 21.5069Z" fill="#F9DD60"/>
<path d="M59.357 25.0224C58.5062 24.6809 57.7126 24.5705 56.8681 24.5682C56.3051 24.5667 55.7347 24.6229 55.1713 24.7946C53.3006 25.2443 51.8832 26.2654 50.8108 27.7927L50.6442 28.016L50.4209 27.8494C50.0821 27.6824 49.7434 27.5083 49.4046 27.3414L50.0871 31.1903L53.4845 29.3228C53.2034 29.2066 52.9151 29.0398 52.6339 28.9236L52.2951 28.7566L52.5196 28.4758C53.6493 27.1146 55.066 26.3822 56.7692 26.4373L57.2239 26.4386C58.1332 26.4915 59.0345 26.8332 59.8271 27.3406C60.9006 28.0797 61.6412 29.1499 61.9772 30.3418C63.0531 30.1715 62.7715 30.2284 63.7898 30.0002C63.4482 28.1876 61.9745 25.9822 59.3715 25.0152L59.357 25.0224Z" fill="white"/>
</g>
<defs>
<clipPath id="clip0_5164_237775">
<rect width="65.7" height="63" fill="white" transform="translate(4.48828 4.51196) rotate(0.154409)"/>
</clipPath>
</defs>
</svg>
