<svg width="72" height="73" viewBox="0 0 72 73" fill="none" xmlns="http://www.w3.org/2000/svg">
<g clip-path="url(#clip0_4811_199770)">
<path d="M2.18164 20.6311C2.18164 14.2748 2.18164 11.0967 3.44551 8.68825C4.49069 6.77046 6.08258 5.183 8.00571 4.14072C10.4241 2.88037 13.6079 2.88037 19.9819 2.88037H45.912C52.286 2.88037 55.473 2.88037 57.8882 4.14072C59.8113 5.183 61.4032 6.77046 62.4484 8.68825C63.7123 11.0999 63.7123 14.2781 63.7123 20.6311V46.4892C63.7123 52.8455 63.7123 56.0236 62.4484 58.4321C61.4032 60.3498 59.8113 61.9373 57.8882 62.9796C55.4698 64.2399 52.2828 64.2399 45.912 64.2399H19.9819C13.6079 64.2399 10.4209 64.2399 8.00571 62.9796C6.08258 61.9373 4.49069 60.3498 3.44551 58.4321C2.18164 56.0236 2.18164 52.8455 2.18164 46.4892V20.6311Z" fill="#C0F9FC"/>
<path fill-rule="evenodd" clip-rule="evenodd" d="M45.8094 25.135H19.9805V11.2661H45.8094V25.135ZM27.9291 33.0616C27.9291 35.2496 26.1506 37.0232 23.9565 37.0232C21.7624 37.0232 19.9839 35.2496 19.9839 33.0616C19.9839 30.8736 21.7624 29.1 23.9565 29.1C26.1506 29.1 27.9291 30.8736 27.9291 33.0616ZM41.8333 37.0232C44.0275 37.0232 45.8059 35.2496 45.8059 33.0616C45.8059 30.8736 44.0275 29.1 41.8333 29.1C39.6392 29.1 37.8607 30.8736 37.8607 33.0616C37.8607 35.2496 39.6392 37.0232 41.8333 37.0232Z" fill="#98D9EA"/>
<path fill-rule="evenodd" clip-rule="evenodd" d="M43.4477 19.3014V22.3796C43.4477 23.229 42.756 23.9221 41.9043 23.9221H36.9811L30.6133 13.145H37.2741C40.6845 13.145 43.4477 15.9005 43.4477 19.3014Z" fill="white" fill-opacity="0.7"/>
<path fill-rule="evenodd" clip-rule="evenodd" d="M27.9522 13.145L34.6164 23.9221H32.0611L25.6934 13.145H27.9522Z" fill="white" fill-opacity="0.4"/>
<path d="M20.1808 52.1625L22.4839 48.1058H43.4101L45.7132 52.1625H20.1808ZM51.57 54.3472L44.5617 41.6504H39.8804L39.9553 41.7557L41.7338 44.98H24.1534L25.9319 41.7557L25.9932 41.6504H21.2233L14.3172 54.3472C13.7925 55.3868 14.1094 56.6337 15.1554 57.157C15.4688 57.3642 15.7857 57.3642 16.0957 57.3642C16.8316 57.3642 17.5641 56.9497 17.8742 56.3245L18.5045 55.2815H47.3861L48.013 56.3245C48.4287 57.0516 49.059 57.3642 49.7915 57.3642C50.1049 57.3642 50.4218 57.2589 50.7352 57.157C51.7778 56.6337 52.0912 55.3868 51.57 54.3472Z" fill="#2791B6"/>
<path d="M38.9128 7.63037H26.9813C21.9593 7.63037 17.7754 11.6871 17.7754 16.7869V35.4124C17.7754 37.4917 19.2404 39.1599 21.2267 39.4691H44.5651C46.5514 39.1599 48.0164 37.3898 48.0164 35.4124V16.6849C48.0164 11.6905 43.9348 7.63037 38.9162 7.63037H38.9128ZM24.4737 35.725C22.7974 35.725 21.4414 34.3727 21.4414 32.7079C21.4414 31.0431 22.7974 29.6909 24.4737 29.6909C26.1499 29.6909 27.5059 31.0431 27.5059 32.7079C27.5059 34.3727 26.1431 35.725 24.4737 35.725ZM41.4238 35.8269C39.7475 35.8269 38.3915 34.4781 38.3915 32.8098C38.3915 31.1416 39.7475 29.7928 41.4238 29.7928C43.1 29.7928 44.456 31.145 44.456 32.8098C44.456 34.3727 43.0932 35.8269 41.4238 35.8269ZM44.456 22.9263C44.456 24.0679 43.5157 24.9003 42.3641 24.9003H23.5265C22.3783 24.9003 21.5402 23.9659 21.5402 22.9263L21.438 17.9318C21.438 14.7075 24.0512 12.105 27.1891 12.105H38.5959C41.7372 12.105 44.456 14.7075 44.456 17.9318V22.9263Z" fill="#63CBE4"/>
<path d="M48.0672 17.0555V35.783C48.0672 37.7604 46.6022 39.5305 44.6158 39.8397H21.2775C19.2912 39.5305 17.8262 37.8623 17.8262 35.783V17.1575C17.8262 12.0611 22.0134 8.00098 27.032 8.00098H38.9635C43.9855 8.00098 48.0638 12.0577 48.0638 17.0555H48.0672Z" stroke="#40AFCE" stroke-width="2"/>
<path fill-rule="evenodd" clip-rule="evenodd" d="M42.5261 34.6007L39.8516 30.9075C40.2706 30.4828 40.8532 30.2212 41.4972 30.2212C42.7748 30.2212 43.814 31.2541 43.814 32.5315C43.814 33.4387 43.2893 34.2235 42.5261 34.6007Z" fill="white" fill-opacity="0.4"/>
<path d="M33.9963 57.2346L34.0303 56.8916C34.0039 57.0009 33.9896 57.1222 33.9963 57.2346ZM58.7916 39.4847C58.7204 38.6616 58.8834 37.8281 59.2813 37.0848C59.2083 36.9424 59.1114 36.8057 58.9905 36.6866L57.6213 35.3378C57.0561 34.7811 56.1429 34.7756 55.5845 35.3255L52.3123 38.549C52.2824 38.5784 52.2526 38.6078 52.2317 38.6402C52.2955 38.756 52.3804 38.869 52.4801 38.9672L52.5829 39.0684C52.7672 39.2501 52.7781 39.549 52.593 39.7313C52.4079 39.9137 52.0984 39.9089 51.9141 39.7272L51.908 39.7213C51.949 40.0263 52.089 40.3231 52.3248 40.5553L52.4275 40.6565C52.6119 40.8382 52.6228 41.1371 52.4347 41.3224C52.2466 41.5077 51.9401 41.4999 51.7558 41.3183L51.653 41.2171C51.0878 40.6603 50.1775 40.6518 49.6162 41.2048L34.4104 56.1837C34.3805 56.2131 34.3536 56.2396 34.3328 56.272C34.3966 56.3878 34.4814 56.5008 34.5812 56.599L35.9473 57.9448C36.4249 58.4152 37.1646 58.5439 37.7363 58.2071C39.4662 57.1818 41.7567 57.4206 43.2649 58.9062C44.4829 60.1061 44.872 61.8011 44.4337 63.3046C44.5019 64.1306 44.3419 64.9671 43.944 65.7104C44.017 65.8588 44.12 65.9955 44.2409 66.1146L45.7189 67.5705C46.2841 68.1273 47.1973 68.1328 47.7557 67.5828L62.9585 52.6068C62.9884 52.5774 63.0153 52.5509 63.0391 52.5156C62.9753 52.3998 62.8905 52.2868 62.7907 52.1886C62.6064 52.0069 62.6015 51.7081 62.7896 51.5228C62.9478 51.3669 63.185 51.3476 63.369 51.4582C63.3339 51.1414 63.1939 50.8387 62.9491 50.5975C62.7617 50.4129 62.7598 50.117 62.9479 49.9317C63.136 49.7464 63.4304 49.7541 63.6178 49.9387C63.8989 50.2156 64.2723 50.3599 64.6388 50.3621C65.0083 50.3614 65.3769 50.2245 65.6576 49.9481L68.9298 46.7247C68.9567 46.6982 68.9866 46.6688 69.0074 46.6363C68.9436 46.5206 68.8588 46.4076 68.759 46.3093L67.2811 44.8534C66.8065 44.386 66.0577 44.2542 65.4921 44.5911C63.7562 45.6163 61.4687 45.3865 59.9575 43.8978C58.7395 42.698 58.3504 40.9971 58.7916 39.4847ZM62.2717 50.3537C62.459 50.5383 62.4639 50.8313 62.2758 51.0166C62.0877 51.2019 61.7873 51.2001 61.5999 51.0155L60.3637 49.7978C60.1793 49.6161 60.1775 49.3202 60.3656 49.1349C60.5537 48.9496 60.8511 48.9544 61.0355 49.136L62.2717 50.3537ZM59.8053 47.9242C59.9927 48.1088 60.0006 48.4048 59.8125 48.5901C59.6244 48.7754 59.321 48.7706 59.1336 48.586L57.9034 47.3742C57.713 47.1866 57.7112 46.8907 57.8993 46.7054C58.0874 46.5201 58.3848 46.5249 58.5752 46.7125L59.8053 47.9242ZM57.3451 45.5007C57.5294 45.6823 57.5342 45.9753 57.3462 46.1606C57.1581 46.3459 56.8577 46.344 56.6733 46.1624L55.4401 44.9477C55.2497 44.7601 55.2479 44.4642 55.436 44.2789C55.6241 44.0936 55.9215 44.0984 56.1119 44.2859L57.3451 45.5007ZM54.8787 43.0712C55.0661 43.2558 55.0709 43.5488 54.8829 43.734C54.6948 43.9193 54.3944 43.9175 54.207 43.7329L52.9738 42.5182C52.7894 42.3365 52.7815 42.0347 52.9696 41.8494C53.1577 41.6641 53.4612 41.6748 53.6456 41.8564L54.8787 43.0712Z" fill="#F09638"/>
<path d="M59.4749 36.737L59.4417 37.6749C59.4583 37.9383 59.3969 38.2072 59.2542 38.4431C59.052 38.7733 58.8979 39.1215 58.792 39.4819C58.7208 38.6589 58.8839 37.8254 59.2818 37.0821C59.3234 37.0054 59.3649 36.9287 59.4095 36.855C59.4333 36.8137 59.4541 36.7754 59.4749 36.737Z" fill="#F09638"/>
<path d="M43.2626 58.9061C44.4807 60.106 44.8697 61.8009 44.4315 63.3045C44.35 62.2831 43.9082 61.2832 43.1073 60.4942C41.5991 59.0085 39.3086 58.7757 37.5787 59.7951C37.0041 60.1348 36.2673 60.0091 35.7898 59.5387L34.4206 58.1899C34.1516 57.9249 34.0113 57.5808 33.9941 57.2345L34.028 56.8915L34.0279 56.8796L34.1491 55.5931C34.1536 55.8269 34.2121 56.0611 34.3306 56.2719C34.3944 56.3877 34.4792 56.5006 34.5789 56.5989L35.9451 57.9446C36.4226 58.4151 37.1624 58.5438 37.734 58.207C39.4639 57.1817 41.7544 57.4204 43.2626 58.9061Z" fill="#F09638"/>
<path d="M69.3229 45.9914L69.19 47.3133L69.1902 47.3429L69.1704 47.5411C69.1241 47.8249 68.9936 48.0963 68.7726 48.3139L65.5004 51.5374C65.2197 51.8138 64.8541 51.9537 64.4846 51.9485C64.1151 51.9492 63.7477 51.8049 63.4636 51.5251C63.4364 51.4983 63.4062 51.4685 63.3701 51.4565C63.3351 51.1396 63.195 50.8369 62.9502 50.5958C62.7628 50.4112 62.761 50.1153 62.9491 49.93C63.1371 49.7447 63.4316 49.7524 63.619 49.937C63.9001 50.2139 64.2734 50.3582 64.6399 50.3604C65.0094 50.3596 65.3781 50.2228 65.6587 49.9463L68.931 46.7229C68.9578 46.6964 68.9877 46.667 69.0085 46.6346C69.1756 46.4462 69.2793 46.2249 69.3229 45.9914Z" fill="#F09638"/>
<path d="M59.2814 37.085C59.323 37.0083 59.3646 36.9316 59.4092 36.8579C59.4329 36.8166 59.4537 36.7783 59.4745 36.74C59.7325 36.1941 59.5902 35.5304 59.1459 35.0927L57.7797 33.747C57.2145 33.1902 56.3013 33.1847 55.743 33.7347L52.4707 36.9581C52.1781 37.2463 52.0393 37.6272 52.0566 38.0031L52.0537 38.0179C52.0671 38.231 52.1255 38.4474 52.2318 38.6404C52.2956 38.7562 52.3804 38.8691 52.4802 38.9674L52.583 39.0686C52.7673 39.2502 52.7782 39.5492 52.5931 39.7315C52.408 39.9139 52.0985 39.909 51.9142 39.7274L51.8114 39.6262C51.2462 39.0694 50.336 39.061 49.7717 39.6168L34.5688 54.5928C34.3419 54.8163 34.2114 55.0937 34.1682 55.3864L34.1514 55.5934C34.1559 55.8272 34.2144 56.0614 34.3329 56.2722C34.3967 56.388 34.4815 56.5009 34.5813 56.5992L35.9474 57.9449C36.4249 58.4153 37.1647 58.5441 37.7364 58.2072C39.4663 57.182 41.7568 57.4207 43.265 58.9064C44.483 60.1063 44.8721 61.8012 44.4338 63.3048C44.3279 63.6651 44.1739 64.0193 43.9717 64.3495C43.8289 64.5794 43.7705 64.8395 43.7811 65.1029C43.7884 65.3101 43.8468 65.5205 43.9441 65.7105C44.0171 65.8589 44.1201 65.9957 44.241 66.1147L45.719 67.5707C46.2842 68.1274 47.1974 68.1329 47.7557 67.583L62.9586 52.607C62.9885 52.5776 63.0154 52.5511 63.0392 52.5157C63.3017 52.2155 63.4104 51.8285 63.369 51.4584C63.334 51.1415 63.194 50.8388 62.9491 50.5977C62.7618 50.4131 62.7599 50.1172 62.948 49.9319C63.1361 49.7466 63.4305 49.7543 63.6179 49.9389C63.899 50.2158 64.2724 50.3601 64.6389 50.3623C65.0084 50.3615 65.377 50.2247 65.6577 49.9482L68.9299 46.7248C68.9568 46.6983 68.9867 46.6689 69.0075 46.6365C69.1745 46.4481 69.2783 46.2268 69.3219 45.9933L69.3445 45.7626C69.3512 45.3869 69.2106 45.0073 68.9174 44.7185L67.4395 43.2625C66.9619 42.7921 66.2161 42.6633 65.6445 43.0002C63.9146 44.0254 61.6272 43.7956 60.1159 42.3069C59.315 41.5179 58.8732 40.5121 58.7917 39.4848C58.7205 38.6618 58.8835 37.8283 59.2814 37.085ZM62.4271 48.7658C62.6145 48.9504 62.6193 49.2434 62.4342 49.4257C62.2491 49.6081 61.9457 49.6092 61.7583 49.4246L60.5221 48.2069C60.3377 48.0253 60.3329 47.7264 60.521 47.5411C60.7091 47.3558 61.0065 47.3665 61.1909 47.5481L62.4271 48.7658ZM59.9577 46.3333C60.1482 46.5209 60.153 46.8139 59.9679 46.9962C59.7828 47.1786 59.4794 47.1797 59.289 46.9921L58.0618 45.7833C57.8714 45.5957 57.8696 45.2998 58.0577 45.1145C58.2458 44.9293 58.5402 44.9369 58.7306 45.1245L59.9577 46.3333ZM57.4975 43.9098C57.6849 44.0944 57.6897 44.3873 57.5046 44.5697C57.3195 44.752 57.0161 44.7532 56.8287 44.5686L55.5985 43.3568C55.4081 43.1692 55.4033 42.8703 55.5914 42.685C55.7795 42.4997 56.0769 42.5104 56.2673 42.698L57.4975 43.9098ZM55.0342 41.4832C55.2185 41.6648 55.2264 41.9608 55.0413 42.1432C54.8562 42.3255 54.5497 42.3236 54.3654 42.142L53.1322 40.9273C52.9478 40.7457 52.94 40.4438 53.1281 40.2585C53.3162 40.0732 53.6166 40.0869 53.801 40.2685L55.0342 41.4832Z" fill="#F6CA58"/>
<path d="M52.0508 38.0169C52.0641 38.2301 52.1225 38.4464 52.2289 38.6394C52.2927 38.7552 52.3775 38.8682 52.4772 38.9664L52.58 39.0676C52.7644 39.2493 52.7752 39.5482 52.5901 39.7305C52.405 39.9129 52.0956 39.9081 51.9112 39.7264L51.9052 39.7205C51.8862 39.5665 51.8942 39.4097 51.9233 39.256L52.0508 38.0169Z" fill="#F09638"/>
<path d="M63.0378 52.5158C63.3385 53.0532 63.2647 53.7392 62.8019 54.1951L47.596 69.174C47.0377 69.724 46.1245 69.7185 45.5593 69.1617L44.0813 67.7058C43.7549 67.3843 43.5869 66.9364 43.6293 66.5076L43.7797 65.103C43.787 65.3101 43.8454 65.5206 43.9427 65.7106C44.0158 65.8589 44.1187 65.9957 44.2396 66.1148L45.7176 67.5707C46.2828 68.1275 47.196 68.133 47.7544 67.583L62.9573 52.607C62.9871 52.5776 63.014 52.5511 63.0378 52.5158Z" fill="#F09638"/>
<path d="M36.8281 54.5767L49.8336 41.7653" stroke="#F8DD61" stroke-width="2" stroke-linecap="round" stroke-linejoin="round"/>
<path d="M58.3092 36.1764L57.3662 35.2474C56.9763 34.8634 56.3454 34.8595 55.9603 35.2389L53.7031 37.4624" stroke="#F8DD61" stroke-width="2" stroke-linecap="round" stroke-linejoin="round"/>
</g>
<defs>
<clipPath id="clip0_4811_199770">
<rect width="67.6364" height="66.6269" fill="white" transform="translate(2.18164 2.88037)"/>
</clipPath>
</defs>
</svg>
