<svg width="54" height="54" viewBox="0 0 54 54" fill="none" xmlns="http://www.w3.org/2000/svg">
<path d="M38.8125 54H15.1875C6.80625 54 0 47.1937 0 38.8125V15.1875C0 6.80625 6.80625 0 15.1875 0H38.8125C47.1375 0 54 6.80625 54 15.1875V38.8125C54 47.1937 47.1937 54 38.8125 54Z" fill="#C0F9FC"/>
<path d="M37.125 50.625H16.8187C9.05623 50.625 2.75623 44.325 2.75623 36.6187V36.5625C2.75623 28.8 9.05623 22.5 16.8187 22.5H37.125C44.8875 22.5 51.1312 28.8 51.1312 36.5063V36.5625C51.1312 44.325 44.8875 50.625 37.125 50.625Z" fill="#8CE6F4"/>
<path d="M42.8625 31.4439V8.15637C42.8625 8.15637 40.95 6.86262 40.6125 6.58137C39.9937 5.96262 40.5 6.13137 39.3188 6.13137C37.5188 6.13137 37.575 8.15637 35.775 8.15637C33.975 8.15637 34.0312 6.13137 32.2312 6.13137C30.4312 6.13137 30.4875 8.15637 28.6875 8.15637C26.8875 8.15637 26.9438 6.13137 25.1438 6.13137C23.4 6.13137 23.3438 8.15637 21.6 8.15637C19.8563 8.15637 19.8 6.13137 18 6.13137C16.2 6.13137 16.2563 8.15637 14.4563 8.15637V32.3439C13.3875 32.3439 12.3188 32.7939 11.5875 33.5251C10.8 34.3126 10.4062 35.3251 10.4062 36.3939C10.4062 37.1251 10.575 37.8001 10.9125 38.4751C11.25 39.0939 11.7 39.6564 12.2625 40.1064L25.9875 49.8376C26.775 50.4001 27.7312 50.6814 28.7437 50.6814C29.7562 50.6814 30.6562 50.4001 31.5 49.8376L45.225 40.1064C45.7875 39.6564 46.2375 39.0939 46.575 38.4751C46.9125 37.8564 47.0812 37.1251 47.0812 36.3939C47.0812 35.3251 46.6875 34.4814 45.9 33.5251C45 32.7376 44.55 32.2314 42.8625 31.4439Z" fill="#2891B5"/>
<path d="M40.5562 30.7691V6.58164C38.8125 6.58164 38.8125 4.55664 37.0125 4.55664C35.2125 4.55664 35.2687 6.58164 33.4687 6.58164C31.6687 6.58164 31.725 4.55664 29.925 4.55664C28.125 4.55664 28.1812 6.58164 26.3812 6.58164C24.5812 6.58164 24.6375 4.55664 22.8375 4.55664C21.0375 4.55664 21.0375 6.58164 19.2937 6.58164C17.55 6.58164 17.4937 4.55664 15.6937 4.55664C13.8937 4.55664 13.95 6.58164 12.15 6.58164V30.7691C11.0812 30.7691 10.0125 31.2191 9.28124 31.9504C8.43749 32.7379 7.98749 33.7504 7.98749 34.8754C7.98749 35.6066 8.15624 36.2816 8.49374 36.9566C8.83124 37.5754 9.28124 38.1379 9.84374 38.5879L23.5687 48.3191C24.3562 48.8816 25.3125 49.1629 26.325 49.1629C27.3375 49.1629 28.2375 48.8816 29.0812 48.3191L42.8062 38.5879C43.3687 38.1379 43.8187 37.5754 44.1562 36.9566C44.4937 36.3379 44.6625 35.6066 44.6625 34.8754C44.6625 33.8066 44.2125 32.7379 43.4812 32.0066C42.75 31.2754 41.625 30.7691 40.5562 30.7691Z" fill="#00ACF0"/>
<path opacity="0.15" d="M20.8688 43.3691L39.6563 10.7441V32.9629C39.6563 32.9629 42.3563 32.5691 42.6938 35.0441C43.0313 37.5191 39.8813 38.9254 39.8813 38.9254L28.35 46.4066C28.35 46.4066 26.325 47.9816 23.6813 45.8441C21.0375 43.7066 20.8688 43.3691 20.8688 43.3691Z" fill="white"/>
<path d="M19.0687 26.9433C17.1 26.9433 15.5812 26.2683 14.5125 24.9746C13.4437 23.6808 12.8812 21.9371 12.8812 19.8558C12.8812 17.7183 13.4437 15.9746 14.5125 14.7371C15.5812 13.4996 17.1 12.8808 19.0687 12.8808C20.9812 12.8808 22.5 13.4996 23.5687 14.7933C24.6375 16.0871 25.2 17.7746 25.2 19.8558C25.2 21.9933 24.6375 23.6808 23.5687 24.9746C22.5 26.3246 20.9812 26.9433 19.0687 26.9433ZM19.0687 23.3433C19.575 23.3433 19.9687 23.0621 20.1937 22.5558C20.475 22.0496 20.5875 21.1496 20.5875 19.8558C20.5875 18.5621 20.475 17.6621 20.1937 17.1558C19.9125 16.6496 19.5187 16.4246 19.0687 16.4246C18.5625 16.4246 18.1687 16.6496 17.8875 17.1558C17.6062 17.6621 17.4937 18.5621 17.4937 19.8558C17.4937 21.2058 17.6062 22.1058 17.8875 22.6121C18.1687 23.1183 18.5625 23.3433 19.0687 23.3433ZM23.7937 35.6621C23.4 36.2808 22.95 36.6746 22.3875 36.7871C21.825 36.8996 21.3187 36.7871 20.8125 36.5058C20.3062 36.2246 20.025 35.8308 19.8 35.2683C19.6312 34.7621 19.6875 34.1433 20.0812 33.5246L31.5 13.8371C31.8937 13.1621 32.3437 12.8246 32.85 12.7121C33.4125 12.5996 33.9187 12.7121 34.3687 12.9933C34.875 13.2746 35.1562 13.6683 35.3812 14.2308C35.55 14.7371 35.4937 15.3558 35.1 15.9746L23.7937 35.6621ZM36.3375 36.6183C34.425 36.6183 32.9062 35.9996 31.8375 34.7058C30.7687 33.4121 30.2062 31.7246 30.2062 29.5871C30.2062 27.4496 30.7687 25.7058 31.8375 24.4683C32.9062 23.2308 34.425 22.5558 36.3375 22.5558C38.25 22.5558 39.7687 23.1746 40.8937 24.4683C41.9625 25.7621 42.525 27.4496 42.525 29.5871C42.525 31.7246 41.9625 33.4121 40.8937 34.7058C39.825 35.9996 38.3062 36.6183 36.3375 36.6183ZM36.3375 33.0746C36.8437 33.0746 37.2375 32.7933 37.5187 32.2871C37.8 31.7808 37.9125 30.8808 37.9125 29.5871C37.9125 28.2933 37.8 27.3933 37.5187 26.8871C37.2375 26.3808 36.8437 26.1558 36.3375 26.1558C35.8312 26.1558 35.4375 26.3808 35.2125 26.8871C34.9312 27.3933 34.8187 28.2933 34.8187 29.5871C34.8187 30.8808 34.9312 31.7808 35.2125 32.3433C35.4375 32.7933 35.8312 33.0746 36.3375 33.0746Z" fill="#F09537"/>
<path d="M18.3375 25.8749C16.3688 25.8749 14.85 25.1999 13.7813 23.9062C12.7125 22.6124 12.15 20.8687 12.15 18.7874C12.15 16.6499 12.7125 14.9062 13.7813 13.6687C14.85 12.4312 16.3688 11.8124 18.3375 11.8124C20.25 11.8124 21.7688 12.4312 22.8375 13.7249C23.9063 15.0187 24.4688 16.7062 24.4688 18.7874C24.4688 20.9249 23.9063 22.6124 22.8375 23.9062C21.7688 25.1999 20.25 25.8749 18.3375 25.8749ZM18.3375 22.2749C18.8438 22.2749 19.2375 21.9937 19.4625 21.4874C19.7438 20.9812 19.8563 20.0812 19.8563 18.7874C19.8563 17.4937 19.7438 16.5937 19.4625 16.0874C19.1813 15.5812 18.7875 15.3562 18.3375 15.3562C17.8313 15.3562 17.4375 15.5812 17.1563 16.0874C16.875 16.5937 16.7625 17.4937 16.7625 18.7874C16.7625 20.1374 16.875 21.0374 17.1563 21.5437C17.4375 21.9937 17.8313 22.2749 18.3375 22.2749ZM23.0625 34.5937C22.6688 35.2124 22.2188 35.6062 21.6563 35.7187C21.0938 35.8312 20.5875 35.7187 20.0813 35.4374C19.575 35.1562 19.2938 34.7624 19.0688 34.1999C18.9 33.6937 18.9563 33.0749 19.35 32.4562L30.7688 12.7687C31.1625 12.0937 31.6125 11.7562 32.1188 11.6437C32.6813 11.5312 33.1875 11.6437 33.6375 11.9249C34.1438 12.2062 34.425 12.5999 34.65 13.1624C34.8188 13.6687 34.7625 14.2874 34.3688 14.9062L23.0625 34.5937ZM35.6063 35.5499C33.6938 35.5499 32.175 34.9312 31.1063 33.6374C30.0375 32.3437 29.475 30.6562 29.475 28.5187C29.475 26.3812 30.0375 24.6374 31.1063 23.3999C32.175 22.1624 33.6938 21.4874 35.6063 21.4874C37.5188 21.4874 39.0375 22.1062 40.1625 23.3999C41.2313 24.6937 41.7938 26.3812 41.7938 28.5187C41.7938 30.6562 41.2313 32.3437 40.1625 33.6374C39.0375 34.8749 37.5188 35.5499 35.6063 35.5499ZM35.6063 31.9499C36.1125 31.9499 36.5063 31.6687 36.7875 31.1624C37.0688 30.6562 37.1813 29.7562 37.1813 28.4624C37.1813 27.1687 37.0688 26.2687 36.7875 25.7624C36.5063 25.2562 36.1125 25.0312 35.6063 25.0312C35.1 25.0312 34.7063 25.2562 34.4813 25.7624C34.2 26.2687 34.0875 27.1687 34.0875 28.4624C34.0875 29.7562 34.2 30.6562 34.4813 31.2187C34.7063 31.7249 35.1 31.9499 35.6063 31.9499Z" fill="#F6C957"/>
<path d="M21.4875 13.1624L20.1938 17.6062C20.1938 17.6062 20.1375 16.0874 19.575 15.5249L20.4188 12.5437C20.4188 12.4874 21.0938 12.7124 21.4875 13.1624Z" fill="#FAE78D"/>
<path d="M17.4937 22.5L16.7062 25.3125C16.7062 25.3125 17.325 25.5938 18 25.5375L18.7875 22.5562C18.7875 22.5 18.3375 22.6688 17.4937 22.5Z" fill="#FAE78D"/>
<path d="M38.8125 22.8375L37.5188 27.2812C37.5188 27.2812 37.4625 25.7625 36.9 25.2L37.7438 22.2188C37.7438 22.2188 38.475 22.3875 38.8125 22.8375Z" fill="#FAE78D"/>
<path d="M34.875 32.1748L34.0875 34.9873C34.0875 34.9873 34.7063 35.2686 35.3813 35.2123L36.1688 32.2311C36.1688 32.2311 35.6625 32.3998 34.875 32.1748Z" fill="#FAE78D"/>
<path d="M26.3812 21.6562L23.5687 32.3438L28.0687 25.0312L30.8812 14.3438L26.3812 21.6562Z" fill="#FAE78D"/>
<path d="M21.9375 13.4434L18.7313 25.5934C19.575 25.4809 20.4188 25.1996 21.2063 24.8059L21.2625 24.7496L23.625 15.9746C23.2875 15.0184 22.7813 14.1746 22.05 13.4996L21.9375 13.4434Z" fill="#FAE78D"/>
<path d="M39.3187 23.0059L36.1125 35.1559C36.9562 35.0434 37.8 34.7621 38.5875 34.3684L38.6437 34.3121L40.95 25.5934C40.6125 24.6371 40.1062 23.7934 39.375 23.1184L39.3187 23.0059Z" fill="#FAE78D"/>
</svg>