<svg width="28" height="29" fill="none" xmlns="http://www.w3.org/2000/svg"><path d="M0 8.1c0-2.895 0-4.342.581-5.44A5 5 0 012.661.581C3.757 0 5.204 0 8.1 0h11.8c2.895 0 4.342 0 5.44.581a5 5 0 012.079 2.08C28 3.757 28 5.204 28 8.1v11.8c0 2.895 0 4.342-.581 5.44a5 5 0 01-2.08 2.079C24.243 28 22.796 28 19.9 28H8.1c-2.895 0-4.342 0-5.44-.581a5 5 0 01-2.079-2.08C0 24.243 0 22.796 0 19.9V8.1z" fill="#C0F9FC"/><path d="M22.528 20.117H5.104c-1.224 0-2.231-.992-2.231-2.21V8.281c0-1.218 1.007-2.21 2.23-2.21h17.425c1.224 0 2.23.992 2.23 2.21v9.626c0 1.218-1.006 2.21-2.23 2.21z" fill="#2891B5"/><path d="M22.972 19.695H5.548c-1.224 0-2.231-.992-2.231-2.21V7.849a2.23 2.23 0 012.231-2.22h17.424a2.236 2.236 0 012.231 2.22v9.626a2.236 2.236 0 01-2.231 2.22z" fill="#3EAFCE"/><path d="M22.557 18.506H6.22c-.8 0-1.46-.658-1.46-1.454v-8.77c0-.796.66-1.455 1.46-1.455h16.348c.8 0 1.461.659 1.461 1.454v8.771a1.469 1.469 0 01-1.47 1.454z" fill="#5DCEE8"/><path d="M4.65 7.869v1.768c1.52-.06 2.744-1.297 2.744-2.83V6.72h-1.58A1.143 1.143 0 004.65 7.87zm1.115 10.834h1.777A2.844 2.844 0 004.7 15.972h-.09v1.572c0 .638.523 1.159 1.155 1.159zm18.451-1.15v-1.768c-1.52.06-2.745 1.297-2.745 2.83v.088h1.58c.642 0 1.165-.52 1.165-1.15zM23.09 6.71h-1.776a2.844 2.844 0 002.843 2.73h.088V7.87c0-.639-.523-1.16-1.155-1.16z" fill="#3EAFCE"/><path d="M11.373 14.057c-.247 0-.366-.128-.366-.373v-3.291c0-.246.129-.364.366-.364h1.372c.444 0 .78.109 1.017.315.236.206.355.5.355.884 0 .295-.08.54-.237.736-.158.197-.375.325-.671.393.197.06.355.207.473.433l.425.785c.07.118.079.236.04.334-.04.099-.139.157-.297.157a.387.387 0 01-.246-.068.455.455 0 01-.168-.207l-.573-1.05c-.069-.128-.148-.217-.247-.256a.876.876 0 00-.355-.069h-.543v1.268c.01.245-.109.373-.345.373zm.355-2.18h.888c.533 0 .8-.217.8-.65 0-.421-.267-.638-.8-.638h-.888v1.287zm3.465 3.201c-.237 0-.355-.118-.355-.353v-3.163c0-.236.118-.354.345-.354.237 0 .355.118.355.354v.118a.878.878 0 01.356-.354c.158-.088.345-.128.543-.128.247 0 .454.06.641.177.188.118.326.285.425.491.099.216.158.472.158.767 0 .294-.05.55-.158.766a1.184 1.184 0 01-.425.5 1.142 1.142 0 01-.641.177 1.07 1.07 0 01-.533-.127.946.946 0 01-.366-.344v1.12c.01.226-.108.353-.345.353zm1.046-1.552a.646.646 0 00.514-.226c.128-.157.197-.383.197-.677 0-.305-.069-.53-.197-.678a.646.646 0 00-.514-.226.66.66 0 00-.513.226c-.128.147-.197.373-.197.678 0 .294.059.52.197.677a.63.63 0 00.513.226z" fill="#fff"/><path d="M11.659 21.01v-3.162c0-.648.256-.894.918-.894h3c.652 0 .91.246.919.894.01 1.65 0 .904 0 2.554v.59c.197.01.346.029.494.029.908 0 1.796-.354 2.705-.354.384 0 .68-.943.849-.59.148.315.03 2.044-.198 2.28l-5.676 5.647c-.356.354-.85.354-1.215 0-1.895-1.876-3.79-3.762-5.676-5.638-.257-.275-.375-1.866-.247-2.19.148-.344.701.609 1.057.609 1.066 0 1.934.226 3.07.226z" fill="#F09537"/><path d="M11.659 19.469v-3.163c0-.648.256-.894.918-.894h3.001c.652 0 .908.246.918.894.01 1.65 0 .904 0 2.554v.59c.198.009.346.029.494.029h2.724c.385 0 .652.177.81.53.148.314.05.57-.178.805l-5.676 5.648c-.356.354-.85.354-1.214 0-1.896-1.876-3.791-3.762-5.677-5.638-.247-.245-.296-.54-.158-.854.148-.344.425-.482.78-.482 1.056-.02 2.123-.02 3.258-.02z" fill="#F6C957"/><path d="M9.842 21.286l3.85 3.83a.366.366 0 00.405.08.366.366 0 00.227-.345v-7.563a.372.372 0 00-.365-.373.366.366 0 00-.365.373v6.67l-3.219-3.202a.365.365 0 00-.523 0c-.148.157-.148.392-.01.53z" fill="#F9DD60"/></svg>