<svg width="128" height="128" viewBox="0 0 128 128" fill="none" xmlns="http://www.w3.org/2000/svg">
<path d="M8 40.4C8 28.8213 8 23.032 10.3247 18.6414C12.2007 15.0983 15.0983 12.2007 18.6414 10.3247C23.032 8 28.8213 8 40.4 8H87.6C99.1787 8 104.968 8 109.359 10.3247C112.902 12.2007 115.799 15.0983 117.675 18.6414C120 23.032 120 28.8213 120 40.4V87.6C120 99.1787 120 104.968 117.675 109.359C115.799 112.902 112.902 115.799 109.359 117.675C104.968 120 99.1787 120 87.6 120H40.4C28.8213 120 23.032 120 18.6414 117.675C15.0983 115.799 12.2007 112.902 10.3247 109.359C8 104.968 8 99.1787 8 87.6V40.4Z" fill="#C0F9FC"/>
<path d="M101.303 52.7887C100.633 51.9669 99.6087 51.4582 98.5445 51.4582L49.8314 51.4191L45.4172 35.8446C44.9837 34.3184 43.6043 33.2618 42.0278 33.2618L35.7219 33.301C33.7907 33.301 32.2142 34.9054 32.2537 36.8229C32.2537 38.7403 33.8695 40.3056 35.8007 40.2665L39.4266 40.2273L53.812 92.7424C54.2061 94.2686 55.6249 95.3252 57.2014 95.3252H63.1526C61.4973 96.0295 60.315 97.6339 60.315 99.5514C60.315 102.056 62.3644 104.13 64.9262 104.13C67.4879 104.13 69.5374 102.095 69.5374 99.5514C69.5374 97.6339 68.355 96.0295 66.6997 95.3252H85.7751C84.1198 96.0295 82.9374 97.6339 82.9374 99.5514C82.9374 102.056 84.9868 104.13 87.5486 104.13C90.1104 104.13 92.1598 102.095 92.1598 99.5514C92.1598 97.6339 90.9775 96.0295 89.3222 95.3252H93.9333C95.8645 95.3252 97.441 93.7599 97.441 91.8424C97.441 89.9249 95.8645 88.3597 93.9333 88.3597H59.8814L57.6349 80.1811H92.1204C93.7363 80.1811 95.1551 79.0854 95.5098 77.5201L101.973 55.7236C102.21 54.7062 101.973 53.6105 101.303 52.7887Z" fill="#2891B5"/>
<path d="M102.722 51.3799C102.052 50.5582 101.027 50.0495 99.9634 50.0495L51.2502 50.0103L46.8361 34.4358C46.4025 32.9097 45.0231 31.8531 43.4466 31.8531L37.1407 31.8922C35.2095 31.8922 33.6331 33.4575 33.6725 35.4141C33.6725 37.3316 35.249 38.8968 37.2195 38.8577L40.8454 38.8186L55.2308 91.3337C55.6249 92.8598 57.0438 93.9164 58.6202 93.9164H64.6109C62.9555 94.6208 61.7732 96.2252 61.7732 98.1427C61.7732 100.686 63.8226 102.721 66.3844 102.721C68.9462 102.721 70.9956 100.686 70.9956 98.1427C70.9956 96.2252 69.8132 94.6208 68.1579 93.9164H87.2333C85.578 94.6208 84.3956 96.2252 84.3956 98.1427C84.3956 100.686 86.4451 102.721 89.0068 102.721C91.5686 102.721 93.618 100.686 93.618 98.1427C93.618 96.2252 92.4357 94.6208 90.7804 93.9164H95.3916C97.3228 93.9164 98.8992 92.3511 98.8992 90.4337C98.8992 88.5162 97.3228 86.9509 95.3916 86.9509H61.3397L59.0932 78.7723H93.5786C95.1945 78.7723 96.6134 77.6766 96.9681 76.1114L103.432 54.3148C103.589 53.3365 103.353 52.2408 102.722 51.3799Z" fill="#3EAFCE"/>
<path d="M72.848 45.9406H58.0291C56.4132 45.9406 55.0732 44.6492 55.0732 43.0057V28.7617C55.0732 27.1572 56.3738 25.8268 58.0291 25.8268H72.848C74.4639 25.8268 75.8039 27.1181 75.8039 28.7617V43.0057C75.7645 44.6101 74.4639 45.9406 72.848 45.9406Z" fill="#F6C957"/>
<path d="M98.1505 45.9797H81.3216C79.7845 45.9797 78.5627 44.7666 78.5627 43.2405V38.8186C78.5627 37.2924 79.7845 36.0793 81.3216 36.0793H98.1505C99.6876 36.0793 100.909 37.2924 100.909 38.8186V43.2405C100.909 44.7275 99.6876 45.9797 98.1505 45.9797Z" fill="#F6C957"/>
<path d="M92.0416 33.1444H80.7698C79.7845 33.1444 78.9963 32.3618 78.9963 31.3835V20.8179C78.9963 19.8396 79.7845 19.0569 80.7698 19.0569H92.0416C93.0269 19.0569 93.8152 19.8396 93.8152 20.8179V31.3444C93.8152 32.3227 93.0269 33.1444 92.0416 33.1444Z" fill="#F6C957"/>
<path d="M65.1232 62.8847H59.5267C58.7385 62.8847 58.0685 62.4151 57.832 61.7108L56.7285 58.1106C56.4132 57.0541 57.2408 56.0366 58.4232 56.0366H64.3744C65.202 56.0366 65.9509 56.5845 66.1085 57.3671L66.8573 60.9672C67.0544 61.9455 66.2268 62.8847 65.1232 62.8847Z" fill="white"/>
<path d="M67.2515 72.5895H62.522C61.7338 72.5895 61.0638 72.1199 60.8273 71.4155L59.7238 67.8154C59.4085 66.7588 60.2361 65.7414 61.4185 65.7414H66.542C67.4091 65.7414 68.1185 66.2892 68.2762 67.0719L68.9856 70.672C69.1432 71.6895 68.3156 72.5895 67.2515 72.5895Z" fill="white"/>
<path d="M79.5086 62.8847H72.5721C71.8627 62.8847 71.2321 62.3369 71.1139 61.5542L70.4833 57.9541C70.3256 56.9367 71.035 56.0366 71.9415 56.0366H80.3757C81.361 56.0366 82.0704 57.0541 81.8339 58.1106L80.9274 61.7108C80.7698 62.376 80.1786 62.8847 79.5086 62.8847Z" fill="white"/>
<path d="M77.8927 72.5895H74.3062C73.5968 72.5895 72.9662 72.0416 72.8479 71.259L72.2568 67.6589C72.0991 66.6414 72.8085 65.7414 73.715 65.7414H78.7597C79.745 65.7414 80.4545 66.7588 80.218 67.7763L79.3903 71.3764C79.1933 72.0808 78.6021 72.5895 77.8927 72.5895Z" fill="white"/>
<path d="M92.3175 62.8847H87.6275C86.4845 62.8847 85.6569 61.9064 85.8933 60.8499L86.8392 57.2497C87.0363 56.5062 87.7457 55.9975 88.5734 55.9975H93.2634C94.4063 55.9975 95.234 56.9758 94.9975 58.0324L94.0516 61.6325C93.8152 62.376 93.1057 62.8847 92.3175 62.8847Z" fill="white"/>
<path d="M89.6769 72.5895H85.0263C83.8833 72.5895 83.0163 71.5721 83.3316 70.5155L84.3957 66.9154C84.5927 66.211 85.3022 65.7023 86.0904 65.7023H90.741C91.884 65.7023 92.751 66.7197 92.4357 67.7371L91.3716 71.3373C91.1745 72.1199 90.4651 72.5895 89.6769 72.5895Z" fill="white"/>
<path d="M15.1883 56.5454H32.2536C33.6331 56.5454 34.7366 55.4497 34.7366 54.0801C34.7366 52.7104 33.6331 51.6147 32.2536 51.6147H15.1883C13.8089 51.6147 12.7053 52.7104 12.7053 54.0801C12.7053 55.4497 13.8089 56.5454 15.1883 56.5454Z" fill="#2891B5"/>
<path d="M3.48295 71.2981H32.8054C34.1849 71.2981 35.2884 70.2024 35.2884 68.8328C35.2884 67.4632 34.1849 66.3675 32.8054 66.3675H3.48295C2.10353 66.3283 1 67.424 1 68.7937C1 70.1633 2.10353 71.2981 3.48295 71.2981Z" fill="#2891B5"/>
<path d="M24.9231 83.703H41.9884C43.3679 83.703 44.4714 82.6073 44.4714 81.2376C44.4714 79.868 43.3679 78.7723 41.9884 78.7723H24.9231C23.5437 78.7723 22.4401 79.868 22.4401 81.2376C22.4401 82.6073 23.5437 83.703 24.9231 83.703Z" fill="#2891B5"/>
<path d="M15.7401 54.9409H32.8055C34.1849 54.9409 35.2884 53.8452 35.2884 52.4756C35.2884 51.106 34.1849 50.0103 32.8055 50.0103H15.7401C14.3607 50.0103 13.2571 51.106 13.2571 52.4756C13.2571 53.8452 14.3607 54.9409 15.7401 54.9409Z" fill="#5DCEE8"/>
<path d="M4.03471 69.6937H33.3572C34.7366 69.6937 35.8402 68.598 35.8402 67.2284C35.8402 65.8588 34.7366 64.7631 33.3572 64.7631H4.03471C2.65529 64.7631 1.55176 65.8588 1.55176 67.2284C1.55176 68.598 2.65529 69.6937 4.03471 69.6937Z" fill="#5DCEE8"/>
<path d="M25.4748 82.1377H42.5402C43.9196 82.1377 45.0232 81.042 45.0232 79.6723C45.0232 78.3027 43.9196 77.207 42.5402 77.207H25.4748C24.0954 77.207 22.9919 78.3027 22.9919 79.6723C22.9919 81.042 24.0954 82.1377 25.4748 82.1377Z" fill="#5DCEE8"/>
<path d="M58.4232 30.8356V38.7794C58.4232 41.1665 60.3544 43.084 62.7585 43.084H70.2862C71.1139 43.084 71.7445 42.4187 71.7445 41.6361C71.7445 40.8143 71.0745 40.1882 70.2862 40.1882H62.7585C62.0097 40.1882 61.3791 39.5621 61.3791 38.8186V30.8356C61.3791 30.0139 60.7091 29.3486 59.9209 29.3486C59.0932 29.3486 58.4232 30.0139 58.4232 30.8356Z" fill="#F9DD60"/>
<path d="M81.3215 23.9484V28.2529C81.3215 29.6226 82.4645 30.7574 83.8439 30.7574H87.9033C88.4551 30.7574 88.8886 30.3269 88.8886 29.7791C88.8886 29.2312 88.4551 28.8008 87.9033 28.8008H83.8439L83.2921 28.2529V23.9484C83.2921 23.4006 82.8586 22.9701 82.3068 22.9701C81.7945 22.9701 81.3215 23.4006 81.3215 23.9484Z" fill="#F9DD60"/>
<path d="M80.691 39.0534V42.4187C80.691 43.6318 81.6763 44.571 82.8981 44.571H92.9087C93.4605 44.571 93.894 44.1405 93.894 43.5927C93.894 43.0448 93.4605 42.6144 92.9087 42.6144H82.8981L82.6616 42.4187V39.0534C82.6616 38.5055 82.228 38.0751 81.6763 38.0751C81.1639 38.0751 80.691 38.5447 80.691 39.0534Z" fill="#F9DD60"/>
</svg>
