<svg width="55" height="54" viewBox="0 0 55 54" fill="none" xmlns="http://www.w3.org/2000/svg">
<g clip-path="url(#clip0_1784_1851)">
<path d="M39.0625 54H15.4375C7.05625 54 0.25 47.1937 0.25 38.8125V15.1875C0.25 6.80625 7.05625 0 15.4375 0H39.0625C47.3875 0 54.25 6.80625 54.25 15.1875V38.8125C54.25 47.1937 47.4437 54 39.0625 54Z" fill="#C0F9FC"/>
<path d="M37.375 50.625H17.0688C9.30626 50.625 3.00626 44.325 3.00626 36.6187V36.5625C3.00626 28.8 9.30626 22.5 17.0688 22.5H37.375C45.1375 22.5 51.3813 28.8 51.3813 36.5063V36.5625C51.3813 44.325 45.1375 50.625 37.375 50.625Z" fill="#8CE6F4"/>
<path d="M8.12499 12.0941C8.12499 11.4191 8.29374 11.0816 8.91249 10.8004C14.875 8.21289 20.7812 5.51289 26.7437 2.92539C27.1937 2.75664 27.8687 2.75664 28.3187 2.92539C34.2812 5.51289 40.2437 8.15664 46.15 10.8566C46.4875 11.0254 46.8812 11.4754 46.8812 11.7566C46.8812 16.9316 46.9375 22.0504 46.825 27.2254C46.6 34.1441 43.45 39.6566 38.3875 44.2129C35.6312 46.6879 32.425 48.5441 28.825 49.5566C27.9812 49.7816 26.9687 49.8379 26.125 49.5566C16.5625 46.3504 10.4312 39.8254 8.46249 29.8129C7.84374 26.7754 8.12499 14.9066 8.12499 12.0941ZM42.6625 14.7379C42.6625 14.4004 42.325 13.8379 42.0437 13.7254C37.375 11.6441 32.7062 9.56289 28.0375 7.53789C27.7 7.36914 27.1937 7.42539 26.8562 7.53789C22.3 9.50664 17.8 11.5879 13.2437 13.5566C12.625 13.8379 12.3437 14.1754 12.3437 14.9066C12.4 17.7754 12.3437 20.6441 12.3437 23.5129C12.3437 25.1441 12.2312 26.8316 12.5125 28.4629C13.9187 37.0129 19.0375 42.5254 27.025 45.5066C27.3062 45.6191 27.7562 45.6191 28.0375 45.5066C35.4062 42.7504 40.4687 37.8004 42.2125 30.0379C42.8875 27.2254 42.7187 16.9316 42.6625 14.7379Z" fill="#2891B5"/>
<path d="M42.9438 14.5133C42.9438 14.1758 42.6063 13.6133 42.325 13.4446C37.6 11.3071 32.8187 9.16959 28.0938 7.14459C27.7562 6.97584 27.25 7.03209 26.8562 7.14459C22.2437 9.16959 17.6312 11.2508 13.0187 13.2758C12.3437 13.5571 12.0625 13.8946 12.1187 14.6821C12.175 17.6071 12.1187 20.5321 12.1187 23.4008C12.1187 25.0883 12.0062 26.7758 12.2875 28.4071C13.6937 37.1821 18.8687 42.7508 27.025 45.7883C27.3062 45.9008 27.7563 45.9008 28.0375 45.7883C35.575 43.0321 40.6937 37.9696 42.4937 30.0383C43.1687 27.2258 43 16.7633 42.9438 14.5133Z" fill="#3EAFCE"/>
<path d="M42.9438 15.6383C42.9438 15.3008 42.6063 14.7946 42.325 14.6258C37.7688 12.5446 33.1563 10.5196 28.6 8.55084C28.2625 8.38209 27.7563 8.43834 27.4188 8.55084C22.975 10.5196 18.5313 12.4883 14.0875 14.4571C13.4688 14.7383 13.1875 15.0758 13.1875 15.8071C13.2438 18.6196 13.1875 21.4321 13.1875 24.2446C13.1875 25.8758 13.075 27.5071 13.3563 29.0821C14.7063 37.4633 19.7688 42.8633 27.5875 45.8446C27.8688 45.9571 28.2625 45.9571 28.6 45.8446C35.8563 43.2008 40.8063 38.3071 42.55 30.6571C43.1125 27.9008 43 17.7758 42.9438 15.6383Z" fill="#5DCEE8"/>
<path d="M15.4938 26.3814L25.5625 36.4502L41.875 20.1377L41.2563 18.4502L25.5625 28.0689L14.875 24.6939L15.4938 26.3814Z" fill="#7EAC54"/>
<path d="M14.875 24.6939L24.9438 34.7627L41.2563 18.4502L37.0375 14.2314L24.9438 26.3814L19.0938 20.5314L14.875 24.6939Z" fill="#B8DD82"/>
<path d="M24.9438 34.7627L25.5625 36.4502L41.875 20.1377L41.2563 18.4502L24.9438 34.7627Z" fill="#7EAC54"/>
<path d="M32.1437 20.1377L29.275 29.2502L32.4812 26.1564L35.35 16.7627L32.1437 20.1377Z" fill="#EFFFB7"/>
<path d="M30.0063 22.2756L27.1938 31.1068L28.6 29.7568L31.4125 20.7568L30.0063 22.2756Z" fill="#EFFFB7"/>
<path d="M19.0938 20.5314L24.9438 26.3814L37.0375 14.2314L25 26.7752L19.0938 20.5314Z" fill="#EFFFB7"/>
<path d="M34.45 6.1875L33.6062 9.16875L36.25 10.35L37.15 7.3125L34.45 6.1875Z" fill="#3EAFCE"/>
<path d="M32.9312 10.9131L30.4 19.6318L36.5875 14.0631L37.0375 12.6568L32.9312 10.9131Z" fill="#8CE6F4"/>
<path d="M27.8125 35.6627L25.9 43.7627C25.9 43.7627 27.025 44.6064 27.9812 44.7752C27.9812 44.7752 30.85 43.9314 32.875 42.1314L36.3625 27.1689L27.8125 35.6627Z" fill="#8CE6F4"/>
</g>
<defs>
<clipPath id="clip0_1784_1851">
<rect width="54" height="54" fill="white" transform="translate(0.25)"/>
</clipPath>
</defs>
</svg>