<svg width="32" height="32" fill="none" xmlns="http://www.w3.org/2000/svg"><path d="M2 10.1c0-2.895 0-4.342.581-5.44a5 5 0 012.08-2.079C5.757 2 7.204 2 10.1 2h11.8c2.895 0 4.342 0 5.44.581a5 5 0 012.079 2.08C30 5.757 30 7.204 30 10.1v11.8c0 2.895 0 4.342-.581 5.44a5 5 0 01-2.08 2.079C26.243 30 24.796 30 21.9 30H10.1c-2.895 0-4.342 0-5.44-.581a5 5 0 01-2.079-2.08C2 26.243 2 24.796 2 21.9V10.1z" fill="#C0F9FC"/><path d="M19.175 26.8H12.05a2.507 2.507 0 01-2.5-2.5V8.475c0-1.375 1.125-2.5 2.5-2.5h7.125c1.375 0 2.5 1.125 2.5 2.5V24.3c0 1.375-1.125 2.5-2.5 2.5z" fill="#2891B5"/><path d="M19.625 26.375H12.5a2.507 2.507 0 01-2.5-2.5V8.05c0-1.375 1.125-2.5 2.5-2.5h7.125c1.375 0 2.5 1.125 2.5 2.5v15.825c-.025 1.375-1.15 2.5-2.5 2.5z" fill="#3EAFCE"/><path d="M19.05 24.8h-6c-.975 0-1.75-.8-1.75-1.775V8.575c0-.975.8-1.775 1.75-1.775h6c.975 0 1.75.8 1.75 1.775V23.05c.025.975-.775 1.75-1.75 1.75z" fill="#5DCEE8"/><path d="M21 20.725v-8.25c0-.4-.325-.725-.725-.725H12.75l.5.75v8.225l.775.775.775-.775.775.775.775-.775.775.775.775-.775.775.775.775-.775.775.775.775-.775z" fill="#E6E7E8"/><path d="M14.375 14.375a.361.361 0 01-.175-.05c-.05-.05-.05-.1-.05-.175v-1.3c0-.075.025-.125.05-.175.05-.05.1-.05.175-.05h.6c.2 0 .35.05.45.15.1.1.15.225.15.4 0 .125-.025.25-.1.325a.41.41 0 01-.275.175c.1.025.175.1.225.2l.125.225c.025.05.05.1.025.15 0 .05-.025.075-.05.1-.025.025-.075.05-.15.05s-.125-.025-.15-.05c-.05-.025-.075-.075-.1-.125l-.225-.4-.075-.075c-.025-.025-.075-.025-.1-.025H14.6v.45a.361.361 0 01-.05.175c-.05.025-.1.025-.175.025zm.225-.975h.3c.175 0 .275-.075.275-.2 0-.15-.1-.2-.275-.2h-.3v.4zm1.325 1.625c-.15 0-.225-.075-.225-.225v-1.3c0-.15.075-.225.225-.225.125 0 .2.05.225.175.025-.05.075-.1.15-.15a.73.73 0 01.225-.05c.1 0 .2.025.275.075a.59.59 0 01.2.225c.05.1.075.225.075.35 0 .125-.025.25-.075.35-.05.1-.1.175-.2.225a.504.504 0 01-.275.075c-.075 0-.15-.025-.225-.05a.256.256 0 01-.15-.125v.4a.361.361 0 01-.05.175c-.05.075-.1.075-.175.075zm.45-.775a.227.227 0 00.175-.075c.05-.05.075-.125.075-.25s-.025-.2-.075-.25a.227.227 0 00-.175-.075.227.227 0 00-.175.075c-.05.05-.075.125-.075.25 0 .1.025.2.075.25.05.05.1.075.175.075zm3.95 1.325H14.05v.675h6.275v-.675zm0 1.15H14.05v.675h6.275v-.675zm-2.425 1.2h-3.85v.675h3.85v-.675z" fill="#2891B5"/><path d="M12.75 12.8c.276 0 .5-.235.5-.525a.513.513 0 00-.5-.525c-.276 0-.5.235-.5.525 0 .29.224.525.5.525z" fill="#E6E7E8"/><path d="M13.25 12.275h-1v2.975h1v-2.975z" fill="#E6E7E8"/><path d="M31 14a5.868 5.868 0 01-5.875 5.875A5.868 5.868 0 0119.25 14a5.868 5.868 0 015.875-5.875A5.868 5.868 0 0131 14z" fill="#F6C957"/><path d="M24.125 15c.3-.3.6-.575.875-.875l2.25-2.25c.175-.175.425-.2.6-.025.175.175.375.375.55.575.15.15.125.35-.025.525l-.025.025c-1.3 1.275-2.6 2.575-3.9 3.875-.2.2-.425.2-.625 0l-2.05-2.05c-.15-.15-.175-.325-.075-.5 0-.025.025-.025.025-.05.2-.2.375-.4.575-.575.15-.15.375-.125.55.025.4.4.8.8 1.2 1.225.05.025.075.05.075.075z" fill="#E6E7E8"/><path d="M25.125 9.45c1.25 0 2.4.5 3.2 1.325A4.511 4.511 0 0129.65 14a.25.25 0 00.5 0c0-2.775-2.25-5.05-5.025-5.05a.25.25 0 00-.25.25c0 .15.125.25.25.25z" fill="#FAEFC3"/></svg>