<svg width="54" height="54" viewBox="0 0 54 54" fill="none" xmlns="http://www.w3.org/2000/svg">
<path d="M38.8125 54H15.1875C6.80625 54 0 47.1937 0 38.8125V15.1875C0 6.80625 6.80625 0 15.1875 0H38.8125C47.1375 0 54 6.80625 54 15.1875V38.8125C54 47.1937 47.1937 54 38.8125 54Z" fill="#C0F9FC"/>
<path d="M37.125 50.625H16.8187C9.05625 50.625 2.75625 44.325 2.75625 36.6187V36.5625C2.75625 28.8 9.05625 22.5 16.8187 22.5H37.125C44.8875 22.5 51.1312 28.8 51.1312 36.5063V36.5625C51.1312 44.325 44.8875 50.625 37.125 50.625Z" fill="#8CE6F4"/>
<path d="M23.4562 14.3436C23.4562 14.3436 15.075 12.3749 2.925 24.8624C2.1375 25.6499 2.86875 26.9436 3.9375 26.7186C6.975 26.0436 11.5313 25.5374 16.425 26.7749C16.3688 26.7749 21.3188 24.0749 23.4562 14.3436Z" fill="#EE7988"/>
<path d="M23.4563 14.3438C23.4563 14.3438 21.0375 15.2437 18.5625 18C15.075 21.825 15.4125 23.2312 14.9625 24.3562C14.9625 24.3562 11.6438 24.1875 6.24375 26.325C6.24375 26.325 12.0938 25.8187 16.3688 26.8875C16.3688 26.8875 21.825 23.5125 23.4563 14.3438Z" fill="#E9426B"/>
<path d="M16.425 26.7744C16.425 26.7744 10.4063 27.3932 7.70625 34.4244C7.70625 34.4244 9.84375 35.4932 11.475 34.9869C11.475 34.9869 7.70625 38.8119 9.84375 45.2807C9.84375 45.2807 16.875 48.7119 22.6688 41.2307C22.6688 41.2307 21.7125 43.0869 22.275 44.7182C22.8375 45.2807 27.1688 42.9744 27.7313 38.1369C27.675 38.0807 20.7 35.3807 16.425 26.7744Z" fill="#F09537"/>
<path d="M26.4937 37.7437C26.4937 37.7437 25.5938 41.5124 23.7937 42.5812C23.7937 42.5812 24.3 39.2062 24.3 38.4749C24.3 38.4749 18.8438 44.6624 11.925 42.8624C11.925 42.8624 10.4625 37.7437 14.85 33.4124C14.85 33.4124 11.925 33.4124 10.125 33.0749C10.125 33.0749 13.3875 28.3499 17.0437 28.3499C16.9875 28.2937 20.6437 35.5499 26.4937 37.7437Z" fill="#F6C957"/>
<path d="M39.0938 32.1753C31.05 40.219 24.525 39.2065 19.9125 34.594C15.3 29.9815 14.2875 23.4565 22.3313 15.4128C30.375 7.36903 42.8063 2.41903 47.4188 7.03153C52.0313 11.644 47.1375 24.0753 39.0938 32.1753Z" fill="#3EAFCE"/>
<path d="M47.3625 19.9123C49.6125 14.6248 50.0063 9.61856 47.4188 7.03106C44.8313 4.44356 39.8812 4.83731 34.5375 7.08731C34.5937 7.08731 44.325 10.4623 47.3625 19.9123Z" fill="#2891B5"/>
<path d="M36.1687 21.8813C38.5608 21.8813 40.5 19.9421 40.5 17.55C40.5 15.1579 38.5608 13.2188 36.1687 13.2188C33.7767 13.2188 31.8375 15.1579 31.8375 17.55C31.8375 19.9421 33.7767 21.8813 36.1687 21.8813Z" fill="#EDEDED"/>
<path d="M38.1375 19.5187C37.0688 20.5874 35.2687 20.5874 34.1437 19.5187C33.075 18.4499 33.075 16.6499 34.1437 15.5249C35.2125 14.3999 37.0125 14.4562 38.1375 15.5249C39.2063 16.6499 39.2063 18.3937 38.1375 19.5187Z" fill="#2891B5"/>
<path d="M27.5625 38.1373C27.1687 38.1373 26.775 38.0811 26.3812 38.0811C26.775 38.1373 27.1687 38.1373 27.5625 38.1373Z" fill="#F09537"/>
<path d="M26.3812 38.0252C25.0312 37.8564 23.7937 37.4064 22.6687 36.7314C23.625 37.3502 24.8625 37.8564 26.3812 38.0252C26.3812 38.0814 26.3812 38.0814 26.3812 38.0252Z" fill="#F6C957"/>
<path d="M40.1625 31.0498C30.4313 33.2436 27.5625 38.1373 27.5625 38.1373C28.8 43.0311 28.35 47.4186 27.675 50.4561C27.45 51.5248 28.7437 52.2561 29.5312 51.4686C41.9625 39.3186 40.1625 31.0498 40.1625 31.0498Z" fill="#EE7988"/>
<path d="M40.1625 31.0494C40.1625 31.0494 40.1625 30.9932 40.1625 31.0494C40.1625 30.9932 39.5438 31.1057 38.025 31.6119C38.025 31.6119 38.5313 41.2869 29.3625 51.5244C29.3625 51.5244 41.5688 40.0494 40.1625 31.0494Z" fill="#E9426B"/>
<path d="M47.8687 18.6748C47.7 19.0686 47.5312 19.5186 47.3625 19.9123C47.0812 19.0686 46.8 18.2811 46.4062 17.5498C44.8312 22.0498 41.5125 27.2248 34.65 31.5561C26.0437 36.9561 20.25 34.6498 20.25 34.6498C20.25 34.6498 20.475 34.9873 20.925 35.4373C21.3188 35.8311 21.8813 36.2811 22.6125 36.7311C23.7938 37.4061 25.0312 37.8561 26.325 38.0248C26.7187 38.0811 27.1125 38.0811 27.5063 38.0811C30.6 38.1373 34.0875 36.6748 37.9125 33.1311C38.25 32.7936 38.6438 32.4561 38.9813 32.0623C39.375 31.6686 39.7125 31.3311 40.05 30.9373C40.7812 30.1498 41.5125 29.3061 42.1875 28.4623C43.2563 27.1123 44.1562 25.7623 44.8312 24.6373C45.6187 23.2873 46.5187 21.7123 47.25 20.0248C47.5312 19.6311 47.7 19.1248 47.8687 18.6748ZM47.925 18.6186C47.8687 18.6186 47.8687 18.6186 47.925 18.6186C47.8687 18.6186 47.8687 18.6186 47.925 18.6186ZM47.925 18.5623V18.6186V18.5623ZM47.925 18.5061C47.925 18.5061 47.925 18.5623 47.925 18.5061C47.925 18.5623 47.925 18.5061 47.925 18.5061Z" fill="#2891B5"/>
<path d="M47.5875 7.2002C47.6437 7.5377 48.375 12.0377 46.4625 17.5502C46.8 18.2814 47.1375 19.0689 47.4187 19.9127C47.5875 19.5189 47.7562 19.0689 47.925 18.6752C47.925 18.6752 47.925 18.6752 47.925 18.6189C47.925 18.6189 47.925 18.6189 47.925 18.5627V18.5064C49.5 14.1752 49.725 10.1814 47.9812 7.70645C47.9812 7.6502 47.925 7.6502 47.925 7.59395C47.925 7.59395 47.925 7.59394 47.8687 7.53769C47.6437 7.25644 47.6437 7.25645 47.5875 7.2002C47.6437 7.25645 47.6437 7.25645 47.5875 7.2002C47.6437 7.25645 47.6437 7.25645 47.5875 7.2002C47.6437 7.25645 47.6437 7.2002 47.5875 7.2002Z" fill="#11748E"/>
<path d="M24.2437 34.0871C19.35 39.0371 14.5125 42.1309 13.4437 41.0621C12.375 39.9934 15.4687 35.1559 20.4187 30.2059C25.3125 25.3121 30.15 22.1621 31.2187 23.2309C32.2875 24.2996 29.1937 29.1934 24.2437 34.0871Z" fill="#EE7988"/>
</svg>