<svg width="160" height="70" viewBox="0 0 160 70" fill="none" xmlns="http://www.w3.org/2000/svg">
<path d="M78.9632 51.2918C78.9632 57.4761 75.5633 62.4553 68.1633 62.4553C60.7634 62.4553 57.5154 57.7783 57.5154 51.2918V31.6792H54.2634V51.441C54.2634 59.5879 58.8494 65.621 68.1653 65.621C77.6292 65.621 82.3652 59.1345 82.3652 51.5921V31.8303H79.1132L78.9632 51.2918Z" fill="white"/>
<path d="M99.9612 31.5283H96.5612L96.4132 65.0187L119.925 65.1699V62.1473L99.8192 62.0022L99.9612 31.5283Z" fill="white"/>
<path d="M142.699 30.7765C140.415 30.7293 138.146 31.1513 136.029 32.0168C133.913 32.8822 131.993 34.173 130.388 35.8104C128.783 37.4479 127.526 39.3975 126.693 41.5406C125.86 43.6837 125.47 45.9752 125.545 48.2754C125.573 51.7054 126.608 55.0503 128.521 57.8878C130.434 60.7252 133.139 62.9279 136.294 64.2178C139.448 65.5078 142.911 65.827 146.246 65.1354C149.581 64.4437 152.637 62.7721 155.029 60.3316C157.422 57.8911 159.043 54.7912 159.688 51.4231C160.333 48.0551 159.973 44.57 158.654 41.4078C157.335 38.2457 155.115 35.5482 152.275 33.6561C149.436 31.7639 146.103 30.7619 142.699 30.7765ZM142.551 62.6146C140.695 62.648 138.853 62.2965 137.138 61.5819C135.423 60.8673 133.872 59.8049 132.582 58.4608C131.292 57.1166 130.291 55.5195 129.639 53.7687C128.988 52.0178 128.701 50.1507 128.797 48.2834C128.752 46.416 129.079 44.5585 129.758 42.8202C130.436 41.0819 131.453 39.4978 132.748 38.1613C134.043 36.8247 135.59 35.7626 137.299 35.0374C139.008 34.3122 140.843 33.9387 142.697 33.9387C144.551 33.9387 146.386 34.3122 148.094 35.0374C149.803 35.7626 151.35 36.8247 152.645 38.1613C153.941 39.4978 154.957 41.0819 155.636 42.8202C156.314 44.5585 156.641 46.416 156.597 48.2834C156.681 50.172 156.377 52.0578 155.703 53.8223C155.03 55.5867 154.001 57.1915 152.681 58.5359C151.362 59.8802 149.781 60.935 148.038 61.6338C146.294 62.3326 144.426 62.6604 142.551 62.5964V62.6146Z" fill="white"/>
<path d="M1.036 0.000488281H0V1.05638H1.036V0.000488281Z" fill="white"/>
<path d="M5.02801 1.3584H4V2.41429H5.036L5.02801 1.3584Z" fill="white"/>
<path d="M9.16793 3.01709H8.13196V4.07298H9.16793V3.01709Z" fill="white"/>
<path d="M13.3098 4.52637H12.2738V5.58226H13.3098V4.52637Z" fill="white"/>
<path d="M17.4478 6.18457H16.4198V7.24047H17.4538L17.4478 6.18457Z" fill="white"/>
<path d="M21.4418 7.54297H20.4058V8.59887H21.4418V7.54297Z" fill="white"/>
<path d="M25.2857 9.05225H24.2517V10.1081H25.2857V9.05225Z" fill="white"/>
<path d="M28.9838 10.2593H27.9478V11.3152H28.9838V10.2593Z" fill="white"/>
<path d="M32.3858 11.4639H31.3499V12.5198H32.3858V11.4639Z" fill="white"/>
<path d="M5.32406 3.92188H4.28809V4.97777H5.32406V3.92188Z" fill="white"/>
<path d="M8.87176 5.12891H7.83777V6.1848H8.87176V5.12891Z" fill="white"/>
<path d="M12.5759 6.33594H11.5419V7.39183H12.5759V6.33594Z" fill="white"/>
<path d="M16.2678 7.69385H15.2318V8.74974H16.2678V7.69385Z" fill="white"/>
<path d="M19.9618 9.05225H18.9279V10.1081H19.9618V9.05225Z" fill="white"/>
<path d="M23.6617 10.2593H22.6257V11.3152H23.6617V10.2593Z" fill="white"/>
<path d="M27.2078 11.4639H26.1738V12.5198H27.2078V11.4639Z" fill="white"/>
<path d="M30.4617 12.6709H29.4277V13.7308H30.4617V12.6709Z" fill="white"/>
<path d="M33.7157 13.5762H32.6797V14.6321H33.7157V13.5762Z" fill="white"/>
<path d="M9.31585 7.54297H8.28186V8.59887H9.31585V7.54297Z" fill="white"/>
<path d="M12.4218 8.59863H11.3859V9.65452H12.4218V8.59863Z" fill="white"/>
<path d="M15.6758 9.65674H14.6398V10.7126H15.6758V9.65674Z" fill="white"/>
<path d="M19.0759 10.7124H18.0399V11.7683H19.0759V10.7124Z" fill="white"/>
<path d="M22.3277 11.7666H21.2937V12.8225H22.3277V11.7666Z" fill="white"/>
<path d="M25.7298 12.9736H24.6938V14.0295H25.7298V12.9736Z" fill="white"/>
<path d="M28.8358 13.8779H27.7998V14.9338H28.8358V13.8779Z" fill="white"/>
<path d="M31.9456 14.936H30.9097V15.9919H31.9456V14.936Z" fill="white"/>
<path d="M34.8937 15.8408H33.8577V16.8967H34.8937V15.8408Z" fill="white"/>
<path d="M12.718 11.0127H11.682V12.0686H12.718V11.0127Z" fill="white"/>
<path d="M15.5239 11.7666H14.4899V12.8225H15.5239V11.7666Z" fill="white"/>
<path d="M18.4839 12.6709H17.4479V13.7308H18.4839V12.6709Z" fill="white"/>
<path d="M21.5897 13.5762H20.5537V14.6321H21.5897V13.5762Z" fill="white"/>
<path d="M24.5477 14.4805H23.5117V15.5364H24.5477V14.4805Z" fill="white"/>
<path d="M27.5057 15.3877H26.4697V16.4436H27.5057V15.3877Z" fill="white"/>
<path d="M30.4617 16.2925H29.4277V17.3484H30.4617V16.2925Z" fill="white"/>
<path d="M33.4197 17.0479H32.3857V18.1038H33.4197V17.0479Z" fill="white"/>
<path d="M36.0815 17.8018H35.0455V18.8577H36.0815V17.8018Z" fill="white"/>
<path d="M15.824 14.1807H14.788V15.2366H15.824V14.1807Z" fill="white"/>
<path d="M18.3379 14.7852H17.3019V15.841H18.3379V14.7852Z" fill="white"/>
<path d="M20.9978 15.5386H19.9618V16.5945H20.9978V15.5386Z" fill="white"/>
<path d="M23.8077 16.2925H22.7717V17.3484H23.8077V16.2925Z" fill="white"/>
<path d="M26.4718 17.0479H25.4358V18.1038H26.4718V17.0479Z" fill="white"/>
<path d="M29.2797 17.8018H28.2437V18.8577H29.2797V17.8018Z" fill="white"/>
<path d="M31.9456 18.5552H30.9097V19.6111H31.9456V18.5552Z" fill="white"/>
<path d="M34.6019 19.1577H33.5679V20.2136H34.6019V19.1577Z" fill="white"/>
<path d="M37.1157 19.9136H36.0817V20.9695H37.1157V19.9136Z" fill="white"/>
<path d="M18.4839 17.1992H17.4479V18.2551H18.4839V17.1992Z" fill="white"/>
<path d="M20.8498 17.6504H19.8138V18.7063H20.8498V17.6504Z" fill="white"/>
<path d="M23.2176 18.2549H22.1816V19.3108H23.2176V18.2549Z" fill="white"/>
<path d="M25.7298 18.8574H24.6938V19.9133H25.7298V18.8574Z" fill="white"/>
<path d="M28.2438 19.46H27.2078V20.5199H28.2438V19.46Z" fill="white"/>
<path d="M30.7577 20.0645H29.7217V21.1204H30.7577V20.0645Z" fill="white"/>
<path d="M33.2718 20.6689H32.2358V21.7248H33.2718V20.6689Z" fill="white"/>
<path d="M35.6377 21.2715H34.6017V22.3274H35.6377V21.2715Z" fill="white"/>
<path d="M38.0037 21.874H36.9677V22.9299H38.0037V21.874Z" fill="white"/>
<path d="M20.7038 19.9136H19.6678V20.9695H20.7038V19.9136Z" fill="white"/>
<path d="M22.9198 20.3628H21.8938V21.4187H22.9278L22.9198 20.3628Z" fill="white"/>
<path d="M25.1397 20.8203H24.1038V21.8762H25.1397V20.8203Z" fill="white"/>
<path d="M27.5057 21.2715H26.4697V22.3274H27.5057V21.2715Z" fill="white"/>
<path d="M29.8698 21.874H28.8418V22.9299H29.8758L29.8698 21.874Z" fill="white"/>
<path d="M32.0878 22.3276H31.0518V23.3835H32.0878V22.3276Z" fill="white"/>
<path d="M34.4537 22.7788H33.4177V23.8347H34.4537V22.7788Z" fill="white"/>
<path d="M36.6736 23.2324H35.6376V24.2883H36.6736V23.2324Z" fill="white"/>
<path d="M38.8916 23.6855H37.8556V24.7414H38.8916V23.6855Z" fill="white"/>
<path d="M22.6258 22.4844H21.5898V23.5403H22.6258V22.4844Z" fill="white"/>
<path d="M24.6959 22.7788H23.6619V23.8347H24.6959V22.7788Z" fill="white"/>
<path d="M26.9137 23.2324H25.8777V24.2883H26.9137V23.2324Z" fill="white"/>
<path d="M28.9838 23.5347H27.9478V24.5906H28.9838V23.5347Z" fill="white"/>
<path d="M31.2018 23.9858H30.1658V25.0417H31.2018V23.9858Z" fill="white"/>
<path d="M33.2718 24.4395H32.2358V25.4954H33.2718V24.4395Z" fill="white"/>
<path d="M35.4897 24.7412H34.4537V25.7971H35.4897V24.7412Z" fill="white"/>
<path d="M37.5596 25.1929H36.5236V26.2468H37.5596V25.1929Z" fill="white"/>
<path d="M39.6296 25.4951H38.5956V26.551H39.6296V25.4951Z" fill="white"/>
<path d="M24.3996 24.8926H23.3677V25.9485H24.4036L24.3996 24.8926Z" fill="white"/>
<path d="M26.3219 25.042H25.2859V26.0979H26.3219V25.042Z" fill="white"/>
<path d="M28.2438 25.4951H27.2078V26.551H28.2438V25.4951Z" fill="white"/>
<path d="M30.3138 25.7974H29.2778V26.8533H30.3138V25.7974Z" fill="white"/>
<path d="M32.2356 26.0918H31.2017V27.1477H32.2356V26.0918Z" fill="white"/>
<path d="M34.3077 26.3999H33.2637V27.4558H34.2996L34.3077 26.3999Z" fill="white"/>
<path d="M36.3657 26.7021H35.3297V27.758H36.3657V26.7021Z" fill="white"/>
<path d="M38.2996 27.0024H37.2635V28.0583H38.2975L38.2996 27.0024Z" fill="white"/>
<path d="M40.2216 27.3066H39.1876V28.3686H40.2216V27.3066Z" fill="white"/>
<path d="M25.7298 27.0024H24.6938V28.0583H25.7298V27.0024Z" fill="white"/>
<path d="M27.6517 27.3066H26.6157V28.3686H27.6517V27.3066Z" fill="white"/>
<path d="M29.4198 27.4561H28.3838V28.5119H29.4198V27.4561Z" fill="white"/>
<path d="M31.3497 27.7578H30.3157V28.8137H31.3517L31.3497 27.7578Z" fill="white"/>
<path d="M33.2718 28.0581H32.2358V29.114H33.2718V28.0581Z" fill="white"/>
<path d="M35.1937 28.3604H34.1597V29.4163H35.1937V28.3604Z" fill="white"/>
<path d="M37.1157 28.5117H36.0817V29.5676H37.1157V28.5117Z" fill="white"/>
<path d="M38.8916 28.814H37.8556V29.8699H38.8916V28.814Z" fill="white"/>
<path d="M40.6655 28.9648H39.6295V30.0207H40.6655V28.9648Z" fill="white"/>
<path d="M26.9137 29.1143H25.8777V30.1701H26.9137V29.1143Z" fill="white"/>
<path d="M28.6876 29.2715H27.6516V30.3274H28.6876V29.2715Z" fill="white"/>
<path d="M30.4617 29.5674H29.4277V30.6233H30.4617V29.5674Z" fill="white"/>
<path d="M32.2356 29.7188H31.2017V30.7746H32.2356V29.7188Z" fill="white"/>
<path d="M34.0098 29.8701H32.9758V30.926H34.0098V29.8701Z" fill="white"/>
<path d="M35.9316 30.1719H34.8976V31.2278H35.9316V30.1719Z" fill="white"/>
<path d="M37.7077 30.3311H36.6737V31.387H37.7077V30.3311Z" fill="white"/>
<path d="M39.4817 30.4727H38.4457V31.5285H39.4817V30.4727Z" fill="white"/>
<path d="M41.1096 30.6235H40.0736V31.6794H41.1096V30.6235Z" fill="white"/>
<path d="M27.9459 31.0767H26.9119V32.1326H27.9459V31.0767Z" fill="white"/>
<path d="M29.5738 31.228H28.5378V32.2839H29.5738V31.228Z" fill="white"/>
<path d="M31.2018 31.3789H30.1658V32.4348H31.2018V31.3789Z" fill="white"/>
<path d="M32.9777 31.5283H31.9417V32.5842H32.9777V31.5283Z" fill="white"/>
<path d="M34.7518 31.6792H33.7158V32.7351H34.7518V31.6792Z" fill="white"/>
<path d="M36.3657 31.8306H35.3297V32.8865H36.3657V31.8306Z" fill="white"/>
<path d="M38.1516 31.9814H37.1156V33.0353H38.1516V31.9814Z" fill="white"/>
<path d="M39.7797 32.1328H38.7377V33.1887H39.7737L39.7797 32.1328Z" fill="white"/>
<path d="M41.5537 32.2837H40.5177V33.3396H41.5537V32.2837Z" fill="white"/>
<path d="M28.6876 33.0376H27.6516V34.0955H28.6876V33.0376Z" fill="white"/>
<path d="M30.3138 33.0376H29.2778V34.0955H30.3138V33.0376Z" fill="white"/>
<path d="M31.9456 33.1865H30.9097V34.2424H31.9456V33.1865Z" fill="white"/>
<path d="M33.5677 33.3398H32.5317V34.3957H33.5677V33.3398Z" fill="white"/>
<path d="M35.1937 33.3398H34.1597V34.3957H35.1937V33.3398Z" fill="white"/>
<path d="M36.8217 33.4907H35.7897V34.5466H36.8257L36.8217 33.4907Z" fill="white"/>
<path d="M38.5957 33.6421H37.5597V34.698H38.5957V33.6421Z" fill="white"/>
<path d="M40.2216 33.791H39.1876V34.8469H40.2216V33.791Z" fill="white"/>
<path d="M41.7017 33.791H40.6656V34.8469H41.7017V33.791Z" fill="white"/>
<path d="M29.2797 34.6978H28.2437V35.7536H29.2797V34.6978Z" fill="white"/>
<path d="M30.7577 34.8491H29.7217V35.905H30.7577V34.8491Z" fill="white"/>
<path d="M32.3858 34.8491H31.3499V35.905H32.3858V34.8491Z" fill="white"/>
<path d="M34.0098 34.998H32.9758V36.0539H34.0098V34.998Z" fill="white"/>
<path d="M35.6377 34.998H34.6017V36.0539H35.6377V34.998Z" fill="white"/>
<path d="M37.2656 35.1494H36.2296V36.2154H37.2656V35.1494Z" fill="white"/>
<path d="M38.8916 35.1494H37.8556V36.2154H38.8916V35.1494Z" fill="white"/>
<path d="M40.3657 35.3003H39.3297V36.3562H40.3657V35.3003Z" fill="white"/>
<path d="M41.9955 35.3003H40.9615V36.3562H41.9955V35.3003Z" fill="white"/>
<path d="M29.7217 36.3564H28.6877V37.4123H29.7217V36.3564Z" fill="white"/>
<path d="M31.2018 36.5073H30.1658V37.5632H31.2018V36.5073Z" fill="white"/>
<path d="M32.8278 36.5073H31.7898V37.5632H32.8238L32.8278 36.5073Z" fill="white"/>
<path d="M34.3077 36.5073H33.2637V37.5632H34.2996L34.3077 36.5073Z" fill="white"/>
<path d="M35.9316 36.6587H34.8976V37.7146H35.9316V36.6587Z" fill="white"/>
<path d="M37.5596 36.6587H36.5236V37.7146H37.5596V36.6587Z" fill="white"/>
<path d="M39.0375 36.8076H38.0035V37.8635H39.0375V36.8076Z" fill="white"/>
<path d="M40.5176 36.8076H39.4816V37.8635H40.5176V36.8076Z" fill="white"/>
<path d="M42.1455 36.8076H41.1095V37.8635H42.1455V36.8076Z" fill="white"/>
<path d="M30.0196 38.0146H28.9836V39.0705H30.0196V38.0146Z" fill="white"/>
<path d="M31.4977 38.0146H30.4617V39.0705H31.4977V38.0146Z" fill="white"/>
<path d="M33.1236 38.166H32.0876V39.2219H33.1236V38.166Z" fill="white"/>
<path d="M34.6019 38.166H33.5679V39.2219H34.6019V38.166Z" fill="white"/>
<path d="M36.2297 38.166H35.1937V39.2219H36.2297V38.166Z" fill="white"/>
<path d="M37.7077 38.166H36.6737V39.2219H37.7077V38.166Z" fill="white"/>
<path d="M39.1875 38.3188H38.1515V39.3747H39.1875V38.3188Z" fill="white"/>
<path d="M40.6655 38.3188H39.6295V39.3747H40.6655V38.3188Z" fill="white"/>
<path d="M42.2916 38.3188H41.2616V39.3747H42.2976L42.2916 38.3188Z" fill="white"/>
<path d="M30.3138 39.5239H29.2778V40.5798H30.3138V39.5239Z" fill="white"/>
<path d="M31.7938 39.5239H30.7578V40.5798H31.7938V39.5239Z" fill="white"/>
<path d="M33.2718 39.665H32.2358V40.7209H33.2718V39.665Z" fill="white"/>
<path d="M34.7518 39.665H33.7158V40.7209H34.7518V39.665Z" fill="white"/>
<path d="M36.3657 39.665H35.3297V40.7209H36.3657V39.665Z" fill="white"/>
<path d="M37.8556 39.665H36.8217V40.7209H37.8556V39.665Z" fill="white"/>
<path d="M39.3337 39.665H38.2977V40.7209H39.3337V39.665Z" fill="white"/>
<path d="M40.8117 39.8262H39.7877V40.8821H40.8217L40.8117 39.8262Z" fill="white"/>
<path d="M42.2916 39.8262H41.2616V40.8821H42.2976L42.2916 39.8262Z" fill="white"/>
<path d="M30.4617 41.0332H29.4277V42.0891H30.4617V41.0332Z" fill="white"/>
<path d="M31.9456 41.0332H30.9097V42.0891H31.9456V41.0332Z" fill="white"/>
<path d="M33.4197 41.1846H32.3857V42.2405H33.4197V41.1846Z" fill="white"/>
<path d="M34.8937 41.1846H33.8577V42.2405H34.8937V41.1846Z" fill="white"/>
<path d="M36.3657 41.1846H35.3297V42.2405H36.3657V41.1846Z" fill="white"/>
<path d="M37.8556 41.1846H36.8217V42.2405H37.8556V41.1846Z" fill="white"/>
<path d="M39.3337 41.1846H38.2977V42.2405H39.3337V41.1846Z" fill="white"/>
<path d="M40.8117 41.1846H39.7877V42.2405H40.8217L40.8117 41.1846Z" fill="white"/>
<path d="M42.2916 41.1846H41.2616V42.2405H42.2976L42.2916 41.1846Z" fill="white"/>
<path d="M30.6097 42.5425H29.5737V43.5984H30.6097V42.5425Z" fill="white"/>
<path d="M32.0878 42.5425H31.0518V43.5984H32.0878V42.5425Z" fill="white"/>
<path d="M33.5677 42.5425H32.5317V43.5984H33.5677V42.5425Z" fill="white"/>
<path d="M35.0458 42.5425H34.0098V43.5984H35.0458V42.5425Z" fill="white"/>
<path d="M36.5236 42.5425H35.4896V43.5984H36.5236V42.5425Z" fill="white"/>
<path d="M38.0037 42.5425H36.9677V43.5984H38.0037V42.5425Z" fill="white"/>
<path d="M39.4817 42.5425H38.4457V43.5984H39.4817V42.5425Z" fill="white"/>
<path d="M40.9617 42.6919H39.9257V43.7478H40.9617V42.6919Z" fill="white"/>
<path d="M42.4397 42.6919H41.4037V43.7478H42.4397V42.6919Z" fill="white"/>
<path d="M30.6097 44.0498H29.5737V45.1057H30.6097V44.0498Z" fill="white"/>
<path d="M32.0878 44.0498H31.0518V45.1057H32.0878V44.0498Z" fill="white"/>
<path d="M33.5677 44.0498H32.5317V45.1057H33.5677V44.0498Z" fill="white"/>
<path d="M35.0458 44.0498H34.0098V45.1057H35.0458V44.0498Z" fill="white"/>
<path d="M36.5236 44.0498H35.4896V45.1057H36.5236V44.0498Z" fill="white"/>
<path d="M38.0037 44.0498H36.9677V45.1057H38.0037V44.0498Z" fill="white"/>
<path d="M39.4817 44.0498H38.4457V45.1057H39.4817V44.0498Z" fill="white"/>
<path d="M40.9617 44.0498H39.9257V45.1057H40.9617V44.0498Z" fill="white"/>
<path d="M42.4397 44.0498H41.4037V45.1057H42.4397V44.0498Z" fill="white"/>
<path d="M30.7577 45.4082H29.7217V46.4641H30.7577V45.4082Z" fill="white"/>
<path d="M32.2356 45.4082H31.2017V46.4641H32.2356V45.4082Z" fill="white"/>
<path d="M33.5677 45.4082H32.5317V46.4641H33.5677V45.4082Z" fill="white"/>
<path d="M35.0458 45.4082H34.0098V46.4641H35.0458V45.4082Z" fill="white"/>
<path d="M36.5236 45.4082H35.4896V46.4641H36.5236V45.4082Z" fill="white"/>
<path d="M38.0037 45.4082H36.9677V46.4641H38.0037V45.4082Z" fill="white"/>
<path d="M39.4817 45.4082H38.4457V46.4641H39.4817V45.4082Z" fill="white"/>
<path d="M40.9617 45.4082H39.9257V46.4641H40.9617V45.4082Z" fill="white"/>
<path d="M42.4397 45.4082H41.4037V46.4641H42.4397V45.4082Z" fill="white"/>
<path d="M30.7577 46.915H29.7217V47.9709H30.7577V46.915Z" fill="white"/>
<path d="M32.2356 46.915H31.2017V47.9709H32.2356V46.915Z" fill="white"/>
<path d="M33.7157 46.915H32.6797V47.9709H33.7157V46.915Z" fill="white"/>
<path d="M35.0458 46.915H34.0098V47.9709H35.0458V46.915Z" fill="white"/>
<path d="M36.5236 46.915H35.4896V47.9709H36.5236V46.915Z" fill="white"/>
<path d="M38.0037 46.915H36.9677V47.9709H38.0037V46.915Z" fill="white"/>
<path d="M39.4817 46.915H38.4457V47.9709H39.4817V46.915Z" fill="white"/>
<path d="M40.9617 46.915H39.9257V47.9709H40.9617V46.915Z" fill="white"/>
<path d="M42.4397 46.915H41.4037V47.9709H42.4397V46.915Z" fill="white"/>
<path d="M30.7577 48.2754H29.7217V49.3313H30.7577V48.2754Z" fill="white"/>
<path d="M32.2356 48.2754H31.2017V49.3313H32.2356V48.2754Z" fill="white"/>
<path d="M33.7157 48.2754H32.6797V49.3313H33.7157V48.2754Z" fill="white"/>
<path d="M35.0458 48.2754H34.0098V49.3313H35.0458V48.2754Z" fill="white"/>
<path d="M36.5236 48.2754H35.4896V49.3313H36.5236V48.2754Z" fill="white"/>
<path d="M38.0037 48.2754H36.9677V49.3313H38.0037V48.2754Z" fill="white"/>
<path d="M39.4817 48.2754H38.4457V49.3313H39.4817V48.2754Z" fill="white"/>
<path d="M40.9617 48.2754H39.9257V49.3313H40.9617V48.2754Z" fill="white"/>
<path d="M42.4397 48.2754H41.4037V49.3313H42.4397V48.2754Z" fill="white"/>
<path d="M14.7879 50.5366L14.1879 50.8389H14.7879V50.5366Z" fill="white"/>
<path d="M16.2659 50.8406V50.085L15.0839 50.5384V50.8406H16.2659Z" fill="white"/>
<path d="M17.5979 50.8386C17.5828 50.4825 17.5325 50.1288 17.4479 49.7827C17.1539 49.7827 16.8479 49.9338 16.5619 49.9338V50.6895H17.5979V50.8386Z" fill="white"/>
<path d="M30.7577 49.6338H29.7217V50.6897H30.7577V49.6338Z" fill="white"/>
<path d="M32.2356 49.6338H31.2017V50.6897H32.2356V49.6338Z" fill="white"/>
<path d="M33.7157 49.6338H32.6797V50.6897H33.7157V49.6338Z" fill="white"/>
<path d="M35.0458 49.6338H34.0098V50.6897H35.0458V49.6338Z" fill="white"/>
<path d="M36.5236 49.6338H35.4896V50.6897H36.5236V49.6338Z" fill="white"/>
<path d="M38.0037 49.6338H36.9677V50.6897H38.0037V49.6338Z" fill="white"/>
<path d="M39.4817 49.6338H38.4457V50.6897H39.4817V49.6338Z" fill="white"/>
<path d="M40.9617 49.6338H39.9257V50.6897H40.9617V49.6338Z" fill="white"/>
<path d="M42.4397 49.6338H41.4037V50.6897H42.4397V49.6338Z" fill="white"/>
<path d="M10.3498 52.0435L10.0538 52.1926H10.3498V52.0435Z" fill="white"/>
<path d="M11.8298 52.1968V51.5923L10.7938 51.8945V52.1968H11.8298Z" fill="white"/>
<path d="M13.3098 52.1965V51.1406L12.2738 51.4429V52.1985L13.3098 52.1965Z" fill="white"/>
<path d="M14.7878 51.1406H13.7518V52.1965H14.7878V51.1406Z" fill="white"/>
<path d="M16.1179 51.1406H15.0839V52.1965H16.1179V51.1406Z" fill="white"/>
<path d="M17.5979 51.1406H16.5619V52.1965H17.5979V51.1406Z" fill="white"/>
<path d="M18.1899 52.1968C18.1899 52.0457 18.1899 52.0457 18.0399 51.8945L18.1899 52.1968Z" fill="white"/>
<path d="M29.2796 51.5923C29.3019 51.8053 29.2488 52.0194 29.1296 52.1968H29.2796V51.5923Z" fill="white"/>
<path d="M30.7577 51.1406H29.7217V52.1965H30.7577V51.1406Z" fill="white"/>
<path d="M32.2356 51.1406H31.2017V52.1965H32.2356V51.1406Z" fill="white"/>
<path d="M33.7157 51.1406H32.6797V52.1965H33.7157V51.1406Z" fill="white"/>
<path d="M35.0458 51.1406H34.0098V52.1965H35.0458V51.1406Z" fill="white"/>
<path d="M36.5236 51.1406H35.4896V52.1965H36.5236V51.1406Z" fill="white"/>
<path d="M38.0037 51.1406H36.9677V52.1965H38.0037V51.1406Z" fill="white"/>
<path d="M39.4817 51.1406H38.4457V52.1965H39.4817V51.1406Z" fill="white"/>
<path d="M40.9617 51.1406H39.9257V52.1965H40.9617V51.1406Z" fill="white"/>
<path d="M42.4397 51.1406H41.4037V52.1965H42.4397V51.1406Z" fill="white"/>
<path d="M7.54189 53.5549V53.1016L6.35791 53.4038V53.5549H7.54189Z" fill="white"/>
<path d="M8.87176 53.5549V52.499L7.83777 52.9524V53.5569L8.87176 53.5549Z" fill="white"/>
<path d="M10.3518 52.499H9.3158V53.5549H10.3518V52.499Z" fill="white"/>
<path d="M11.8298 52.499H10.7938V53.5549H11.8298V52.499Z" fill="white"/>
<path d="M13.3098 52.499H12.2738V53.5549H13.3098V52.499Z" fill="white"/>
<path d="M14.7878 52.499H13.7518V53.5549H14.7878V52.499Z" fill="white"/>
<path d="M16.1179 52.499H15.0839V53.5549H16.1179V52.499Z" fill="white"/>
<path d="M17.5979 52.499H16.5619V53.5549H17.5979V52.499Z" fill="white"/>
<path d="M18.0399 53.5549H18.7819C18.6319 53.2527 18.4859 52.7993 18.3379 52.499H18.0419L18.0399 53.5549Z" fill="white"/>
<path d="M29.2777 52.499C29.1297 52.8013 28.9837 53.2547 28.8357 53.5549H29.2777V52.499Z" fill="white"/>
<path d="M30.7577 52.499H29.7217V53.5549H30.7577V52.499Z" fill="white"/>
<path d="M32.2356 52.499H31.2017V53.5549H32.2356V52.499Z" fill="white"/>
<path d="M33.7157 52.499H32.6797V53.5549H33.7157V52.499Z" fill="white"/>
<path d="M35.0458 52.499H34.0098V53.5549H35.0458V52.499Z" fill="white"/>
<path d="M36.5236 52.499H35.4896V53.5549H36.5236V52.499Z" fill="white"/>
<path d="M38.0037 52.499H36.9677V53.5549H38.0037V52.499Z" fill="white"/>
<path d="M39.4817 52.499H38.4457V53.5549H39.4817V52.499Z" fill="white"/>
<path d="M40.9617 52.499H39.9257V53.5549H40.9617V52.499Z" fill="white"/>
<path d="M41.4037 52.499V53.5549H42.4397C42.4397 53.2527 42.5877 52.7993 42.5877 52.499H41.4037Z" fill="white"/>
<path d="M6.05797 53.855H5.32C5.30015 53.8545 5.28037 53.858 5.26193 53.8654C5.24348 53.8728 5.22674 53.8839 5.2127 53.8981C5.19866 53.9122 5.18764 53.9291 5.18029 53.9477C5.17295 53.9663 5.16943 53.9862 5.16998 54.0062C5.16998 54.3084 5.32 54.6107 5.32 54.9109H6.20598L6.05797 53.855Z" fill="white"/>
<path d="M7.39388 53.855H6.35791V54.9109H7.39388V53.855Z" fill="white"/>
<path d="M8.87176 53.855H7.83777V54.9109H8.87176V53.855Z" fill="white"/>
<path d="M10.3518 53.855H9.3158V54.9109H10.3518V53.855Z" fill="white"/>
<path d="M11.8298 53.855H10.7938V54.9109H11.8298V53.855Z" fill="white"/>
<path d="M13.3098 53.855H12.2738V54.9109H13.3098V53.855Z" fill="white"/>
<path d="M14.7878 53.855H13.7518V54.9109H14.7878V53.855Z" fill="white"/>
<path d="M16.1179 53.855H15.0839V54.9109H16.1179V53.855Z" fill="white"/>
<path d="M17.5979 53.855H16.5619V54.9109H17.5979V53.855Z" fill="white"/>
<path d="M18.0399 55.062H19.0759V54.1572C19.0759 54.0061 18.9279 54.0061 18.9279 53.855H18.0399V55.062Z" fill="white"/>
<path d="M19.8139 55.062L19.5199 54.7598V55.062H19.8139Z" fill="white"/>
<path d="M29.2798 55.0622V54.0063H28.6798C28.5364 54.388 28.3339 54.7444 28.0798 55.0622H29.2798Z" fill="white"/>
<path d="M30.7577 53.855H29.7217V54.9109H30.7577V53.855Z" fill="white"/>
<path d="M32.2356 53.855H31.2017V54.9109H32.2356V53.855Z" fill="white"/>
<path d="M33.7157 53.855H32.6797V54.9109H33.7157V53.855Z" fill="white"/>
<path d="M35.0458 53.855H34.0098V54.9109H35.0458V53.855Z" fill="white"/>
<path d="M36.5236 53.855H35.4896V54.9109H36.5236V53.855Z" fill="white"/>
<path d="M38.0037 53.855H36.9677V54.9109H38.0037V53.855Z" fill="white"/>
<path d="M39.4817 53.855H38.4457V54.9109H39.4817V53.855Z" fill="white"/>
<path d="M40.9617 53.855H39.9257V54.9109H40.9617V53.855Z" fill="white"/>
<path d="M41.4037 55.0622H42.1417C42.2642 54.7247 42.3153 54.365 42.2916 54.0063H41.4037V55.0622Z" fill="white"/>
<path d="M6.06609 55.3623H5.32812C5.47612 55.6646 5.4761 56.118 5.6221 56.4182H6.2221L6.06609 55.3623Z" fill="white"/>
<path d="M7.39388 55.3623H6.35791V56.4182H7.39388V55.3623Z" fill="white"/>
<path d="M8.87176 55.3623H7.83777V56.4182H8.87176V55.3623Z" fill="white"/>
<path d="M10.3518 55.3623H9.3158V56.4182H10.3518V55.3623Z" fill="white"/>
<path d="M11.8298 55.3623H10.7938V56.4182H11.8298V55.3623Z" fill="white"/>
<path d="M13.3098 55.3623H12.2738V56.4182H13.3098V55.3623Z" fill="white"/>
<path d="M14.7878 55.3623H13.7518V56.4182H14.7878V55.3623Z" fill="white"/>
<path d="M16.1179 55.3623H15.0839V56.4182H16.1179V55.3623Z" fill="white"/>
<path d="M17.5979 55.3623H16.5619V56.4182H17.5979V55.3623Z" fill="white"/>
<path d="M19.0759 55.3623H18.0399V56.4182H19.0759V55.3623Z" fill="white"/>
<path d="M19.5198 56.4205H20.5538V55.6648L20.1118 55.2114H19.5118V56.4205H19.5198Z" fill="white"/>
<path d="M21.8858 56.4202L20.9978 55.9668V56.4202H21.8858Z" fill="white"/>
<path d="M27.7999 56.4222V55.3623C27.4927 55.6625 27.1445 55.917 26.7659 56.118V56.4202L27.7999 56.4222Z" fill="white"/>
<path d="M29.2797 55.3623H28.2437V56.4182H29.2797V55.3623Z" fill="white"/>
<path d="M30.7577 55.3623H29.7217V56.4182H30.7577V55.3623Z" fill="white"/>
<path d="M32.2356 55.3623H31.2017V56.4182H32.2356V55.3623Z" fill="white"/>
<path d="M33.7157 55.3623H32.6797V56.4182H33.7157V55.3623Z" fill="white"/>
<path d="M35.0458 55.3623H34.0098V56.4182H35.0458V55.3623Z" fill="white"/>
<path d="M36.5236 55.3623H35.4896V56.4182H36.5236V55.3623Z" fill="white"/>
<path d="M38.0037 55.3623H36.9677V56.4182H38.0037V55.3623Z" fill="white"/>
<path d="M39.4817 55.3623H38.4457V56.4182H39.4817V55.3623Z" fill="white"/>
<path d="M40.9617 55.3623H39.9257V56.4182H40.9617V55.3623Z" fill="white"/>
<path d="M41.4037 56.4221H41.8477C41.9957 56.1198 41.9957 55.6665 42.1417 55.3662H41.4037V56.4221Z" fill="white"/>
<path d="M6.06192 56.7207H5.61792C5.76592 57.023 5.76591 57.4763 5.91391 57.7766H6.06192V56.7207Z" fill="white"/>
<path d="M7.39388 56.7207H6.35791V57.7766H7.39388V56.7207Z" fill="white"/>
<path d="M8.87176 56.7207H7.83777V57.7766H8.87176V56.7207Z" fill="white"/>
<path d="M10.3518 56.7207H9.3158V57.7766H10.3518V56.7207Z" fill="white"/>
<path d="M11.8298 56.7207H10.7938V57.7766H11.8298V56.7207Z" fill="white"/>
<path d="M13.3098 56.7207H12.2738V57.7766H13.3098V56.7207Z" fill="white"/>
<path d="M14.7878 56.7207H13.7518V57.7766H14.7878V56.7207Z" fill="white"/>
<path d="M16.1179 56.7207H15.0839V57.7766H16.1179V56.7207Z" fill="white"/>
<path d="M17.5979 56.7207H16.5619V57.7766H17.5979V56.7207Z" fill="white"/>
<path d="M19.0759 56.7207H18.0399V57.7766H19.0759V56.7207Z" fill="white"/>
<path d="M20.5539 56.7207H19.5199V57.7766H20.5539V56.7207Z" fill="white"/>
<path d="M22.0338 56.7207H20.9978V57.7766H22.0338V56.7207Z" fill="white"/>
<path d="M22.4778 57.7785H23.5118V56.7227H22.4778V57.7785Z" fill="white"/>
<path d="M24.9896 57.7785V56.7227H23.8057V57.7785H24.9896Z" fill="white"/>
<path d="M26.3219 56.7207H25.2859V57.7766H26.3219V56.7207Z" fill="white"/>
<path d="M27.7999 56.7207H26.7659V57.7766H27.7999V56.7207Z" fill="white"/>
<path d="M29.2797 56.7207H28.2437V57.7766H29.2797V56.7207Z" fill="white"/>
<path d="M30.7577 56.7207H29.7217V57.7766H30.7577V56.7207Z" fill="white"/>
<path d="M32.2356 56.7207H31.2017V57.7766H32.2356V56.7207Z" fill="white"/>
<path d="M33.7157 56.7207H32.6797V57.7766H33.7157V56.7207Z" fill="white"/>
<path d="M35.0458 56.7207H34.0098V57.7766H35.0458V56.7207Z" fill="white"/>
<path d="M36.5236 56.7207H35.4896V57.7766H36.5236V56.7207Z" fill="white"/>
<path d="M38.0037 56.7207H36.9677V57.7766H38.0037V56.7207Z" fill="white"/>
<path d="M39.4817 56.7207H38.4457V57.7766H39.4817V56.7207Z" fill="white"/>
<path d="M40.9617 56.7207H39.9257V57.7766H40.9617V56.7207Z" fill="white"/>
<path d="M41.4037 57.7785C41.5696 57.4493 41.6701 57.0907 41.6997 56.7227H41.4037V57.7785Z" fill="white"/>
<path d="M7.39388 58.0786H6.35791V59.1345H7.39388V58.0786Z" fill="white"/>
<path d="M8.87176 58.0786H7.83777V59.1345H8.87176V58.0786Z" fill="white"/>
<path d="M10.3518 58.0786H9.3158V59.1345H10.3518V58.0786Z" fill="white"/>
<path d="M11.8298 58.0786H10.7938V59.1345H11.8298V58.0786Z" fill="white"/>
<path d="M13.3098 58.0786H12.2738V59.1345H13.3098V58.0786Z" fill="white"/>
<path d="M14.7878 58.0786H13.7518V59.1345H14.7878V58.0786Z" fill="white"/>
<path d="M16.1179 58.0786H15.0839V59.1345H16.1179V58.0786Z" fill="white"/>
<path d="M17.5979 58.0786H16.5619V59.1345H17.5979V58.0786Z" fill="white"/>
<path d="M19.0759 58.0786H18.0399V59.1345H19.0759V58.0786Z" fill="white"/>
<path d="M20.5539 58.0786H19.5199V59.1345H20.5539V58.0786Z" fill="white"/>
<path d="M22.0338 58.0786H20.9978V59.1345H22.0338V58.0786Z" fill="white"/>
<path d="M23.5118 58.0786H22.4778V59.1345H23.5118V58.0786Z" fill="white"/>
<path d="M24.8418 58.0786H23.8079V59.1345H24.8418V58.0786Z" fill="white"/>
<path d="M26.3219 58.0786H25.2859V59.1345H26.3219V58.0786Z" fill="white"/>
<path d="M27.7999 58.0786H26.7659V59.1345H27.7999V58.0786Z" fill="white"/>
<path d="M29.2797 58.0786H28.2437V59.1345H29.2797V58.0786Z" fill="white"/>
<path d="M30.7577 58.0786H29.7217V59.1345H30.7577V58.0786Z" fill="white"/>
<path d="M32.2356 58.0786H31.2017V59.1345H32.2356V58.0786Z" fill="white"/>
<path d="M33.7157 58.0786H32.6797V59.1345H33.7157V58.0786Z" fill="white"/>
<path d="M35.0458 58.0786H34.0098V59.1345H35.0458V58.0786Z" fill="white"/>
<path d="M36.5236 58.0786H35.4896V59.1345H36.5236V58.0786Z" fill="white"/>
<path d="M38.0037 58.0786H36.9677V59.1345H38.0037V58.0786Z" fill="white"/>
<path d="M39.4817 58.0786H38.4457V59.1345H39.4817V58.0786Z" fill="white"/>
<path d="M39.9257 58.0787V59.1346H40.8117C40.8117 58.9834 40.9617 58.8323 40.9617 58.6812V58.0767L39.9257 58.0787Z" fill="white"/>
<path d="M7.54204 59.5898H6.50806C6.65606 59.8921 6.80204 60.3455 6.95004 60.6457H7.55004L7.54204 59.5898Z" fill="white"/>
<path d="M8.87176 59.5898H7.83777V60.6457H8.87176V59.5898Z" fill="white"/>
<path d="M10.3518 59.5898H9.3158V60.6457H10.3518V59.5898Z" fill="white"/>
<path d="M11.8298 59.5898H10.7938V60.6457H11.8298V59.5898Z" fill="white"/>
<path d="M13.3098 59.5898H12.2738V60.6457H13.3098V59.5898Z" fill="white"/>
<path d="M14.7878 59.5898H13.7518V60.6457H14.7878V59.5898Z" fill="white"/>
<path d="M16.1179 59.5898H15.0839V60.6457H16.1179V59.5898Z" fill="white"/>
<path d="M17.5979 59.5898H16.5619V60.6457H17.5979V59.5898Z" fill="white"/>
<path d="M19.0759 59.5898H18.0399V60.6457H19.0759V59.5898Z" fill="white"/>
<path d="M20.5539 59.5898H19.5199V60.6457H20.5539V59.5898Z" fill="white"/>
<path d="M22.0338 59.5898H20.9978V60.6457H22.0338V59.5898Z" fill="white"/>
<path d="M23.5118 59.5898H22.4778V60.6457H23.5118V59.5898Z" fill="white"/>
<path d="M24.8418 59.5898H23.8079V60.6457H24.8418V59.5898Z" fill="white"/>
<path d="M26.3219 59.5898H25.2859V60.6457H26.3219V59.5898Z" fill="white"/>
<path d="M27.7999 59.5898H26.7659V60.6457H27.7999V59.5898Z" fill="white"/>
<path d="M29.2797 59.5898H28.2437V60.6457H29.2797V59.5898Z" fill="white"/>
<path d="M30.7577 59.5898H29.7217V60.6457H30.7577V59.5898Z" fill="white"/>
<path d="M32.2356 59.5898H31.2017V60.6457H32.2356V59.5898Z" fill="white"/>
<path d="M33.7157 59.5898H32.6797V60.6457H33.7157V59.5898Z" fill="white"/>
<path d="M35.0458 59.5898H34.0098V60.6457H35.0458V59.5898Z" fill="white"/>
<path d="M36.5236 59.5898H35.4896V60.6457H36.5236V59.5898Z" fill="white"/>
<path d="M38.0037 59.5898H36.9677V60.6457H38.0037V59.5898Z" fill="white"/>
<path d="M39.4817 59.5898H38.4457V60.6457H39.4817V59.5898Z" fill="white"/>
<path d="M39.9257 60.6457C40.2197 60.3305 40.4682 59.975 40.6637 59.5898H39.9257V60.6457Z" fill="white"/>
<path d="M7.09778 60.9463C7.24578 61.2485 7.39179 61.3997 7.53979 61.7019V60.9463H7.09778Z" fill="white"/>
<path d="M8.87176 60.9463H7.83777V62.0022H8.87176V60.9463Z" fill="white"/>
<path d="M10.3518 60.9463H9.3158V62.0022H10.3518V60.9463Z" fill="white"/>
<path d="M11.8298 60.9463H10.7938V62.0022H11.8298V60.9463Z" fill="white"/>
<path d="M13.3098 60.9463H12.2738V62.0022H13.3098V60.9463Z" fill="white"/>
<path d="M14.7878 60.9463H13.7518V62.0022H14.7878V60.9463Z" fill="white"/>
<path d="M16.1179 60.9463H15.0839V62.0022H16.1179V60.9463Z" fill="white"/>
<path d="M17.5979 60.9463H16.5619V62.0022H17.5979V60.9463Z" fill="white"/>
<path d="M19.0759 60.9463H18.0399V62.0022H19.0759V60.9463Z" fill="white"/>
<path d="M20.5539 60.9463H19.5199V62.0022H20.5539V60.9463Z" fill="white"/>
<path d="M22.0338 60.9463H20.9978V62.0022H22.0338V60.9463Z" fill="white"/>
<path d="M23.5118 60.9463H22.4778V62.0022H23.5118V60.9463Z" fill="white"/>
<path d="M24.8418 60.9463H23.8079V62.0022H24.8418V60.9463Z" fill="white"/>
<path d="M26.3219 60.9463H25.2859V62.0022H26.3219V60.9463Z" fill="white"/>
<path d="M27.7999 60.9463H26.7659V62.0022H27.7999V60.9463Z" fill="white"/>
<path d="M29.2797 60.9463H28.2437V62.0022H29.2797V60.9463Z" fill="white"/>
<path d="M30.7577 60.9463H29.7217V62.0022H30.7577V60.9463Z" fill="white"/>
<path d="M32.2356 60.9463H31.2017V62.0022H32.2356V60.9463Z" fill="white"/>
<path d="M33.7157 60.9463H32.6797V62.0022H33.7157V60.9463Z" fill="white"/>
<path d="M35.0458 60.9463H34.0098V62.0022H35.0458V60.9463Z" fill="white"/>
<path d="M36.5236 60.9463H35.4896V62.0022H36.5236V60.9463Z" fill="white"/>
<path d="M38.0037 60.9463H36.9677V62.0022H38.0037V60.9463Z" fill="white"/>
<path d="M38.4457 60.9464V62.0022H39.3337C39.4817 61.8511 39.4817 61.7 39.6277 61.7V60.9443L38.4457 60.9464Z" fill="white"/>
<path d="M8.87176 62.3042H7.83777C8.13177 62.6065 8.27974 63.0598 8.57574 63.3601H8.86974L8.87176 62.3042Z" fill="white"/>
<path d="M10.3518 62.3042H9.3158V63.3661H10.3518V62.3042Z" fill="white"/>
<path d="M11.8298 62.3042H10.7938V63.3661H11.8298V62.3042Z" fill="white"/>
<path d="M13.3098 62.3042H12.2738V63.3661H13.3098V62.3042Z" fill="white"/>
<path d="M14.7878 62.3042H13.7518V63.3661H14.7878V62.3042Z" fill="white"/>
<path d="M16.1179 62.3042H15.0839V63.3661H16.1179V62.3042Z" fill="white"/>
<path d="M17.5979 62.3042H16.5619V63.3661H17.5979V62.3042Z" fill="white"/>
<path d="M19.0759 62.3042H18.0399V63.3661H19.0759V62.3042Z" fill="white"/>
<path d="M20.5539 62.3042H19.5199V63.3661H20.5539V62.3042Z" fill="white"/>
<path d="M22.0338 62.3042H20.9978V63.3661H22.0338V62.3042Z" fill="white"/>
<path d="M23.5118 62.3042H22.4778V63.3661H23.5118V62.3042Z" fill="white"/>
<path d="M24.8418 62.3042H23.8079V63.3661H24.8418V62.3042Z" fill="white"/>
<path d="M26.3219 62.3042H25.2859V63.3661H26.3219V62.3042Z" fill="white"/>
<path d="M27.7999 62.3042H26.7659V63.3661H27.7999V62.3042Z" fill="white"/>
<path d="M29.2797 62.3042H28.2437V63.3661H29.2797V62.3042Z" fill="white"/>
<path d="M30.7577 62.3042H29.7217V63.3661H30.7577V62.3042Z" fill="white"/>
<path d="M32.2356 62.3042H31.2017V63.3661H32.2356V62.3042Z" fill="white"/>
<path d="M33.7157 62.3042H32.6797V63.3661H33.7157V62.3042Z" fill="white"/>
<path d="M35.0458 62.3042H34.0098V63.3661H35.0458V62.3042Z" fill="white"/>
<path d="M36.5236 62.3042H35.4896V63.3661H36.5236V62.3042Z" fill="white"/>
<path d="M38.0037 62.3042H36.9677V63.3661H38.0037V62.3042Z" fill="white"/>
<path d="M38.4457 63.2093C38.6082 62.9294 38.8104 62.6748 39.0457 62.4536H38.4457V63.2093Z" fill="white"/>
<path d="M10.3518 63.6626H9.3158V64.2671L9.75979 64.7205H10.3598L10.3518 63.6626Z" fill="white"/>
<path d="M11.8298 63.6626H10.7938V64.7185H11.8298V63.6626Z" fill="white"/>
<path d="M13.3098 63.6626H12.2738V64.7185H13.3098V63.6626Z" fill="white"/>
<path d="M14.7878 63.6626H13.7518V64.7185H14.7878V63.6626Z" fill="white"/>
<path d="M16.1179 63.6626H15.0839V64.7185H16.1179V63.6626Z" fill="white"/>
<path d="M17.5979 63.6626H16.5619V64.7185H17.5979V63.6626Z" fill="white"/>
<path d="M19.0759 63.6626H18.0399V64.7185H19.0759V63.6626Z" fill="white"/>
<path d="M20.5539 63.6626H19.5199V64.7185H20.5539V63.6626Z" fill="white"/>
<path d="M22.0338 63.6626H20.9978V64.7185H22.0338V63.6626Z" fill="white"/>
<path d="M23.5118 63.6626H22.4778V64.7185H23.5118V63.6626Z" fill="white"/>
<path d="M24.8418 63.6626H23.8079V64.7185H24.8418V63.6626Z" fill="white"/>
<path d="M26.3219 63.6626H25.2859V64.7185H26.3219V63.6626Z" fill="white"/>
<path d="M27.7999 63.6626H26.7659V64.7185H27.7999V63.6626Z" fill="white"/>
<path d="M29.2797 63.6626H28.2437V64.7185H29.2797V63.6626Z" fill="white"/>
<path d="M30.7577 63.6626H29.7217V64.7185H30.7577V63.6626Z" fill="white"/>
<path d="M32.2356 63.6626H31.2017V64.7185H32.2356V63.6626Z" fill="white"/>
<path d="M33.7157 63.6626H32.6797V64.7185H33.7157V63.6626Z" fill="white"/>
<path d="M35.0458 63.6626H34.0098V64.7185H35.0458V63.6626Z" fill="white"/>
<path d="M36.5236 63.6626H35.4896V64.7185H36.5236V63.6626Z" fill="white"/>
<path d="M36.9677 64.7185L38.0037 63.6626H36.9677V64.7185Z" fill="white"/>
<path d="M10.0538 65.1699L10.3498 65.4722V65.1699H10.0538Z" fill="white"/>
<path d="M11.8298 65.1699H10.7938V65.9276L11.2378 66.381H11.8378L11.8298 65.1699Z" fill="white"/>
<path d="M13.3098 65.1699H12.2738V66.2258H13.3098V65.1699Z" fill="white"/>
<path d="M14.7878 65.1699H13.7518V66.2258H14.7878V65.1699Z" fill="white"/>
<path d="M16.1179 65.1699H15.0839V66.2258H16.1179V65.1699Z" fill="white"/>
<path d="M17.5979 65.1699H16.5619V66.2258H17.5979V65.1699Z" fill="white"/>
<path d="M19.0759 65.1699H18.0399V66.2258H19.0759V65.1699Z" fill="white"/>
<path d="M20.5539 65.1699H19.5199V66.2258H20.5539V65.1699Z" fill="white"/>
<path d="M22.0338 65.1699H20.9978V66.2258H22.0338V65.1699Z" fill="white"/>
<path d="M23.5118 65.1699H22.4778V66.2258H23.5118V65.1699Z" fill="white"/>
<path d="M24.8418 65.1699H23.8079V66.2258H24.8418V65.1699Z" fill="white"/>
<path d="M26.3219 65.1699H25.2859V66.2258H26.3219V65.1699Z" fill="white"/>
<path d="M27.7999 65.1699H26.7659V66.2258H27.7999V65.1699Z" fill="white"/>
<path d="M29.2797 65.1699H28.2437V66.2258H29.2797V65.1699Z" fill="white"/>
<path d="M30.7577 65.1699H29.7217V66.2258H30.7577V65.1699Z" fill="white"/>
<path d="M32.2356 65.1699H31.2017V66.2258H32.2356V65.1699Z" fill="white"/>
<path d="M33.7157 65.1699H32.6797V66.2258H33.7157V65.1699Z" fill="white"/>
<path d="M35.0458 65.1699H34.0098V66.2258H35.0458V65.1699Z" fill="white"/>
<path d="M35.4896 66.0747C35.8652 65.8109 36.2118 65.5076 36.5236 65.1699H35.4896V66.0747Z" fill="white"/>
<path d="M11.682 66.5278L11.828 66.6749V66.5278H11.682Z" fill="white"/>
<path d="M12.2738 66.5278V66.9812C12.5842 67.2381 12.9342 67.4423 13.3098 67.5857V66.5299L12.2738 66.5278Z" fill="white"/>
<path d="M14.7878 66.5278H13.7518V67.5837H14.7878V66.5278Z" fill="white"/>
<path d="M16.1179 66.5278H15.0839V67.5837H16.1179V66.5278Z" fill="white"/>
<path d="M17.5979 66.5278H16.5619V67.5837H17.5979V66.5278Z" fill="white"/>
<path d="M19.0759 66.5278H18.0399V67.5837H19.0759V66.5278Z" fill="white"/>
<path d="M20.5539 66.5278H19.5199V67.5837H20.5539V66.5278Z" fill="white"/>
<path d="M22.0338 66.5278H20.9978V67.5837H22.0338V66.5278Z" fill="white"/>
<path d="M23.5118 66.5278H22.4778V67.5837H23.5118V66.5278Z" fill="white"/>
<path d="M24.8418 66.5278H23.8079V67.5837H24.8418V66.5278Z" fill="white"/>
<path d="M26.3219 66.5278H25.2859V67.5837H26.3219V66.5278Z" fill="white"/>
<path d="M27.7999 66.5278H26.7659V67.5837H27.7999V66.5278Z" fill="white"/>
<path d="M29.2797 66.5278H28.2437V67.5837H29.2797V66.5278Z" fill="white"/>
<path d="M30.7577 66.5278H29.7217V67.5837H30.7577V66.5278Z" fill="white"/>
<path d="M32.2356 66.5278H31.2017V67.5837H32.2356V66.5278Z" fill="white"/>
<path d="M32.6797 66.5279V67.5838H33.1237C33.4177 67.4327 33.5677 67.2815 33.8617 67.2815V66.5259L32.6797 66.5279Z" fill="white"/>
<path d="M34.0098 66.9812C34.3058 66.8301 34.4538 66.679 34.7478 66.5278H34.0098V66.9812Z" fill="white"/>
<path d="M13.8959 67.876L14.7819 68.3294V67.876H13.8959Z" fill="white"/>
<path d="M15.0839 67.876V68.4805C15.3779 68.6316 15.8239 68.7828 16.1179 68.9339V68.0291L15.0839 67.876Z" fill="white"/>
<path d="M17.5979 67.876H16.5619V68.9319H17.5979V67.876Z" fill="white"/>
<path d="M19.0759 67.876H18.0399V68.9319H19.0759V67.876Z" fill="white"/>
<path d="M20.5539 67.876H19.5199V68.9319H20.5539V67.876Z" fill="white"/>
<path d="M22.0338 67.876H20.9978V68.9319H22.0338V67.876Z" fill="white"/>
<path d="M23.5118 67.876H22.4778V68.9319H23.5118V67.876Z" fill="white"/>
<path d="M24.8418 67.876H23.8079V68.9319H24.8418V67.876Z" fill="white"/>
<path d="M26.3219 67.876H25.2859V68.9319H26.3219V67.876Z" fill="white"/>
<path d="M27.7999 67.876H26.7659V68.9319H27.7999V67.876Z" fill="white"/>
<path d="M29.2797 67.876H28.2437V68.9319H29.2797V67.876Z" fill="white"/>
<path d="M29.7217 67.876V68.9319C30.0436 68.7627 30.3958 68.6599 30.7577 68.6296V68.0251L29.7217 67.876Z" fill="white"/>
<path d="M31.2017 67.876V68.3294C31.4957 68.1782 31.9397 68.0271 32.2356 67.876H31.2017Z" fill="white"/>
<path d="M18.0399 69.3955C18.3359 69.5466 18.7819 69.5466 19.0759 69.6978V69.3955H18.0399Z" fill="white"/>
<path d="M19.5199 69.3955V69.6978C19.8139 69.6978 20.2579 69.8489 20.5539 69.8489V69.3955H19.5199Z" fill="white"/>
<path d="M20.9978 69.3955V69.8489H22.0338V69.3955H20.9978Z" fill="white"/>
<path d="M22.4778 69.3955V70H23.5118V69.3955H22.4778Z" fill="white"/>
<path d="M23.8079 69.3955V69.8489H24.8418V69.3955H23.8079Z" fill="white"/>
<path d="M25.2859 69.3955V69.8489C25.6379 69.873 25.9911 69.8215 26.3219 69.6978V69.3955H25.2859Z" fill="white"/>
<path d="M26.7659 69.3955V69.6978C27.0599 69.6978 27.5039 69.5466 27.7999 69.5466H26.7659V69.3955Z" fill="white"/>
</svg>