<svg width="76" height="24" fill="none" xmlns="http://www.w3.org/2000/svg"><g clip-path="url(#clip0_144_21159)"><path fill-rule="evenodd" clip-rule="evenodd" d="M72.722 24H3.29C1.752 24 .5 22.647.5 21V3c0-1.653 1.252-3 2.79-3h69.432c1.537 0 2.79 1.347 2.79 3v18c0 1.647-1.253 3-2.79 3z" fill="#181818"/><path fill-rule="evenodd" clip-rule="evenodd" d="M72.722.48c1.29 0 2.346 1.133 2.346 2.52v18c0 1.387-1.049 2.52-2.346 2.52H3.29C2 23.52.945 22.387.945 21V3C.945 1.613 1.993.48 3.29.48h69.432zm0-.48H3.29C1.752 0 .5 1.353.5 3v18c0 1.653 1.252 3 2.79 3h69.432c1.537 0 2.79-1.347 2.79-3V3c0-1.647-1.253-3-2.79-3z" fill="#A6A6A6"/><path d="M38.353 14.085c-1.306 0-2.371.993-2.371 2.362 0 1.36 1.065 2.363 2.371 2.363 1.307 0 2.372-1.002 2.372-2.363 0-1.37-1.065-2.362-2.372-2.362zm0 3.794c-.716 0-1.334-.59-1.334-1.432 0-.85.618-1.432 1.334-1.432.716 0 1.334.582 1.334 1.432 0 .841-.618 1.433-1.334 1.433zm-5.174-3.795c-1.307 0-2.372.994-2.372 2.363 0 1.36 1.065 2.363 2.372 2.363 1.306 0 2.371-1.002 2.371-2.363.001-1.37-1.064-2.362-2.371-2.362zm0 3.796c-.716 0-1.334-.591-1.334-1.433 0-.85.618-1.432 1.334-1.432.716 0 1.333.582 1.333 1.432 0 .841-.617 1.433-1.333 1.433zm-6.155-3.07v1.002h2.4c-.072.564-.26.975-.547 1.262-.349.349-.895.734-1.853.734-1.476 0-2.63-1.19-2.63-2.667 0-1.477 1.154-2.668 2.63-2.668.797 0 1.379.314 1.808.716l.707-.707c-.599-.572-1.396-1.011-2.515-1.011-2.022 0-3.723 1.646-3.723 3.67 0 2.022 1.7 3.668 3.723 3.668 1.092 0 1.916-.357 2.56-1.029.663-.662.869-1.593.869-2.345 0-.233-.018-.448-.054-.627h-3.375v.002zm25.172.778c-.197-.528-.797-1.504-2.023-1.504-1.218 0-2.229.958-2.229 2.363 0 1.324 1.003 2.363 2.345 2.363a2.35 2.35 0 001.97-1.048l-.806-.537c-.269.394-.636.653-1.164.653-.528 0-.904-.241-1.145-.716l3.16-1.306-.108-.268zm-3.223.788c-.026-.913.708-1.379 1.235-1.379.412 0 .76.206.878.501l-2.113.878zm-2.569 2.29h1.039v-6.944h-1.039v6.945zm-1.7-4.054h-.036c-.233-.277-.68-.528-1.244-.528-1.181 0-2.264 1.038-2.264 2.372 0 1.324 1.083 2.354 2.264 2.354.564 0 1.011-.251 1.244-.538h.036v.34c0 .904-.483 1.388-1.262 1.388-.636 0-1.03-.457-1.19-.842l-.905.377c.26.626.95 1.396 2.095 1.396 1.217 0 2.246-.716 2.246-2.462v-4.242h-.984v.385zm-1.19 3.268c-.716 0-1.316-.6-1.316-1.424 0-.832.6-1.44 1.316-1.44.707 0 1.261.607 1.261 1.44 0 .823-.554 1.424-1.261 1.424zm13.545-6.158h-2.484v6.945h1.036v-2.631h1.447c1.15 0 2.279-.832 2.279-2.157 0-1.325-1.13-2.157-2.278-2.157zm.027 3.347H55.61v-2.38h1.475c.775 0 1.215.641 1.215 1.19 0 .538-.44 1.19-1.215 1.19zm6.406-.997c-.75 0-1.528.33-1.85 1.063l.921.385c.197-.385.563-.51.947-.51.537 0 1.082.322 1.09.893v.072a2.294 2.294 0 00-1.08-.268c-.992 0-2.002.545-2.002 1.564 0 .93.813 1.527 1.724 1.527.697 0 1.081-.312 1.322-.678h.036v.536h1v-2.663c0-1.234-.92-1.921-2.108-1.921zm-.125 3.806c-.34 0-.814-.17-.814-.59 0-.536.59-.741 1.1-.741.455 0 .67.098.946.232a1.256 1.256 0 01-1.232 1.099zm5.88-3.655l-1.19 3.011h-.035l-1.233-3.01h-1.116l1.85 4.208-1.055 2.34h1.08l2.851-6.549h-1.153zm-9.338 4.444h1.037v-6.945h-1.037v6.945z" fill="#fff"/><path fill-rule="evenodd" clip-rule="evenodd" d="M41.394 7.334a1.576 1.576 0 01-1.222.546c-.487 0-.895-.182-1.222-.546-.328-.363-.491-.808-.491-1.335 0-.526.163-.971.491-1.335a1.575 1.575 0 011.222-.546c.484 0 .89.183 1.22.549.329.365.493.81.493 1.332 0 .527-.164.972-.491 1.335zm-2.128-.3c.247.27.549.404.906.404s.659-.135.905-.405c.247-.27.37-.614.37-1.033 0-.419-.123-.764-.37-1.033a1.178 1.178 0 00-.905-.405c-.357 0-.66.135-.906.405s-.37.614-.37 1.033c0 .419.124.763.37 1.033z" fill="#fff"/><path d="M26.843 6.146c0 .503-.137.903-.413 1.202-.314.355-.723.532-1.225.532-.481 0-.89-.18-1.227-.54-.336-.36-.505-.807-.505-1.34s.169-.98.505-1.34c.336-.36.746-.54 1.227-.54.239 0 .467.05.684.15.217.102.391.235.521.403l-.293.317c-.22-.285-.524-.428-.913-.428-.35 0-.654.134-.91.4S23.91 5.574 23.91 6c0 .426.127.772.383 1.039.257.266.56.4.911.4.372 0 .683-.135.931-.403.161-.174.255-.417.28-.729h-1.211v-.433h1.615c.016.094.023.185.023.272zm2.561-1.504h-1.517v1.141h1.369v.433h-1.37v1.141h1.518V7.8h-1.946V4.2h1.947v.442zM30.782 7.8h.428V4.642h.931V4.2h-2.29v.442h.93V7.8zm3.017 0V4.2h.428v3.6H33.8zm1.899 0h.428V4.642h.931V4.2h-2.29v.442h.93V7.8zm6.788-3.6v3.6h.427V5.557l-.018-.693h.018L44.608 7.8h.448V4.2h-.429v2.107l.019.694h-.019L43.007 4.2h-.52z" fill="#fff"/><path clip-rule="evenodd" d="M41.394 7.334a1.576 1.576 0 01-1.222.546c-.487 0-.895-.182-1.222-.546-.328-.363-.491-.808-.491-1.335 0-.526.163-.971.491-1.335a1.575 1.575 0 011.222-.546c.484 0 .89.183 1.22.549.329.365.493.81.493 1.332 0 .527-.164.972-.491 1.335zm-2.128-.3c.247.27.549.404.906.404s.659-.135.905-.405c.247-.27.37-.614.37-1.033 0-.419-.123-.764-.37-1.033a1.178 1.178 0 00-.905-.405c-.357 0-.66.135-.906.405s-.37.614-.37 1.033c0 .419.124.763.37 1.033z" stroke="#fff" stroke-width=".111" stroke-miterlimit="10"/><path d="M26.843 6.146c0 .503-.137.903-.413 1.202-.314.355-.723.532-1.225.532-.481 0-.89-.18-1.227-.54-.336-.36-.505-.807-.505-1.34s.169-.98.505-1.34c.336-.36.746-.54 1.227-.54.239 0 .467.05.684.15.217.102.391.235.521.403l-.293.317c-.22-.285-.524-.428-.913-.428-.35 0-.654.134-.91.4S23.91 5.574 23.91 6c0 .426.127.772.383 1.039.257.266.56.4.911.4.372 0 .683-.135.931-.403.161-.174.255-.417.28-.729h-1.211v-.433h1.615c.016.094.023.185.023.272zm2.561-1.504h-1.517v1.141h1.369v.433h-1.37v1.141h1.518V7.8h-1.946V4.2h1.947v.442zM30.782 7.8h.428V4.642h.931V4.2h-2.29v.442h.93V7.8zm3.017 0V4.2h.428v3.6H33.8zm1.899 0h.428V4.642h.931V4.2h-2.29v.442h.93V7.8zm6.788-3.6v3.6h.427V5.557l-.018-.693h.018L44.608 7.8h.448V4.2h-.429v2.107l.019.694h-.019L43.007 4.2h-.52z" stroke="#fff" stroke-width=".111" stroke-miterlimit="10"/><path d="M6.76 5.216c-.163.168-.26.428-.26.765v12.037c0 .338.097.598.26.765l.042.04 6.975-6.744v-.159L6.802 5.177l-.041.04z" fill="url(#paint0_linear_144_21159)"/><path d="M16.102 14.328l-2.324-2.248v-.16l2.325-2.247.052.029 2.755 1.513c.787.432.787 1.14 0 1.572L16.155 14.3l-.053.028z" fill="url(#paint1_linear_144_21159)"/><path d="M16.155 14.299l-2.377-2.3-7.017 6.784c.26.266.687.298 1.17.033l8.224-4.517z" fill="url(#paint2_linear_144_21159)"/><path d="M16.155 9.7L7.931 5.184c-.482-.265-.91-.232-1.17.033L13.778 12l2.377-2.3z" fill="url(#paint3_linear_144_21159)"/><path opacity=".2" d="M16.103 14.248L7.93 18.737c-.457.25-.866.235-1.128.006l-.042.04.041.04c.263.229.671.245 1.129-.006l8.223-4.518-.051-.05z" fill="#181818"/><path opacity=".12" d="M6.76 18.704c-.163-.168-.26-.428-.26-.765v.08c0 .336.097.597.26.764l.043-.04-.042-.04zm12.15-5.998l-2.807 1.542.052.05 2.755-1.512c.393-.216.59-.501.59-.786-.034.258-.234.51-.59.706z" fill="#181818"/><path opacity=".25" d="M7.93 5.263l10.98 6.03c.356.196.556.449.59.707 0-.285-.197-.57-.59-.786L7.93 5.184C7.144 4.75 6.5 5.11 6.5 5.98v.08c0-.871.644-1.23 1.43-.798z" fill="#fff"/></g><defs><linearGradient id="paint0_linear_144_21159" x1="13.159" y1="5.854" x2="4.03" y2="15.297" gradientUnits="userSpaceOnUse"><stop stop-color="#00A0FF"/><stop offset=".007" stop-color="#00A1FF"/><stop offset=".26" stop-color="#00BEFF"/><stop offset=".512" stop-color="#00D2FF"/><stop offset=".76" stop-color="#00DFFF"/><stop offset="1" stop-color="#00E3FF"/></linearGradient><linearGradient id="paint1_linear_144_21159" x1="19.934" y1="12" x2="6.312" y2="12" gradientUnits="userSpaceOnUse"><stop stop-color="#FFE000"/><stop offset=".409" stop-color="#FFBD00"/><stop offset=".775" stop-color="orange"/><stop offset="1" stop-color="#FF9C00"/></linearGradient><linearGradient id="paint2_linear_144_21159" x1="14.863" y1="13.249" x2="2.483" y2="26.054" gradientUnits="userSpaceOnUse"><stop stop-color="#FF3A44"/><stop offset="1" stop-color="#C31162"/></linearGradient><linearGradient id="paint3_linear_144_21159" x1="4.994" y1="1.21" x2="10.522" y2="6.928" gradientUnits="userSpaceOnUse"><stop stop-color="#32A071"/><stop offset=".069" stop-color="#2DA771"/><stop offset=".476" stop-color="#15CF74"/><stop offset=".801" stop-color="#06E775"/><stop offset="1" stop-color="#00F076"/></linearGradient><clipPath id="clip0_144_21159"><path fill="#fff" transform="translate(.5)" d="M0 0h75v24H0z"/></clipPath></defs></svg>